<svg width="510" height="270" viewBox="0 0 510 270" fill="none" xmlns="http://www.w3.org/2000/svg">
<path d="M128.859 252.77C192.768 247.701 222.547 235.074 272.541 207.45C303.925 198.948 316.816 205.203 336.012 225.323C383.145 277.644 446.214 291.069 490.156 225.323C534.097 159.577 505.375 51.9731 400.878 20.4256C349.288 -0.169073 319.681 -4.13794 266.259 3.8296C216.028 9.04341 192.5 24.4021 149.779 49.7878C45.4606 80.2838 27.3984 97.7221 8.89209 128.938C-22.4993 202.343 31.9847 254.787 128.859 252.77Z" fill="#DCF1F6"/>
<g clip-path="url(#clip0_368_268)">
<path d="M438.13 117.744L379.181 103.969C372.851 102.489 366.408 105.986 364.792 111.78L336.359 213.681C334.743 219.474 338.564 225.37 344.895 226.849L403.844 240.625C410.174 242.104 416.616 238.607 418.233 232.813L446.665 130.912C448.282 125.119 444.46 119.223 438.13 117.744Z" fill="#D9D9D9" stroke="#474F97" stroke-width="9.27976"/>
<path d="M388.587 107.764C389.511 104.453 393.192 102.455 396.81 103.3L423.009 109.423C426.627 110.268 428.81 113.637 427.886 116.947L426.214 122.941C425.29 126.252 421.609 128.25 417.992 127.405L391.792 121.283C388.175 120.437 385.991 117.068 386.915 113.758L388.587 107.764Z" fill="#484D8E"/>
<g clip-path="url(#clip1_368_268)">
<path d="M410.827 147.776L408.377 147.203L409.639 142.679C411.034 137.682 407.776 132.605 402.363 131.34C396.951 130.075 391.432 133.101 390.038 138.098L388.775 142.623L386.325 142.05C384.971 141.734 383.593 142.489 383.244 143.74L378.194 161.837C377.845 163.088 378.659 164.355 380.013 164.672L404.515 170.398C405.869 170.714 407.248 169.958 407.596 168.708L412.646 150.61C412.995 149.36 412.181 148.092 410.827 147.776ZM394.789 158.486C393.435 158.169 392.621 156.902 392.97 155.651C393.319 154.401 394.697 153.645 396.051 153.962C397.406 154.278 398.219 155.546 397.87 156.796C397.521 158.047 396.143 158.802 394.789 158.486ZM403.476 146.058L393.676 143.768L394.938 139.243C395.635 136.745 398.395 135.232 401.101 135.864C403.807 136.497 405.436 139.035 404.739 141.534L403.476 146.058Z" fill="#676DD3"/>
</g>
<rect width="13.7755" height="13.7755" transform="matrix(0.972347 0.232588 -0.273844 0.962005 360.559 169.024)" fill="#999FDD"/>
<rect width="13.7755" height="13.7755" transform="matrix(0.972347 0.232588 -0.273844 0.962005 355.844 185.591)" fill="#999FDD"/>
<rect width="13.7755" height="13.7755" transform="matrix(0.972347 0.232588 -0.273844 0.962005 351.129 202.156)" fill="#999FDD"/>
<rect width="13.7755" height="13.7755" transform="matrix(0.972347 0.232588 -0.273844 0.962005 377.303 173.029)" fill="#999FDD"/>
<rect width="13.7755" height="13.7755" transform="matrix(0.972347 0.232588 -0.273844 0.962005 372.59 189.596)" fill="#999FDD"/>
<rect width="13.7755" height="13.7755" transform="matrix(0.972347 0.232588 -0.273844 0.962005 367.873 206.16)" fill="#999FDD"/>
<rect width="13.7755" height="13.7755" transform="matrix(0.972347 0.232588 -0.273844 0.962005 394.045 177.036)" fill="#999FDD"/>
<rect width="13.7755" height="13.7755" transform="matrix(0.972347 0.232588 -0.273844 0.962005 389.328 193.601)" fill="#999FDD"/>
<rect width="13.7755" height="13.7755" transform="matrix(0.972347 0.232588 -0.273844 0.962005 384.615 210.164)" fill="#999FDD"/>
</g>
<g clip-path="url(#clip2_368_268)">
<path fill-rule="evenodd" clip-rule="evenodd" d="M415.425 43.6848L426.756 65.0266L412.13 58.6645L411.074 60.6998L425.843 67.1258L391.484 82.4049L395.09 67.8072L392.689 67.3097L389.116 81.7647L377.784 60.4228L404.533 66.9893L415.425 43.6848ZM413.497 40.0564L413.998 41.0006L403.109 64.3042L376.36 57.7378L375.858 56.7936L413.497 40.0564Z" fill="#7882E4"/>
</g>
<g clip-path="url(#clip3_368_268)">
<path fill-rule="evenodd" clip-rule="evenodd" d="M146.962 228.706L139.134 251.327L133.306 237.499L131.009 238.31L136.892 252.275L100.474 241.72L114.068 233.4L112.7 231.527L99.2374 239.764L107.065 217.143L121.534 238.754L146.962 228.706ZM148.291 224.859L147.945 225.86L122.52 235.909L108.051 214.298L108.397 213.297L148.291 224.859Z" fill="#7882E4"/>
</g>
<path fill-rule="evenodd" clip-rule="evenodd" d="M135.565 116.658C128.171 115.128 122.277 107.526 124.121 100.065C125.964 92.6031 134.099 87.904 142.252 89.591C150.406 91.278 155.54 98.7229 153.697 106.184L148.768 105.164L153.375 117.972L163.556 108.224L158.626 107.204C161.088 97.2392 154.256 87.333 143.367 85.0799C132.478 82.8268 121.653 89.0795 119.192 99.0446C116.73 109.01 122.127 118.619 134.451 121.169L135.565 116.658Z" fill="#0EA5DC"/>
<g clip-path="url(#clip4_368_268)">
<path fill-rule="evenodd" clip-rule="evenodd" d="M287.662 29.6967L323.165 35.4737C325.606 35.8709 327.248 38.0234 326.814 40.2572L322.079 64.625C321.645 66.8587 319.293 68.3613 316.852 67.9641L285.788 62.9093L275.334 69.5876L282.436 33.0359C282.87 30.8022 285.222 29.2996 287.662 29.6967ZM293.798 40.0056L313.522 43.2151L312.645 47.7276L292.922 44.5182L293.798 40.0056ZM306.838 51.4378L292.045 49.0307L291.168 53.5433L305.961 55.9504L306.838 51.4378Z" fill="#7882E4"/>
</g>
<path d="M71.9256 127.25L97.2491 143.694L122.573 127.25C122.903 127.056 123.287 126.953 123.679 126.953C124.071 126.953 124.455 127.056 124.785 127.25C123.348 126.105 121.527 125.443 119.622 125.375H74.8759C72.9966 125.39 71.1777 125.985 69.7129 127.063C70.0623 126.896 70.457 126.825 70.8494 126.858C71.2419 126.891 71.6156 127.027 71.9256 127.25Z" fill="#B5BDFC"/>
<path d="M125.032 127.25C125.181 127.349 125.313 127.47 125.421 127.606C125.734 128.01 125.861 128.51 125.772 128.998C125.684 129.486 125.389 129.923 124.95 130.212L98.4383 147.519C98.0913 147.745 97.6759 147.866 97.25 147.866C96.824 147.866 96.4086 147.745 96.0616 147.519L69.5498 130.194C69.1114 129.904 68.8158 129.468 68.7275 128.979C68.6393 128.491 68.7655 127.991 69.0786 127.587C69.1888 127.457 69.3201 127.344 69.4679 127.25C68.5513 127.962 67.8132 128.846 67.3041 129.843C66.7949 130.839 66.5267 131.925 66.5176 133.025V158.975C66.5176 161.004 67.3983 162.95 68.9659 164.384C70.5336 165.819 72.6598 166.625 74.8768 166.625H119.623C121.84 166.625 123.966 165.819 125.534 164.384C127.102 162.95 127.982 161.004 127.982 158.975V133.025C127.973 131.925 127.705 130.839 127.196 129.843C126.687 128.846 125.949 127.962 125.032 127.25ZM92.7016 151.269L71.9265 164.844C71.5806 165.073 71.1652 165.197 70.7382 165.2C70.4131 165.199 70.0931 165.126 69.8045 164.99C69.516 164.853 69.2671 164.655 69.0786 164.412C68.7655 164.009 68.6393 163.509 68.7275 163.021C68.8158 162.532 69.1114 162.096 69.5498 161.806L90.3249 148.231C90.766 147.992 91.2891 147.913 91.7907 148.01C92.2924 148.106 92.7363 148.371 93.0348 148.753C93.3333 149.134 93.4646 149.604 93.4029 150.07C93.3412 150.536 93.091 150.964 92.7016 151.269ZM125.483 164.394C125.294 164.636 125.045 164.834 124.757 164.971C124.468 165.108 124.148 165.18 123.823 165.181C123.396 165.179 122.981 165.054 122.635 164.825L101.798 151.269C101.554 151.136 101.342 150.959 101.177 150.748C101.012 150.536 100.896 150.296 100.837 150.041C100.779 149.787 100.779 149.524 100.837 149.27C100.896 149.016 101.011 148.775 101.177 148.564C101.342 148.353 101.553 148.175 101.798 148.042C102.042 147.91 102.314 147.825 102.596 147.794C102.878 147.763 103.164 147.786 103.436 147.861C103.707 147.936 103.959 148.062 104.175 148.231L124.95 161.806C125.389 162.096 125.684 162.532 125.772 163.021C125.861 163.509 125.734 164.009 125.421 164.412L125.483 164.394Z" fill="#8C91EE"/>
<path d="M130.031 148C217.937 140.954 280.096 104.395 355.129 129.957" stroke="#37B8D5" stroke-width="4" stroke-dasharray="8 8"/>
<path d="M300.587 112.86C298.261 114.531 240.466 156.071 239.291 156.917C240.041 157.444 229.287 149.708 177.994 112.86C178.094 112.768 236.79 63.7446 236.665 63.8361C238.14 62.6002 240.416 62.6002 241.916 63.8361C240.941 63.0122 256.972 76.4239 300.587 112.86Z" fill="#AFB8FB"/>
<path d="M292.36 75.9424V118.764L244.343 153.278H234.264L186.223 118.764V75.9424C186.223 73.9742 187.973 72.3721 190.124 72.3721H288.483C290.609 72.3721 292.36 73.9742 292.36 75.9424Z" fill="white"/>
<path d="M292.36 75.9424V118.764L244.343 153.278H234.265L233.965 153.049L281.657 118.764V75.9424C281.657 73.9742 279.906 72.3721 277.755 72.3721H288.459C290.61 72.3721 292.36 73.9742 292.36 75.9424Z" fill="#EDEDED"/>
<path d="M300.587 112.859V172.869C300.587 174.357 299.937 175.707 298.861 176.691C297.786 177.675 296.31 178.293 294.685 178.293H183.896C182.271 178.293 180.795 177.675 179.72 176.691C178.644 175.707 177.994 174.38 177.994 172.869V112.859L217.858 141.514L239.291 156.917L260.723 141.514L300.587 112.859Z" fill="#7882E4"/>
<path d="M190.874 178.293H183.896C182.271 178.293 180.795 177.675 179.72 176.691C178.644 175.707 177.994 174.38 177.994 172.869V112.859L184.947 117.872V172.869C184.947 174.357 185.597 175.707 186.672 176.691C187.748 177.675 189.223 178.293 190.874 178.293Z" fill="#7B86E0"/>
<path d="M300.588 112.859V172.869C300.588 174.357 299.938 175.707 298.863 176.691C297.787 177.675 296.312 178.293 294.686 178.293H283.982C285.608 178.293 287.109 177.675 288.159 176.691C289.234 175.707 289.884 174.38 289.884 172.869V120.549L300.588 112.859Z" fill="#AFB8FB"/>
<path d="M249.147 133.114H229.465C227.889 133.114 226.389 133.686 225.264 134.716C208.758 149.936 179.848 176.6 179.723 176.714C180.798 177.698 182.274 178.316 183.899 178.316H294.688C296.313 178.316 297.814 177.698 298.864 176.714C271.805 151.767 275.556 155.2 253.323 134.739C252.223 133.686 250.722 133.114 249.147 133.114Z" fill="#AFB8FB"/>
<path d="M231.766 134.694C215.26 149.914 186.35 176.577 186.225 176.691C187.3 177.676 188.776 178.294 190.401 178.294H183.899C182.274 178.294 180.798 177.676 179.723 176.691C179.848 176.577 208.758 149.937 225.264 134.694C226.389 133.664 227.889 133.092 229.465 133.092H235.967C234.392 133.115 232.891 133.687 231.766 134.694Z" fill="#7882E4"/>
<path d="M298.864 176.691C297.789 177.675 296.314 178.293 294.688 178.293H283.984C285.61 178.293 287.11 177.675 288.161 176.691C261.101 151.744 264.853 155.2 242.645 134.716C241.519 133.686 240.019 133.114 238.443 133.114H249.147C250.723 133.114 252.248 133.709 253.349 134.716C275.556 155.177 271.805 151.744 298.864 176.691Z" fill="#7983E4"/>
<path d="M301.561 112.859C301.561 112.608 301.411 112.333 301.236 112.196L293.333 105.581V75.9427C293.333 73.4709 291.157 71.4798 288.457 71.4798H252.519L243.016 63.5151C240.29 61.2264 237.714 61.7299 235.363 63.6982L226.085 71.4569H190.122C187.421 71.4569 185.245 73.4481 185.245 75.9199V105.558C180.469 109.541 177.368 112.15 177.343 112.173C177.168 112.31 177.018 112.608 177.018 112.837V172.846C177.018 176.394 180.144 179.186 183.895 179.186H294.684C298.485 179.186 301.586 176.348 301.586 172.869V112.859H301.561ZM299.61 172.869C299.61 173.762 299.335 174.608 298.81 175.341L262.197 141.605L299.61 114.736V172.869ZM299.06 112.814C297.96 113.615 295.959 115.057 293.333 116.933V108.03L299.06 112.814ZM237.339 64.4993C238.464 63.5609 240.14 63.5609 241.265 64.4993L241.29 64.5221C241.715 64.8654 244.341 67.0626 249.618 71.4798H228.986C233.987 67.2686 237.289 64.5221 237.339 64.4993ZM187.196 75.9427C187.196 74.478 188.497 73.2879 190.097 73.2879H288.457C290.057 73.2879 291.358 74.478 291.358 75.9427C291.358 81.6645 291.358 118.467 291.358 118.352L260.772 140.324L254.02 134.099C252.719 132.908 250.943 132.222 249.118 132.222H229.436C227.585 132.222 225.86 132.886 224.534 134.076L217.782 140.301L187.196 118.329V75.9427ZM178.968 172.869V114.713L216.381 141.583L179.794 175.341C179.268 174.608 178.968 173.762 178.968 172.869ZM185.245 108.03V116.933L179.518 112.814C180.569 111.921 182.595 110.227 185.245 108.03ZM183.895 177.378C182.995 177.378 181.944 177.103 181.169 176.623L225.96 135.334C226.885 134.488 228.135 134.007 229.461 134.007H249.143C250.443 134.007 251.719 134.488 252.644 135.334L297.41 176.623C296.684 177.057 295.634 177.378 294.684 177.378H183.895Z" fill="#676DD3"/>
<path d="M278.654 118.147C279.204 118.147 279.629 117.735 279.629 117.254C279.629 116.75 279.179 116.361 278.654 116.361H199.927C199.376 116.361 198.951 116.773 198.951 117.254C198.951 117.757 199.401 118.147 199.927 118.147H278.654Z" fill="#676DD3"/>
<path d="M199.927 107.756H278.654C279.204 107.756 279.629 107.344 279.629 106.863C279.629 106.36 279.179 105.971 278.654 105.971H199.927C199.376 105.971 198.951 106.383 198.951 106.863C198.951 107.344 199.376 107.756 199.927 107.756Z" fill="#676DD3"/>
<path d="M278.654 97.3418C279.204 97.3418 279.629 96.9299 279.629 96.4492C279.629 95.9457 279.179 95.5566 278.654 95.5566H199.927C199.376 95.5566 198.951 95.9686 198.951 96.4492C198.951 96.9527 199.401 97.3418 199.927 97.3418H278.654Z" fill="#676DD3"/>
<path d="M199.927 86.9512H278.654C279.204 86.9512 279.629 86.5392 279.629 86.0586C279.629 85.5551 279.179 85.166 278.654 85.166H199.927C199.376 85.166 198.951 85.578 198.951 86.0586C198.951 86.5392 199.376 86.9512 199.927 86.9512Z" fill="#676DD3"/>
<defs>
<clipPath id="clip0_368_268">
<rect width="161.432" height="149.355" fill="white" transform="matrix(0.973765 0.227554 -0.268755 0.963208 332.984 82)"/>
</clipPath>
<clipPath id="clip1_368_268">
<rect width="40.2592" height="37.5775" fill="white" transform="matrix(0.973765 0.227554 -0.268755 0.963208 382.762 126.761)"/>
</clipPath>
<clipPath id="clip2_368_268">
<rect width="41.1945" height="39.0017" fill="white" transform="matrix(0.913731 -0.406319 0.46895 0.883225 373.705 52.7383)"/>
</clipPath>
<clipPath id="clip3_368_268">
<rect width="41.538" height="38.6357" fill="white" transform="matrix(0.960473 0.278372 -0.327028 0.945015 109.885 209)"/>
</clipPath>
<clipPath id="clip4_368_268">
<rect width="59.949" height="55.1633" fill="white" transform="matrix(0.987018 0.160609 -0.190724 0.981644 277.143 21)"/>
</clipPath>
</defs>
</svg>
