<svg width="512" height="510" viewBox="0 0 512 510" fill="none" xmlns="http://www.w3.org/2000/svg">
<path d="M83.9395 437.246C131.39 477.904 170.748 489.361 266.591 488.788C477.134 465.704 533.556 299.363 502.645 232.655C471.735 165.948 458.92 198.131 403.834 146.401C379.998 127.453 372.175 113.092 364.908 82.7625C356.636 57.6606 350.352 45.4359 327.979 36.4796C148.821 -14.0104 35.0541 55.7799 9.58136 204.254C-15.8651 258.426 13.2885 361.526 83.9395 437.246Z" fill="#CAEBFA" stroke="#CAEBFA" stroke-width="1.02616"/>
<path d="M459.009 252.101C459.111 254.264 459.179 256.436 459.213 258.616L458.562 258.626C458.58 259.713 458.588 260.802 458.588 261.893C458.588 262.983 458.58 264.072 458.562 265.158L459.213 265.168C459.179 267.348 459.111 269.52 459.009 271.683L458.358 271.653C458.256 273.83 458.119 275.997 457.949 278.155L458.599 278.206C458.427 280.379 458.222 282.543 457.983 284.696L457.337 284.626C457.097 286.788 456.824 288.94 456.518 291.081L457.161 291.173C456.852 293.333 456.51 295.482 456.134 297.62L455.493 297.509C455.117 299.647 454.708 301.774 454.266 303.89L454.902 304.021C454.456 306.158 453.976 308.283 453.464 310.395L452.831 310.241C452.319 312.353 451.774 314.452 451.196 316.537L451.823 316.711C451.242 318.81 450.629 320.895 449.983 322.967L449.361 322.773C448.714 324.849 448.036 326.911 447.325 328.958L447.94 329.171C447.226 331.229 446.48 333.272 445.702 335.3L445.094 335.067C444.316 337.094 443.507 339.106 442.668 341.102L443.269 341.354C442.424 343.362 441.548 345.355 440.642 347.331L440.05 347.06C439.145 349.032 438.209 350.989 437.244 352.928L437.827 353.218C436.857 355.167 435.856 357.099 434.826 359.013L434.253 358.705C433.224 360.617 432.166 362.511 431.079 364.386L431.643 364.712C430.551 366.595 429.429 368.459 428.28 370.304L427.728 369.96C426.58 371.802 425.405 373.625 424.201 375.428L424.743 375.789C423.535 377.6 422.298 379.39 421.034 381.16L420.504 380.782C419.243 382.547 417.956 384.292 416.642 386.016L417.156 386.408C415.837 388.139 414.493 389.85 413.12 391.537L412.614 391.127C411.246 392.809 409.851 394.47 408.431 396.108L408.92 396.533C407.495 398.177 406.045 399.799 404.569 401.397L404.092 400.957C402.621 402.55 401.125 404.121 399.604 405.668L400.067 406.123C398.542 407.674 396.992 409.201 395.419 410.704L394.972 410.235C393.404 411.734 391.812 413.208 390.197 414.657L390.633 415.141C389.014 416.593 387.372 418.02 385.708 419.423L385.29 418.928C383.633 420.325 381.952 421.697 380.25 423.043L380.652 423.551C378.946 424.9 377.221 426.226 375.472 427.522L375.084 427C373.343 428.291 371.581 429.555 369.799 430.792L370.168 431.324C368.382 432.564 366.578 433.78 364.752 434.965L364.397 434.419C362.579 435.599 360.741 436.751 358.884 437.876L359.221 438.433C357.362 439.558 355.484 440.655 353.588 441.724L353.269 441.157C351.381 442.221 349.475 443.256 347.551 444.263L347.853 444.84C345.926 445.847 343.983 446.826 342.021 447.775L341.738 447.189C339.789 448.133 337.823 449.047 335.841 449.931L336.105 450.524C334.12 451.41 332.119 452.265 330.102 453.09L329.856 452.487C327.852 453.307 325.831 454.097 323.796 454.855L324.022 455.465C321.988 456.223 319.939 456.951 317.875 457.647L317.668 457.031C315.615 457.724 313.548 458.385 311.467 459.016L311.655 459.639C309.578 460.268 307.488 460.866 305.384 461.433L305.215 460.804C303.126 461.366 301.023 461.898 298.908 462.396L299.058 463.03C296.942 463.529 294.814 463.996 292.674 464.431L292.545 463.793C290.428 464.223 288.299 464.621 286.159 464.986L286.269 465.629C284.129 465.995 281.979 466.328 279.818 466.629L279.728 465.983C277.585 466.282 275.431 466.547 273.268 466.78L273.336 467.428C271.182 467.66 269.018 467.859 266.845 468.025L266.796 467.376C264.637 467.541 262.469 467.675 260.292 467.774L260.321 468.425C258.158 468.524 255.986 468.589 253.806 468.622L253.797 467.972C252.71 467.988 251.621 467.997 250.53 467.997C249.439 467.997 248.35 467.988 247.264 467.972L247.254 468.622C245.074 468.589 242.902 468.524 240.738 468.425L240.768 467.774C238.591 467.675 236.423 467.541 234.265 467.376L234.215 468.025C232.041 467.859 229.877 467.66 227.723 467.428L227.793 466.78C225.629 466.547 223.475 466.282 221.332 465.983L221.242 466.629H221.241C219.08 466.328 216.93 465.995 214.791 465.629L214.901 464.986C212.761 464.621 210.632 464.223 208.515 463.793L208.385 464.431C206.245 463.996 204.117 463.529 202.002 463.03L202.151 462.396C200.037 461.898 197.935 461.366 195.846 460.804L195.676 461.433C193.572 460.866 191.481 460.268 189.404 459.639L189.593 459.016C187.512 458.385 185.445 457.724 183.393 457.031L183.184 457.647C181.12 456.951 179.07 456.223 177.036 455.465L177.265 454.855C175.229 454.097 173.209 453.307 171.204 452.487L170.957 453.089C168.94 452.264 166.939 451.409 164.954 450.524L165.22 449.93C163.237 449.046 161.271 448.133 159.322 447.189L159.038 447.775C157.077 446.826 155.133 445.847 153.207 444.84L153.51 444.263C151.586 443.256 149.68 442.221 147.792 441.157L147.472 441.724C145.575 440.655 143.697 439.558 141.839 438.433L142.177 437.876C140.32 436.751 138.481 435.599 136.663 434.419L136.308 434.965C134.481 433.78 132.677 432.564 130.891 431.324L131.261 430.792C129.479 429.555 127.717 428.291 125.977 427L125.587 427.523C123.838 426.227 122.113 424.9 120.407 423.551L120.81 423.043C119.108 421.697 117.428 420.325 115.771 418.928L115.352 419.423C113.688 418.02 112.045 416.593 110.427 415.141L110.862 414.657C109.248 413.208 107.656 411.734 106.089 410.235L105.641 410.704C104.068 409.201 102.517 407.674 100.992 406.123L101.456 405.668C99.9356 404.121 98.4399 402.55 96.9688 400.957L96.4902 401.397C95.0145 399.799 93.5648 398.177 92.1396 396.533L92.6299 396.108C91.2094 394.47 89.8141 392.809 88.4453 391.127L87.9395 391.537C86.5666 389.85 85.2221 388.139 83.9023 386.408L84.4189 386.016C83.1044 384.292 81.8162 382.547 80.5557 380.782L80.0254 381.16C78.7615 379.39 77.525 377.6 76.3164 375.789L76.8594 375.428C75.6558 373.625 74.4793 371.802 73.332 369.96L72.7783 370.304C71.6293 368.459 70.5085 366.595 69.417 364.712L69.9814 364.386C68.8944 362.511 67.8363 360.617 66.8076 358.705L66.2334 359.013C65.2035 357.099 64.2027 355.167 63.2324 353.218L63.8164 352.928C62.8512 350.989 61.9156 349.032 61.0107 347.06L60.418 347.331C59.5116 345.355 58.6358 343.362 57.791 341.354L58.3926 341.102C57.5532 339.106 56.7441 337.094 55.9668 335.067L55.3574 335.3C54.5798 333.272 53.8336 331.229 53.1191 329.171L53.7354 328.958C53.0246 326.911 52.3451 324.849 51.6982 322.773L51.0762 322.967C50.4306 320.895 49.8174 318.81 49.2363 316.711L49.8643 316.537C49.2868 314.451 48.7409 312.353 48.2285 310.241L47.5957 310.395C47.0832 308.283 46.6037 306.158 46.1572 304.021L46.7949 303.89C46.3529 301.774 45.9434 299.647 45.5674 297.509L44.9258 297.62C44.5498 295.482 44.2066 293.333 43.8975 291.173L44.543 291.081C44.2365 288.94 43.9631 286.788 43.7236 284.626L43.0752 284.696C42.8367 282.543 42.6322 280.379 42.4609 278.206L43.1104 278.155C42.9403 275.997 42.8046 273.83 42.7021 271.653L42.0508 271.683C41.949 269.52 41.8799 267.348 41.8457 265.168L42.498 265.158C42.4895 264.615 42.4828 264.071 42.4785 263.527L42.4727 261.893C42.4727 260.802 42.481 259.713 42.498 258.626L41.8457 258.616C41.8799 256.436 41.949 254.264 42.0508 252.101L42.7021 252.132C42.8046 249.956 42.9403 247.788 43.1104 245.63L42.4609 245.578C42.6322 243.405 42.8376 241.241 43.0762 239.087L43.7236 239.159C43.9631 236.997 44.2365 234.845 44.543 232.703L43.8975 232.611C44.2066 230.451 44.5498 228.301 44.9258 226.163L45.5674 226.276C45.9434 224.138 46.3529 222.011 46.7949 219.896L46.1572 219.762C46.6037 217.625 47.0833 215.501 47.5957 213.39L48.2285 213.544C48.7409 211.432 49.2868 209.333 49.8643 207.247L49.2363 207.073C49.742 205.247 50.2716 203.431 50.8262 201.625L51.0762 200.817L51.6982 201.011C52.3451 198.935 53.0247 196.874 53.7354 194.827L53.1191 194.613C53.8336 192.555 54.5798 190.512 55.3574 188.484L55.9668 188.718C56.7441 186.691 57.5531 184.678 58.3926 182.683L57.791 182.431C58.6359 180.422 59.5116 178.429 60.418 176.453L61.0107 176.725C61.9155 174.752 62.8513 172.796 63.8164 170.857L63.2324 170.566C64.2029 168.617 65.2033 166.685 66.2334 164.771L66.8076 165.08C67.8363 163.168 68.8944 161.275 69.9814 159.399L69.417 159.072C70.5087 157.189 71.6291 155.325 72.7783 153.479L73.332 153.824C74.4793 151.982 75.6558 150.159 76.8594 148.356L76.3174 147.994C77.3904 146.387 78.4848 144.794 79.6016 143.219L80.0254 142.624L80.5557 143.003C81.8163 141.238 83.1043 139.492 84.4189 137.769L83.9033 137.375C85.223 135.645 86.5667 133.933 87.9395 132.246L88.4453 132.658C89.8142 130.976 91.2093 129.314 92.6299 127.676L92.1396 127.251C93.5649 125.607 95.0153 123.985 96.4912 122.387L96.9688 122.827C98.4398 121.234 99.9358 119.664 101.456 118.117L100.992 117.661C102.517 116.11 104.068 114.583 105.641 113.08L106.089 113.549C107.657 112.051 109.248 110.576 110.862 109.127L110.428 108.643C112.046 107.19 113.689 105.763 115.353 104.36L115.771 104.857C117.428 103.46 119.108 102.088 120.81 100.742L120.407 100.233C122.113 98.884 123.839 97.5576 125.588 96.2607L125.977 96.7852C127.717 95.4946 129.479 94.2303 131.261 92.9932L130.891 92.46C132.677 91.2201 134.481 90.0046 136.308 88.8193L136.663 89.3662C138.481 88.1862 140.32 87.0337 142.177 85.9092L141.839 85.3516C143.698 84.2261 145.575 83.1284 147.472 82.0596L147.792 82.6279C149.68 81.564 151.586 80.528 153.51 79.5215L153.207 78.9434C155.133 77.9358 157.077 76.9578 159.038 76.0088L159.322 76.5957C161.271 75.6526 163.237 74.7385 165.22 73.8545L164.954 73.2598C166.939 72.3748 168.94 71.5191 170.957 70.6943L171.204 71.2979C173.209 70.4783 175.229 69.6884 177.265 68.9297L177.036 68.3193C179.07 67.561 181.12 66.8333 183.184 66.1367L183.393 66.7539C185.445 66.0611 187.512 65.399 189.593 64.7686L189.404 64.1445C191.481 63.5153 193.572 62.9168 195.676 62.3506L195.846 62.9805C197.935 62.4182 200.037 61.8875 202.151 61.3887L202.002 60.7539C204.117 60.255 206.244 59.7871 208.384 59.3525L208.385 59.3535L208.515 59.9922C210.632 59.5621 212.761 59.1637 214.901 58.7979L214.791 58.1553C216.93 57.7896 219.081 57.4559 221.242 57.1553L221.332 57.8018C223.475 57.5036 225.629 57.2378 227.793 57.0049L227.723 56.3564C229.877 56.1245 232.041 55.9243 234.215 55.7578L234.265 56.4082C236.423 56.2429 238.591 56.1103 240.768 56.0107L240.738 55.3594C242.902 55.2604 245.074 55.1944 247.254 55.1611L247.264 55.8125C248.35 55.7959 249.439 55.7881 250.53 55.7881C251.621 55.7881 252.71 55.7959 253.797 55.8125L253.806 55.1611C255.986 55.1944 258.158 55.2604 260.321 55.3594L260.293 56.0107C262.469 56.1103 264.637 56.2429 266.796 56.4082L266.845 55.7578C269.018 55.9243 271.182 56.1245 273.336 56.3564L273.268 57.0049C275.431 57.2378 277.585 57.5036 279.729 57.8018L279.817 57.1553C281.979 57.4559 284.129 57.7896 286.269 58.1553L286.159 58.7979C288.299 59.1637 290.428 59.5622 292.545 59.9922L292.675 59.3535V59.3525C294.815 59.7872 296.942 60.2549 299.058 60.7539L298.908 61.3887C301.023 61.8875 303.126 62.4182 305.215 62.9805L305.384 62.3506C307.488 62.9168 309.578 63.5153 311.655 64.1445L311.467 64.7686C313.548 65.399 315.615 66.0611 317.668 66.7539L317.875 66.1357C319.939 66.8324 321.988 67.561 324.022 68.3193L323.796 68.9297C325.831 69.6884 327.852 70.4783 329.856 71.2979L330.102 70.6943C332.119 71.5192 334.12 72.3746 336.105 73.2598L335.841 73.8545C337.823 74.7385 339.789 75.6526 341.738 76.5957L342.021 76.0088C343.983 76.9578 345.927 77.9358 347.853 78.9434L347.551 79.5215C349.475 80.528 351.381 81.564 353.269 82.6279L353.588 82.0596C355.484 83.1284 357.362 84.2261 359.221 85.3516L358.884 85.9092C360.741 87.0337 362.579 88.1862 364.397 89.3662L364.752 88.8193C366.578 90.0045 368.383 91.2192 370.169 92.459L369.799 92.9932C371.581 94.2304 373.343 95.4945 375.084 96.7852L375.472 96.2607C377.221 97.5576 378.946 98.884 380.652 100.233L380.25 100.742C381.952 102.088 383.633 103.46 385.29 104.857L385.707 104.36C387.371 105.763 389.013 107.19 390.632 108.643L390.197 109.127C391.812 110.576 393.404 112.051 394.972 113.549L395.419 113.08C396.992 114.583 398.542 116.11 400.067 117.661L399.604 118.117C401.125 119.664 402.621 121.234 404.092 122.827L404.568 122.387C406.044 123.985 407.495 125.607 408.92 127.251L408.431 127.676C409.851 129.314 411.245 130.976 412.614 132.658L413.12 132.246C414.493 133.933 415.837 135.645 417.156 137.375L416.642 137.769C417.956 139.492 419.243 141.238 420.504 143.003L421.034 142.624C422.298 144.394 423.534 146.184 424.742 147.994L424.201 148.356C425.405 150.159 426.58 151.982 427.728 153.824L428.28 153.479C429.43 155.325 430.551 157.189 431.643 159.072H431.644L431.079 159.399C432.166 161.275 433.224 163.168 434.253 165.08L434.826 164.771C435.856 166.685 436.857 168.617 437.827 170.566L437.244 170.857C438.209 172.796 439.145 174.752 440.05 176.725L440.642 176.453C441.548 178.429 442.424 180.422 443.269 182.431H443.27L442.668 182.683C443.507 184.679 444.316 186.691 445.094 188.718L445.702 188.484C446.48 190.512 447.226 192.555 447.94 194.613H447.941L447.325 194.827C448.036 196.874 448.715 198.935 449.361 201.011L449.983 200.817C450.629 202.889 451.242 204.974 451.823 207.073L451.196 207.247C451.774 209.333 452.319 211.432 452.831 213.544L453.464 213.39C453.976 215.501 454.456 217.625 454.902 219.762L454.266 219.896C454.708 222.011 455.117 224.138 455.493 226.276L456.134 226.163C456.51 228.301 456.852 230.451 457.161 232.611L456.518 232.703C456.824 234.845 457.097 236.997 457.337 239.159L457.983 239.087C458.222 241.241 458.427 243.405 458.599 245.578H458.6L457.949 245.63C458.119 247.788 458.256 249.956 458.358 252.132L459.009 252.101Z" stroke="#5764B3" stroke-width="1.30444" stroke-dasharray="6.52 6.52"/>
<path d="M289.149 475.92L283.096 471.578C283.201 470.751 283.201 469.821 283.201 468.994C283.201 468.063 283.201 467.236 283.096 466.409L289.149 462.067C290.193 461.447 290.506 460.206 289.88 459.276L282.47 446.767C281.844 445.733 280.592 445.423 279.548 446.044L272.661 449.042C271.2 448.008 269.635 447.181 267.965 446.457L267.339 439.014C267.339 437.877 266.4 436.946 265.252 436.946H250.433C249.285 436.946 248.346 437.877 248.346 439.014L247.616 446.354C245.946 447.077 244.381 447.904 242.92 448.938L236.032 445.94C234.989 445.32 233.737 445.733 233.11 446.664L225.806 459.276C225.18 460.31 225.597 461.55 226.536 462.067L232.589 466.409C232.484 467.236 232.484 468.167 232.484 468.994C232.484 469.821 232.484 470.751 232.589 471.578L226.536 475.92C225.493 476.54 225.18 477.781 225.806 478.711L233.215 491.22C233.841 492.254 235.093 492.564 236.137 491.944L243.024 488.946C244.485 489.979 246.05 490.806 247.72 491.53L248.346 498.973C248.346 500.11 249.285 501.041 250.433 501.041H265.252C266.4 501.041 267.339 500.11 267.339 498.973L268.069 491.633C269.739 490.91 271.304 490.083 272.765 489.049L279.653 492.047C280.696 492.667 281.949 492.254 282.575 491.323L289.984 478.815C290.506 477.781 290.088 476.54 289.149 475.92ZM257.843 481.192C250.955 481.192 245.32 475.713 245.32 468.994C245.32 462.274 250.955 456.795 257.843 456.795C264.73 456.795 270.365 462.274 270.365 468.994C270.365 475.713 264.73 481.192 257.843 481.192Z" fill="#5663BF"/>
<path d="M156.278 407.714L146.19 400.477C146.364 399.099 146.364 397.548 146.364 396.17C146.364 394.619 146.364 393.241 146.19 391.863L156.278 384.626C158.017 383.592 158.539 381.525 157.495 379.974L145.147 359.126C144.103 357.403 142.016 356.886 140.277 357.92L128.798 362.917C126.363 361.194 123.754 359.815 120.971 358.609L119.927 346.204C119.927 344.308 118.362 342.758 116.449 342.758H91.7516C89.8385 342.758 88.2731 344.308 88.2731 346.204L87.0557 358.437C84.2729 359.643 81.664 361.021 79.229 362.744L67.75 357.748C66.0107 356.714 63.9236 357.403 62.8801 358.954L50.7054 379.974C49.6618 381.697 50.3575 383.765 51.9228 384.626L62.0105 391.863C61.8365 393.241 61.8365 394.792 61.8365 396.17C61.8365 397.548 61.8365 399.099 62.0105 400.477L51.9228 407.714C50.1836 408.748 49.6618 410.815 50.7054 412.366L63.054 433.214C64.0976 434.937 66.1847 435.454 67.9239 434.42L79.403 429.423C81.8379 431.146 84.4468 432.525 87.2296 433.731L88.2731 446.136C88.2731 448.031 89.8385 449.582 91.7516 449.582H116.449C118.362 449.582 119.927 448.031 119.927 446.136L121.145 433.903C123.928 432.697 126.537 431.319 128.972 429.596L140.451 434.592C142.19 435.626 144.277 434.937 145.321 433.386L157.669 412.538C158.539 410.815 157.843 408.748 156.278 407.714ZM104.1 416.501C92.6213 416.501 83.2293 407.369 83.2293 396.17C83.2293 384.971 92.6213 375.839 104.1 375.839C115.579 375.839 124.971 384.971 124.971 396.17C124.971 407.369 115.579 416.501 104.1 416.501Z" fill="#5663BF"/>
<path d="M151.647 196.791L147.108 193.534C147.186 192.914 147.186 192.216 147.186 191.596C147.186 190.898 147.186 190.278 147.108 189.658L151.647 186.401C152.43 185.936 152.664 185.006 152.195 184.308L146.638 174.926C146.168 174.151 145.229 173.918 144.446 174.384L139.281 176.632C138.185 175.857 137.011 175.236 135.759 174.694L135.289 169.111C135.289 168.258 134.585 167.561 133.724 167.561H122.61C121.749 167.561 121.045 168.258 121.045 169.111L120.497 174.616C119.245 175.159 118.071 175.779 116.975 176.554L111.809 174.306C111.027 173.841 110.088 174.151 109.618 174.849L104.139 184.308C103.67 185.083 103.983 186.014 104.687 186.401L109.227 189.658C109.148 190.278 109.148 190.976 109.148 191.596C109.148 192.216 109.148 192.914 109.227 193.534L104.687 196.791C103.905 197.256 103.67 198.186 104.139 198.884L109.696 208.266C110.166 209.041 111.105 209.274 111.888 208.809L117.053 206.56C118.149 207.335 119.323 207.956 120.575 208.498L121.045 214.081C121.045 214.934 121.749 215.631 122.61 215.631H133.724C134.585 215.631 135.289 214.934 135.289 214.081L135.837 208.576C137.089 208.033 138.263 207.413 139.359 206.638L144.525 208.886C145.307 209.351 146.247 209.041 146.716 208.343L152.273 198.962C152.664 198.186 152.351 197.256 151.647 196.791ZM128.167 200.745C123.002 200.745 118.775 196.636 118.775 191.596C118.775 186.556 123.002 182.447 128.167 182.447C133.333 182.447 137.559 186.556 137.559 191.596C137.559 196.636 133.333 200.745 128.167 200.745Z" fill="#5663BF"/>
<path d="M475.12 218.403H437.793C433.785 218.403 430.535 221.622 430.535 225.593V295.439C430.535 299.41 433.785 302.629 437.793 302.629H475.12C479.128 302.629 482.377 299.41 482.377 295.439V225.593C482.377 221.622 479.128 218.403 475.12 218.403Z" fill="white" stroke="#5764B3" stroke-width="6.22108"/>
<path d="M444.016 291.329H468.9" stroke="#5764B3" stroke-width="6.22108" stroke-linecap="round"/>
<g clip-path="url(#clip0_342_2228)">
<path d="M471.118 272.303V252.768H465.051V272.303H463.534V256.775H457.466V272.303H455.949V260.782H449.881V272.303H448.364V265.291H442.296V272.303H441.791C441.512 272.303 441.285 272.527 441.285 272.804C441.285 273.081 441.512 273.305 441.791 273.305H442.296H448.364H449.881H455.949H457.466H463.534H465.051H471.118C471.398 273.305 471.624 273.081 471.624 272.804C471.624 272.527 471.398 272.303 471.118 272.303ZM443.308 272.303V266.292H447.353V272.303H443.308ZM450.892 272.303V261.784H454.938V272.303H450.892ZM458.477 272.303V257.777H462.522V272.303H458.477ZM466.062 272.303V253.769H470.107V272.303H466.062Z" fill="#5764B3"/>
<path d="M445.346 258.442C445.432 258.442 445.519 258.421 445.598 258.375L463.938 247.886L462.79 250.385C462.674 250.637 462.786 250.934 463.041 251.049C463.109 251.08 463.18 251.094 463.25 251.094C463.442 251.094 463.626 250.985 463.711 250.8L465.512 246.878C465.517 246.866 465.516 246.852 465.521 246.839C465.531 246.812 465.538 246.787 465.543 246.759C465.546 246.745 465.554 246.733 465.555 246.719C465.555 246.713 465.553 246.708 465.553 246.702C465.554 246.683 465.552 246.665 465.551 246.646C465.55 246.619 465.545 246.593 465.539 246.565C465.535 246.546 465.534 246.526 465.528 246.508C465.522 246.49 465.511 246.475 465.503 246.457C465.496 246.446 465.496 246.432 465.489 246.42C465.482 246.408 465.47 246.401 465.462 246.39C465.451 246.374 465.443 246.358 465.431 246.344C465.417 246.329 465.401 246.318 465.385 246.304C465.365 246.286 465.344 246.269 465.321 246.254C465.305 246.244 465.291 246.233 465.274 246.224C465.268 246.222 465.265 246.217 465.26 246.214C465.247 246.209 465.233 246.21 465.221 246.205C465.193 246.195 465.166 246.188 465.137 246.183C465.124 246.181 465.113 246.173 465.099 246.172L460.77 245.756C460.489 245.728 460.245 245.932 460.218 246.206C460.19 246.482 460.394 246.727 460.672 246.753L463.431 247.018L445.093 257.508C444.851 257.646 444.768 257.952 444.908 258.192C445.001 258.353 445.171 258.442 445.346 258.442Z" fill="#5764B3"/>
</g>
<path d="M444.016 219.43C444.016 217.161 445.872 215.321 448.163 215.321H464.753C467.043 215.321 468.9 217.161 468.9 219.43V223.538C468.9 225.808 467.043 227.647 464.753 227.647H448.163C445.872 227.647 444.016 225.808 444.016 223.538V219.43Z" fill="#5764B3"/>
<g clip-path="url(#clip1_342_2228)">
<path d="M167.044 297.734V345.8C167.044 361.895 206.295 374.918 254.742 374.918C285.427 374.918 312.456 369.687 328.113 361.748C336.163 357.688 341.185 352.933 342.218 347.775C342.366 347.117 342.439 346.458 342.439 345.8V297.734C342.439 297.587 342.439 297.441 342.403 297.295C342.439 297.222 342.439 297.185 342.403 297.149C342.403 296.892 342.366 296.637 342.329 296.381C342.292 296.271 342.292 296.161 342.255 296.051C342.218 295.758 342.145 295.466 342.033 295.173V295.137C341.886 294.552 341.664 294.003 341.405 293.418C336.531 282.919 314.782 274.25 285.611 270.628C281.808 270.152 277.857 269.75 273.832 269.457H273.61C267.518 268.982 261.203 268.763 254.741 268.763C248.28 268.763 241.965 268.982 235.873 269.457H235.651C231.627 269.75 227.676 270.152 223.872 270.628C194.701 274.25 172.952 282.919 168.078 293.418C167.819 294.003 167.598 294.552 167.45 295.137V295.173C167.339 295.466 167.266 295.758 167.229 296.051C167.155 296.417 167.118 296.746 167.081 297.149V297.295C167.044 297.441 167.044 297.587 167.044 297.734Z" fill="#5662B8"/>
<path opacity="0.1" d="M167.044 297.882V300.186C167.044 316.281 206.295 329.34 254.742 329.34C303.188 329.34 342.439 316.281 342.439 300.186V297.882C342.439 298.248 342.403 298.577 342.366 298.906C341.221 310.246 320.506 319.976 291.076 324.402C290.042 324.549 289.045 324.695 288.011 324.841C286.35 325.097 284.688 325.317 282.99 325.5C282.288 325.536 281.55 325.61 280.811 325.719C276.712 326.158 272.466 326.487 268.109 326.707C265.192 326.853 262.238 326.963 259.247 326.999C257.77 327.036 256.256 327.036 254.742 327.036C253.228 327.036 251.714 327.036 250.237 326.999C247.246 326.963 244.292 326.853 241.375 326.707C237.017 326.487 232.771 326.158 228.673 325.719C227.934 325.61 227.196 325.536 226.494 325.5C224.795 325.317 223.134 325.097 221.473 324.841C220.439 324.695 219.441 324.549 218.408 324.402C188.978 319.976 168.263 310.246 167.118 298.906C167.081 298.577 167.044 298.248 167.044 297.882Z" fill="#E8E8E9"/>
<path d="M167.044 297.589V297.882C167.044 298.248 167.081 298.577 167.117 298.906C168.668 310.283 189.273 319.903 218.407 324.402C219.441 324.549 220.438 324.695 221.472 324.841C222.506 324.988 223.54 325.097 224.574 325.244C225.201 325.317 225.866 325.39 226.494 325.5C227.195 325.537 227.934 325.61 228.672 325.719C231.405 325.975 234.211 326.231 237.054 326.414C238.495 326.524 239.935 326.634 241.375 326.707C244.292 326.817 247.246 326.926 250.237 326.999C251.714 327.036 253.228 327.036 254.742 327.036C256.256 327.036 257.77 327.036 259.247 326.999C262.238 326.926 265.192 326.817 268.109 326.707C269.549 326.634 270.989 326.524 272.429 326.414C275.273 326.231 278.079 325.975 280.812 325.719C281.55 325.61 282.289 325.537 282.99 325.5C283.618 325.39 284.282 325.317 284.91 325.244C285.944 325.097 286.978 324.988 288.012 324.841C289.046 324.695 290.043 324.549 291.077 324.402C320.211 319.903 340.815 310.283 342.366 298.906C342.403 298.577 342.439 298.248 342.439 297.882V297.589C342.439 297.48 342.439 297.406 342.403 297.297C342.439 297.224 342.439 297.187 342.403 297.151C342.366 296.748 342.329 296.419 342.255 296.053C342.218 295.87 342.182 295.687 342.182 295.504C342.218 295.431 342.182 295.358 342.145 295.285C342.145 295.212 342.145 295.102 342.108 294.992C342.034 294.773 341.997 294.517 341.886 294.297C341.775 293.968 341.627 293.603 341.48 293.236C336.901 282.811 316.038 274.178 287.864 270.337C284.504 269.862 281.033 269.459 277.451 269.167C277.414 269.13 277.34 269.13 277.303 269.13C270.103 268.472 262.533 268.143 254.742 268.143C246.95 268.143 239.381 268.472 232.18 269.13C232.143 269.13 232.069 269.13 232.032 269.167C228.45 269.459 224.979 269.862 221.619 270.337C193.445 274.178 172.582 282.811 168.004 293.236C167.745 293.822 167.524 294.407 167.376 294.992C167.302 295.358 167.302 295.687 167.228 296.053C167.154 296.419 167.117 296.748 167.081 297.151V297.297C167.081 297.37 167.044 297.48 167.044 297.589Z" fill="#919BF0"/>
<path d="M196.038 338.069V351.504C203.103 353.62 211.209 355.359 220.076 356.624V343.19C211.208 341.924 203.103 340.186 196.038 338.069Z" fill="#919BF0"/>
<path opacity="0.3" d="M167.378 294.992C167.415 295.065 167.415 295.102 167.452 295.139V295.175C171.587 309.954 209.067 321.513 254.743 321.513C300.42 321.513 337.9 309.954 342.035 295.175V295.139C342.072 295.102 342.072 295.065 342.072 295.029L342.109 294.992C342.035 294.773 341.998 294.517 341.888 294.297C341.777 293.968 341.629 293.603 341.482 293.236C336.902 282.811 316.04 274.178 287.866 270.337C284.505 269.862 281.034 269.459 277.453 269.167C277.416 269.13 277.342 269.13 277.305 269.13C270.104 268.472 262.535 268.143 254.743 268.143C246.952 268.143 239.382 268.472 232.182 269.13C232.145 269.13 232.071 269.13 232.034 269.167C228.452 269.459 224.981 269.862 221.621 270.337C193.447 274.178 172.584 282.811 168.005 293.236C167.747 293.822 167.526 294.407 167.378 294.992Z" fill="#040000"/>
<path d="M167.044 240.89V288.92C167.044 290.383 167.376 291.846 168.004 293.236C168.041 293.31 168.078 293.383 168.078 293.419C174.613 307.393 210.911 318.038 254.742 318.038C298.573 318.038 334.87 307.393 341.406 293.419C341.406 293.383 341.443 293.31 341.48 293.236C341.628 292.871 341.775 292.505 341.886 292.175C341.997 291.81 342.108 291.481 342.182 291.115C342.182 291.115 342.182 291.078 342.182 291.042C342.292 290.749 342.329 290.42 342.366 290.091C342.403 289.688 342.439 289.322 342.439 288.92V240.854C342.439 240.012 342.292 239.135 342.07 238.33C342.033 238.257 342.033 238.184 341.996 238.147C341.849 237.599 341.627 237.05 341.405 236.538C336.494 226.039 314.708 217.37 285.574 213.748C281.771 213.273 277.857 212.871 273.832 212.578C267.702 212.139 261.314 211.883 254.741 211.883C248.169 211.883 241.781 212.139 235.651 212.578C231.626 212.871 227.712 213.273 223.909 213.748C194.775 217.37 172.989 226.039 168.078 236.538C167.856 237.05 167.634 237.599 167.487 238.147C167.45 238.184 167.45 238.257 167.413 238.33C167.191 239.171 167.044 240.012 167.044 240.89Z" fill="#5662B8"/>
<path opacity="0.1" d="M167.044 241.036V243.341C167.044 255.522 189.605 265.947 221.619 270.337C222.358 270.41 223.133 270.52 223.872 270.629C233.472 271.8 243.886 272.458 254.741 272.458C265.597 272.458 276.011 271.8 285.611 270.629C286.35 270.52 287.125 270.41 287.864 270.337C319.878 265.947 342.439 255.522 342.439 243.341V241.036C342.439 241.366 342.403 241.731 342.366 242.06C341.184 253.656 319.472 263.57 288.898 267.849C288.602 267.886 288.307 267.923 288.011 267.959C285.648 268.325 283.285 268.581 280.811 268.837C279.703 268.947 278.595 269.056 277.451 269.166C276.269 269.276 275.051 269.385 273.832 269.459H273.61C268.958 269.825 264.158 270.044 259.246 270.117C257.769 270.154 256.255 270.153 254.741 270.153C253.227 270.153 251.714 270.154 250.237 270.117C245.325 270.044 240.525 269.825 235.873 269.459H235.651C234.433 269.385 233.214 269.276 232.033 269.166C230.888 269.056 229.78 268.947 228.673 268.837C226.198 268.581 223.835 268.325 221.472 267.959L220.585 267.849C190.011 263.57 168.299 253.656 167.117 242.06C167.081 241.731 167.044 241.366 167.044 241.036Z" fill="#E8E8E9"/>
<path d="M167.044 240.708V241.037C167.044 241.367 167.081 241.733 167.117 242.062C168.705 253.658 190.307 263.498 220.585 267.851L221.472 267.96C222.506 268.106 223.54 268.216 224.574 268.362C225.94 268.509 227.269 268.655 228.672 268.838C229.817 268.948 230.998 269.058 232.18 269.131C233.399 269.24 234.617 269.35 235.873 269.46C236.279 269.46 236.648 269.497 237.054 269.533C238.495 269.643 239.935 269.716 241.375 269.789C244.292 269.935 247.246 270.045 250.237 270.119H259.247C262.238 270.045 265.192 269.935 268.109 269.789C269.549 269.716 270.989 269.643 272.429 269.533C272.836 269.497 273.205 269.46 273.611 269.46C274.867 269.35 276.085 269.24 277.304 269.131C278.486 269.058 279.667 268.948 280.812 268.838C282.215 268.655 283.544 268.509 284.91 268.362C285.944 268.216 286.978 268.106 288.012 267.96C288.307 267.924 288.603 267.887 288.898 267.851C319.177 263.497 340.778 253.658 342.366 242.062C342.403 241.733 342.439 241.367 342.439 241.037V240.708C342.439 240.343 342.403 239.976 342.366 239.611C342.329 239.245 342.292 238.879 342.181 238.514C342.181 238.404 342.144 238.257 342.107 238.147H167.376C167.295 238.452 167.307 238.769 167.255 239.075C167.165 239.52 167.106 239.972 167.08 240.428C167.077 240.523 167.044 240.612 167.044 240.708Z" fill="#919BF0"/>
<path d="M196.038 281.193V294.628C203.103 296.744 211.209 298.483 220.076 299.748V286.314C211.208 285.048 203.103 283.31 196.038 281.193Z" fill="#919BF0"/>
<path opacity="0.3" d="M167.417 238.147V238.331C171.663 253.109 209.106 264.668 254.745 264.668C300.385 264.668 337.827 253.109 342.074 238.331V238.147H167.417Z" fill="#040000"/>
<path d="M167.044 184.007V232.036C167.044 233.572 167.413 235.072 168.078 236.535C168.336 237.084 168.632 237.596 168.964 238.144C177.383 251.314 212.573 261.19 254.741 261.19C296.91 261.19 332.1 251.314 340.519 238.144C340.852 237.596 341.147 237.084 341.405 236.535C341.405 236.499 341.442 236.425 341.479 236.352C341.627 236.023 341.775 235.657 341.886 235.292C341.996 234.999 342.07 234.706 342.144 234.414C342.181 234.304 342.218 234.158 342.218 234.048C342.292 233.755 342.329 233.499 342.366 233.207C342.403 232.804 342.439 232.438 342.439 232.036V183.97C342.144 167.948 303.003 155.035 254.741 155.035C224.906 155.035 198.541 159.974 182.7 167.546C173.468 171.935 167.782 177.24 167.117 182.983C167.081 183.311 167.044 183.677 167.044 184.007Z" fill="#5662B8"/>
<path opacity="0.1" d="M167.044 184.154V186.459C167.044 198.932 190.676 209.577 223.909 213.747C233.509 214.918 243.885 215.576 254.741 215.576C265.597 215.576 275.974 214.918 285.574 213.747C318.807 209.577 342.439 198.932 342.439 186.459V184.155C342.439 197.25 316.518 208.297 280.811 211.955C278.521 212.175 276.195 212.394 273.832 212.577C267.702 213.016 261.314 213.272 254.741 213.272C248.169 213.272 241.781 213.016 235.651 212.577C233.288 212.394 230.961 212.175 228.672 211.955C192.965 208.297 167.044 197.25 167.044 184.154Z" fill="#E8E8E9"/>
<path d="M167.044 183.825V184.007C167.265 197.14 193.113 208.223 228.672 211.954C230.962 212.174 233.288 212.393 235.651 212.576C241.781 213.015 248.169 213.271 254.742 213.271C261.315 213.271 267.703 213.015 273.833 212.576C276.196 212.393 278.522 212.174 280.811 211.954C316.37 208.223 342.218 197.14 342.439 184.007V183.825C342.439 167.583 303.188 154.378 254.741 154.378C225.496 154.378 199.611 159.207 183.66 166.596C173.69 171.204 167.598 176.874 167.117 182.984C167.044 183.239 167.044 183.532 167.044 183.825Z" fill="#919BF0"/>
<path d="M196.038 224.318V237.753C203.103 239.869 211.209 241.608 220.076 242.873V229.439C211.208 228.173 203.103 226.435 196.038 224.318Z" fill="#919BF0"/>
<path opacity="0.2" d="M254.743 154.379V374.919C285.428 374.919 312.458 369.688 328.114 361.75C336.164 357.69 341.186 352.935 342.22 347.777C342.368 347.118 342.441 346.46 342.441 345.802V297.589C342.441 297.48 342.441 297.406 342.405 297.297C342.441 297.224 342.441 297.187 342.405 297.15C342.405 296.894 342.368 296.638 342.331 296.382C342.331 296.089 342.294 295.797 342.183 295.504C342.22 295.431 342.183 295.358 342.146 295.285C342.146 295.175 342.146 295.102 342.072 295.029C342.035 294.773 341.962 294.553 341.887 294.297C341.777 293.968 341.629 293.602 341.481 293.236C341.629 292.871 341.777 292.505 341.887 292.175C341.998 291.81 342.109 291.481 342.183 291.115C342.183 291.115 342.183 291.078 342.183 291.042C342.294 290.749 342.331 290.42 342.368 290.091C342.405 289.688 342.441 289.322 342.441 288.92V240.708C342.441 240.342 342.405 239.976 342.368 239.61C342.331 239.244 342.294 238.879 342.183 238.513C342.183 238.403 342.146 238.293 342.072 238.147C341.962 237.562 341.74 236.94 341.481 236.354C341.629 236.026 341.777 235.66 341.887 235.294C341.998 235.002 342.072 234.709 342.146 234.416C342.183 234.306 342.22 234.16 342.22 234.05C342.294 233.758 342.331 233.502 342.367 233.209C342.405 232.806 342.441 232.44 342.441 232.038V183.826C342.441 167.584 303.19 154.379 254.743 154.379Z" fill="white"/>
</g>
<g clip-path="url(#clip2_342_2228)">
<path d="M322.741 288.243C322.697 285.09 320.073 282.485 316.678 282.197C288.468 279.758 265.445 265.817 257.855 260.718C256.269 259.649 254.119 259.649 252.533 260.718C244.958 265.817 221.936 279.758 193.725 282.197C190.33 282.485 187.721 285.09 187.662 288.243C187.321 308.818 190.893 378.671 253.497 394.215C254.609 394.489 255.78 394.489 256.892 394.215C319.495 378.684 323.068 308.817 322.741 288.243Z" fill="#64C77F"/>
</g>
<g clip-path="url(#clip3_342_2228)">
<path d="M317.077 268.635C295.809 271.634 274.072 264.457 258.891 249.421C256.853 247.401 253.551 247.401 251.513 249.421C236.332 264.459 214.595 271.642 193.326 268.635C190.197 268.187 187.371 270.604 187.371 273.753V308.214C187.371 349.048 213.127 387.406 252.984 405.94C253.687 406.266 254.444 406.43 255.202 406.43C255.96 406.43 256.717 406.266 257.42 405.94C297.277 387.407 323.033 349.048 323.033 308.214V273.753C323.033 270.578 320.177 268.188 317.077 268.635ZM302.161 308.214C302.161 339.65 283.143 366.973 258.134 382.106C257.408 382.586 256.23 383.002 255.202 383.002C254.19 383.002 252.988 382.6 252.27 382.106C226.093 366.266 208.242 338.313 208.242 308.214V294.606C208.242 291.968 210.246 289.753 212.896 289.467C226.949 287.951 240.581 283.073 252.317 275.361C252.332 275.351 252.35 275.349 252.364 275.339C253.111 274.858 254.248 274.5 255.201 274.5C256.154 274.5 257.294 274.859 258.041 275.34C258.055 275.35 258.071 275.352 258.086 275.361C269.822 283.073 283.454 287.951 297.507 289.467C300.157 289.753 302.161 291.968 302.161 294.606L302.161 308.214Z" fill="#38AC6B"/>
<g clip-path="url(#clip4_342_2228)">
<path d="M270.349 319.324H267.319V313.719C267.319 307.529 261.891 302.511 255.197 302.511C248.502 302.511 243.075 307.529 243.075 313.719V319.324H240.044C238.369 319.324 237.014 320.577 237.014 322.126V344.543C237.014 346.092 238.369 347.346 240.044 347.346H270.349C272.024 347.346 273.38 346.092 273.38 344.543V322.126C273.38 320.577 272.024 319.324 270.349 319.324ZM255.197 336.137C253.522 336.137 252.166 334.884 252.166 333.335C252.166 331.786 253.522 330.532 255.197 330.532C256.872 330.532 258.227 331.786 258.227 333.335C258.227 334.884 256.872 336.137 255.197 336.137ZM261.258 319.324H249.136V313.719C249.136 310.624 251.85 308.115 255.197 308.115C258.544 308.115 261.258 310.624 261.258 313.719V319.324Z" fill="white"/>
</g>
</g>
<g clip-path="url(#clip5_342_2228)">
<path d="M404.751 147.829C404.751 142.759 406.357 138.049 409.092 134.18H381.567C380.137 134.18 378.977 133.031 378.977 131.614C378.977 130.198 380.137 129.049 381.567 129.049H414.002C418.094 125.867 423.253 123.969 428.847 123.969C430.784 123.969 432.669 124.195 434.482 124.626V83.9971C434.482 81.0005 432.027 78.5684 429.002 78.5684H399.613H389.844V80.3643C389.865 80.549 389.875 80.744 389.875 80.939V95.8091C389.875 100.027 386.415 103.455 382.157 103.455H367.147C366.992 103.455 366.826 103.444 366.67 103.434H364.754V160.287C364.754 163.284 367.209 165.716 370.234 165.716H399.613H412.914C407.921 161.334 404.751 154.941 404.751 147.829ZM381.567 115.133H419.886C421.316 115.133 422.476 116.282 422.476 117.699C422.476 119.115 421.316 120.264 419.886 120.264H381.567C380.137 120.264 378.977 119.115 378.977 117.699C378.977 116.282 380.137 115.133 381.567 115.133ZM400.721 147.264H381.557C380.127 147.264 378.967 146.115 378.967 144.699C378.967 143.283 380.127 142.133 381.557 142.133H400.721C402.151 142.133 403.311 143.283 403.311 144.699C403.311 146.115 402.151 147.264 400.721 147.264Z" fill="#F5B56B"/>
<path d="M367.146 100.376H382.156C384.705 100.376 386.766 98.3335 386.766 95.809V80.9389C386.766 79.5637 385.627 78.6504 384.446 78.6504C383.876 78.6504 383.306 78.8556 382.83 79.3277L365.509 96.4761C364.059 97.9128 365.084 100.376 367.146 100.376Z" fill="#5764B3"/>
<path d="M448.395 161.756L447.276 160.647L446.157 159.539C448.467 156.204 449.814 152.171 449.814 147.819C449.814 139.445 444.79 132.221 437.58 128.926C437.072 128.69 436.554 128.485 436.026 128.29C435.518 128.105 435 127.941 434.472 127.798C432.68 127.305 430.794 127.038 428.836 127.038C425.625 127.038 422.579 127.756 419.865 129.039C417.244 130.271 414.924 132.026 413.038 134.17C409.817 137.824 407.869 142.596 407.869 147.819C407.869 155.424 412.013 162.084 418.177 165.707C419.192 166.302 420.269 166.825 421.399 167.246C423.719 168.118 426.226 168.601 428.857 168.601C429.717 168.601 430.556 168.549 431.385 168.447C434.803 168.036 437.963 166.815 440.677 164.968L441.785 166.086L442.894 167.184L449.7 173.927C450.456 174.676 451.451 175.056 452.445 175.056C453.44 175.056 454.434 174.676 455.19 173.927C456.703 172.428 456.703 169.986 455.19 168.488L448.395 161.756ZM428.847 134.745C430.856 134.745 432.773 135.197 434.482 135.997C435.021 136.254 435.539 136.541 436.036 136.859C436.585 137.208 437.103 137.608 437.59 138.029C440.325 140.43 442.055 143.93 442.055 147.829C442.055 151.729 440.325 155.229 437.59 157.63C437.103 158.061 436.585 158.451 436.036 158.8C435.539 159.118 435.021 159.405 434.482 159.662C432.773 160.462 430.867 160.914 428.847 160.914C421.564 160.914 415.639 155.044 415.639 147.829C415.639 140.615 421.554 134.745 428.847 134.745Z" fill="#5764B3"/>
</g>
<path fill-rule="evenodd" clip-rule="evenodd" d="M288.678 41.505C286.05 28.2956 274.339 18.3789 260.271 18.3789C249.101 18.3789 239.4 24.6582 234.568 33.8474C222.935 35.0726 213.891 44.8361 213.891 56.667C213.891 69.3407 224.287 79.64 237.081 79.64H287.325C297.993 79.64 306.651 71.0637 306.651 60.4962C306.651 50.3881 298.727 42.1942 288.678 41.505ZM270.323 39.4222L274.138 43.2281L252.494 64.6694L241.672 53.9755L245.514 50.1965L252.494 57.0847L270.323 39.4222Z" fill="#5764B3"/>
<g clip-path="url(#clip6_342_2228)">
<path d="M462.928 354.731H372.298C370.207 354.731 368.58 356.343 368.58 358.415V425.175H403.438C403.438 426.326 404.367 427.247 405.529 427.247H429.929C431.091 427.247 432.021 426.326 432.021 425.175H466.879V358.415C466.646 356.573 465.02 354.731 462.928 354.731Z" fill="#5764B3"/>
<path d="M459.527 362.257H376.102V418.428H459.527V362.257Z" fill="white"/>
<path d="M432.024 425.405C432.024 426.556 431.094 427.477 429.932 427.477H405.3C404.138 427.477 403.208 426.556 403.208 425.405H361.844V429.779C361.844 433.463 364.865 436.455 368.583 436.455H466.417C470.135 436.455 473.156 433.463 473.156 429.779V425.405H432.024Z" fill="#8380DB"/>
<path d="M408.55 366.703H380.664V397.781H408.55V366.703Z" fill="#84DBFF"/>
<path d="M454.796 366.703H413.199V376.832H454.796V366.703Z" fill="#5764B3"/>
<path d="M454.796 381.438H413.199V386.732H454.796V381.438Z" fill="#5764B3"/>
<path d="M454.796 390.876H413.199V396.171H454.796V390.876Z" fill="#5764B3"/>
<path d="M437.832 400.545H413.199V405.84H437.832V400.545Z" fill="#5764B3"/>
<path d="M401.81 375.912H387.635V387.653H401.81V375.912Z" fill="#5764B3"/>
<path d="M398.095 392.026C395.771 392.487 393.447 392.487 391.123 392.026C391.588 389.034 391.588 385.811 391.123 382.818C393.447 382.358 395.771 382.358 398.095 382.818C397.862 385.811 397.862 389.034 398.095 392.026Z" fill="#F8B64C"/>
<path d="M388.332 374.529V380.054C388.332 383.277 391.121 385.81 394.606 385.81C398.092 385.81 400.881 383.277 400.881 380.054V374.529H388.332Z" fill="#FFD15C"/>
<path d="M393.212 374.531V375.912H397.395L398.092 374.07V375.912H401.578C401.578 371.998 398.324 368.775 394.374 368.775C390.423 368.775 387.17 371.998 387.17 375.912H392.05L393.212 374.531Z" fill="#5764B3"/>
<path d="M402.509 387.652H397.396L394.607 391.796L391.819 387.652H386.706C383.918 387.652 381.594 389.954 381.594 392.717V398.012H407.389V392.717C407.621 389.954 405.297 387.652 402.509 387.652Z" fill="#FF7058"/>
<path d="M399.488 404.458L401.115 410.443L402.742 408.832L404.136 410.443L405.53 409.062L403.904 407.681L405.53 406.069L399.488 404.458Z" fill="#5764B3"/>
</g>
<g clip-path="url(#clip7_342_2228)">
<path d="M73.8242 78.0922V120.87C73.8242 123.294 75.6954 125.147 78.1424 125.147H152.99C155.437 125.147 157.308 123.294 157.308 120.87V78.0922C157.308 75.6682 155.437 73.8145 152.99 73.8145H78.1424C75.6954 73.8145 73.8242 75.8108 73.8242 78.0922Z" fill="#F5B56B"/>
<path d="M150.11 73.8157C150.11 70.6787 147.519 68.1122 144.352 68.1122H121.322L114.125 59.5566H82.4588C80.0118 59.5566 78.1406 61.553 78.1406 63.8344V73.8157H150.11Z" fill="#4652A5"/>
<path d="M99.7296 83.7953H82.457C81.5933 83.7953 81.0176 83.2249 81.0176 82.3693C81.0176 81.5137 81.5933 80.9434 82.457 80.9434H99.7296C100.593 80.9434 101.169 81.5137 101.169 82.3693C101.169 83.2249 100.593 83.7953 99.7296 83.7953Z" fill="white"/>
<path d="M99.7296 89.4994H82.457C81.5933 89.4994 81.0176 88.9291 81.0176 88.0734C81.0176 87.2178 81.5933 86.6475 82.457 86.6475H99.7296C100.593 86.6475 101.169 87.2178 101.169 88.0734C101.169 88.9291 100.593 89.4994 99.7296 89.4994Z" fill="white"/>
<path d="M135.74 92.3516C133.676 92.3516 131.659 92.9579 129.943 94.0938C128.226 95.2297 126.889 96.8443 126.099 98.7333C125.309 100.622 125.103 102.701 125.505 104.706C125.908 106.712 126.902 108.554 128.361 109.999C129.821 111.445 131.68 112.43 133.704 112.829C135.729 113.227 137.827 113.023 139.734 112.24C141.641 111.458 143.27 110.133 144.417 108.433C145.564 106.733 146.176 104.734 146.176 102.689C146.176 101.332 145.906 99.9875 145.381 98.7333C144.857 97.479 144.088 96.3394 143.119 95.3794C142.15 94.4195 141 93.658 139.734 93.1385C138.468 92.619 137.111 92.3516 135.74 92.3516ZM141.663 100.867L135.402 106.553C135.204 106.733 134.943 106.83 134.674 106.824C134.405 106.818 134.149 106.71 133.959 106.522L130.828 103.42C130.729 103.325 130.649 103.211 130.594 103.085C130.54 102.959 130.511 102.823 130.51 102.686C130.508 102.548 130.535 102.412 130.587 102.285C130.64 102.158 130.717 102.043 130.815 101.946C130.913 101.849 131.03 101.772 131.158 101.72C131.286 101.668 131.424 101.642 131.562 101.643C131.701 101.644 131.838 101.673 131.965 101.727C132.092 101.781 132.208 101.86 132.304 101.959L134.728 104.36L140.252 99.343C140.456 99.1577 140.726 99.0602 141.003 99.072C141.279 99.0839 141.54 99.204 141.727 99.4061C141.914 99.6082 142.013 99.8756 142.001 100.15C141.989 100.423 141.867 100.681 141.663 100.867Z" fill="#90D989"/>
</g>
<g clip-path="url(#clip8_342_2228)">
<path d="M5.64453 246.254V289.032C5.64453 291.456 7.51575 293.309 9.96271 293.309H84.8103C87.2573 293.309 89.1285 291.456 89.1285 289.032V246.254C89.1285 243.83 87.2573 241.977 84.8103 241.977H9.96271C7.51575 241.977 5.64453 243.973 5.64453 246.254Z" fill="#F5B56B"/>
<path d="M81.9318 241.977C81.9318 238.84 79.3408 236.273 76.1743 236.273H53.1442L45.9473 227.718H14.2811C11.8341 227.718 9.96289 229.714 9.96289 231.996V241.977H81.9318Z" fill="#4652A5"/>
<path d="M31.5538 251.957H14.2812C13.4175 251.957 12.8418 251.387 12.8418 250.531C12.8418 249.676 13.4175 249.105 14.2812 249.105H31.5538C32.4175 249.105 32.9932 249.676 32.9932 250.531C32.9932 251.387 32.4173 251.957 31.5538 251.957Z" fill="white"/>
<path d="M31.5538 257.661H14.2812C13.4175 257.661 12.8418 257.09 12.8418 256.235C12.8418 255.379 13.4175 254.809 14.2812 254.809H31.5538C32.4175 254.809 32.9932 255.379 32.9932 256.235C32.9932 257.09 32.4173 257.661 31.5538 257.661Z" fill="white"/>
<path d="M67.5625 260.514C65.4985 260.514 63.4809 261.12 61.7648 262.256C60.0487 263.392 58.7112 265.006 57.9213 266.895C57.1315 268.784 56.9248 270.863 57.3275 272.868C57.7301 274.874 58.724 276.716 60.1834 278.161C61.6429 279.607 63.5023 280.592 65.5266 280.991C67.5509 281.39 69.6491 281.185 71.5559 280.402C73.4628 279.62 75.0926 278.295 76.2392 276.595C77.3859 274.895 77.9979 272.896 77.9979 270.852C77.9979 269.494 77.728 268.15 77.2036 266.895C76.6792 265.641 75.9105 264.502 74.9415 263.542C73.9724 262.582 72.822 261.82 71.5559 261.301C70.2898 260.781 68.9329 260.514 67.5625 260.514ZM73.4856 269.029L67.2243 274.715C67.0261 274.895 66.7653 274.992 66.4964 274.986C66.2275 274.981 65.9713 274.872 65.7811 274.684L62.6505 271.582C62.5508 271.487 62.4713 271.373 62.4166 271.247C62.3619 271.121 62.3331 270.985 62.3319 270.848C62.3307 270.711 62.3571 270.574 62.4096 270.447C62.4621 270.32 62.5395 270.205 62.6375 270.108C62.7355 270.011 62.852 269.934 62.9803 269.882C63.1085 269.83 63.2459 269.804 63.3845 269.805C63.5231 269.806 63.66 269.835 63.7873 269.889C63.9146 269.943 64.0298 270.022 64.126 270.121L66.5502 272.522L72.0748 267.505C72.2787 267.32 72.5487 267.222 72.8252 267.234C73.1017 267.246 73.3622 267.366 73.5493 267.568C73.7364 267.77 73.8348 268.038 73.8229 268.312C73.8109 268.586 73.6896 268.844 73.4856 269.029Z" fill="#90D989"/>
</g>
<defs>
<clipPath id="clip0_342_2228">
<rect width="30.3389" height="30.055" fill="white" transform="translate(441.287 244.502)"/>
</clipPath>
<clipPath id="clip1_342_2228">
<rect width="222.624" height="220.54" fill="white" transform="translate(167.047 154.379)"/>
</clipPath>
<clipPath id="clip2_342_2228">
<rect width="145.464" height="134.504" fill="white" transform="translate(182.469 259.917)"/>
</clipPath>
<clipPath id="clip3_342_2228">
<rect width="160.011" height="158.523" fill="white" transform="translate(175.195 247.906)"/>
</clipPath>
<clipPath id="clip4_342_2228">
<rect width="48.4882" height="44.8348" fill="white" transform="translate(230.955 302.511)"/>
</clipPath>
<clipPath id="clip5_342_2228">
<rect width="97.3979" height="96.4865" fill="white" transform="translate(361.844 78.5674)"/>
</clipPath>
<clipPath id="clip6_342_2228">
<rect width="111.312" height="110.27" fill="white" transform="translate(361.844 340.459)"/>
</clipPath>
<clipPath id="clip7_342_2228">
<rect width="83.484" height="82.7027" fill="white" transform="translate(73.8242 51.001)"/>
</clipPath>
<clipPath id="clip8_342_2228">
<rect width="83.484" height="82.7027" fill="white" transform="translate(5.64453 219.163)"/>
</clipPath>
</defs>
</svg>
