<svg width="511" height="511" viewBox="0 0 511 511" fill="none" xmlns="http://www.w3.org/2000/svg">
<path d="M96.1563 436.915C142.245 476.982 180.473 488.272 273.565 487.707C478.065 464.959 532.867 301.039 502.844 235.302C472.821 169.565 460.374 201.28 406.869 150.303C383.717 131.63 376.119 117.479 369.061 87.5909C361.026 62.8543 354.922 50.8075 333.191 41.9815C159.175 -7.77359 48.674 61.001 23.9324 207.314C-0.783646 260.698 27.5331 362.298 96.1563 436.915Z" fill="#CAEBFA" stroke="#CAEBFA" stroke-width="0.969448"/>
<path d="M473.275 51.8303C460.116 51.7867 457.976 53.8818 469.397 63.7508L450.978 83.9625C448.812 86.6896 447.339 86.6107 444.192 83.9625L434.982 78.2614C431.506 76.3035 429.815 76.6429 427.226 79.2979L398.143 108.84C395.509 113.18 400.567 119.724 403.96 117.133C407.353 114.541 429.65 90.1819 429.65 90.1819C431.756 88.1998 432.997 87.7384 435.467 89.6636L444.192 96.9196C447.245 99.1847 449.06 99.0378 452.432 96.9196L476.668 72.0437C487.685 82.2364 490.272 81.587 490.241 72.0437V55.4586C490.387 52.7393 490.086 51.6359 487.332 51.8303H473.275Z" fill="#FBC275"/>
<path d="M407.353 175.181V144.084C408.507 141.919 409.91 141.64 412.685 141.492H427.226C429.345 141.763 430.012 142.417 430.619 144.084V175.181C430.596 178.68 429.698 179.915 425.287 179.845H412.685C408.543 179.867 407.629 178.607 407.353 175.181Z" fill="#FBC275"/>
<path d="M442.738 124.389C440.333 124.422 439.303 124.853 439.344 128.017C439.344 128.017 440.005 175.177 440.314 177.254C440.623 179.33 441.09 180.291 444.192 180.363H457.764C461.227 180.389 462.165 179.74 462.611 177.772V129.572C462.66 125.657 462.315 124.51 460.672 124.389H442.738Z" fill="#FBC275"/>
<path d="M475.214 103.657C472.417 103.709 471.376 104.29 471.336 107.285V176.735C471.336 180.363 472.306 180.363 476.183 180.363H490.24C493.622 180.389 494.679 179.693 494.603 176.735V108.322C494.603 104.176 494.118 103.657 490.24 103.657H475.214Z" fill="#FBC275"/>
<path d="M272.116 83.9616H246.911C243.998 83.9616 243.516 81.3702 243.518 76.7057V49.2366C243.587 45.5968 244.638 44.296 249.332 44.0537H288.11C292.495 44.3607 293.923 45.8314 293.929 50.2731V79.8154C283.672 93.3932 276.834 103.504 275.994 95.3639C275.509 88.1079 276.264 84.3954 272.116 83.9616Z" fill="#54A1EC" stroke="#54A1EC" stroke-width="0.969448"/>
<path d="M75.8047 206.278C77.4265 225.64 73.6793 225.223 59.3241 206.278H23.9392C18.5102 206.178 16.1026 205.255 16.1837 197.985V148.748C16.5306 143.518 17.4169 141.189 22.9698 140.456L81.1367 139.419C87.3992 139.413 88.3027 141.864 88.8922 147.193V194.875C89.222 204.841 85.619 206.594 75.8047 206.278Z" fill="#83C0E8" stroke="#83C0E8" stroke-width="0.969448"/>
<path d="M410.751 355.025C386.78 360.096 375.727 363.226 371.004 370.574C365.424 351.923 367.813 339.523 378.274 321.334C381.835 311.331 379.24 301.638 380.694 278.834C382.148 256.031 418.018 234.265 445.162 262.249C450.382 267.838 453.152 272.665 457.281 284.539C459.2 293.785 461.833 296.649 465.036 307.859C468.24 319.069 507.536 336.828 490.242 383.011C482.809 367.206 472.48 361.355 447.586 353.989C436.205 345.054 434.952 337.354 436.922 321.334L396.205 273.654L410.751 355.025Z" fill="#334D7B" stroke="#314C7A" stroke-width="0.969448"/>
<path d="M408.332 342.586C386.994 342.586 380.21 295.941 396.214 273.654C410.921 292.38 419.568 297.976 435.467 301.123C446.364 288.146 457.239 318.497 436.921 320.818C434.247 336.724 435.739 344.376 447.585 353.988C419.956 395.451 398.631 372.176 402.506 356.062L410.746 352.952L408.332 342.586Z" fill="#FACEAF" stroke="#FACEAF" stroke-width="0.969448"/>
<ellipse cx="33.632" cy="174.662" rx="4.36251" ry="4.66456" fill="#C7EAF8"/>
<ellipse cx="53.0207" cy="174.662" rx="4.36251" ry="4.66456" fill="#C7EAF8"/>
<ellipse cx="72.4094" cy="174.662" rx="4.36251" ry="4.66456" fill="#C7EAF8"/>
<path d="M21.9928 252.924C59.93 266.836 71.0214 286.316 64.6485 351.398C21.5377 331.516 1.3379 317.77 1.6344 269.509C3.49974 251.126 8.6622 248.906 21.9928 252.924Z" fill="#8DCEF6"/>
<path d="M8.41739 378.347C21.1606 387.845 77.3754 405.843 85.9732 402.188C72.4627 364.35 46.7086 347.768 21.9928 347.768C-2.72304 347.768 -4.5233 364.911 8.41739 378.347Z" fill="#8DCEF6"/>
<path d="M97.1301 328.073C111.187 344.658 112.536 394.503 90.3439 408.407L70.955 353.988C70.487 322.606 83.0731 311.488 97.1301 328.073Z" fill="#8DCEF6"/>
<path d="M21.9928 252.924C59.93 266.836 71.0214 286.316 64.6485 351.398C21.5377 331.516 1.3379 317.77 1.6344 269.509C3.49974 251.126 8.6622 248.906 21.9928 252.924Z" stroke="#8DCEF6" stroke-width="0.969448"/>
<path d="M8.41739 378.347C21.1606 387.845 77.3754 405.843 85.9732 402.188C72.4627 364.35 46.7086 347.768 21.9928 347.768C-2.72304 347.768 -4.5233 364.911 8.41739 378.347Z" stroke="#8DCEF6" stroke-width="0.969448"/>
<path d="M97.1301 328.073C111.187 344.658 112.536 394.503 90.3439 408.407L70.955 353.988C70.487 322.606 83.0731 311.488 97.1301 328.073Z" stroke="#8DCEF6" stroke-width="0.969448"/>
<path d="M26.3594 276.246C59.3513 325.376 75.3724 358.206 87.9521 404.262C93.5383 393.263 94.2128 379.238 96.1596 356.58C95.6071 380.062 95.5589 393.607 89.066 408.409C91.3437 417.027 93.5186 426.122 95.6749 435.878C91.713 422.061 87.9275 409.6 84.1216 398.043C72.0153 385.667 64.73 381.279 51.565 374.202C61.0788 377.669 65.3986 377.932 83.0896 394.933C68.4581 351.179 53.2626 320.145 26.3594 276.246Z" fill="#68B1E3"/>
<path d="M87.9521 404.262C75.3724 358.206 59.3513 325.376 26.3594 276.246C53.2626 320.145 68.4581 351.179 83.0896 394.933M87.9521 404.262C93.5383 393.263 94.2128 379.238 96.1596 356.58C95.6071 380.062 95.5589 393.607 89.066 408.409M87.9521 404.262C88.3263 405.633 88.6975 407.014 89.066 408.409M89.066 408.409C91.3437 417.027 93.5186 426.122 95.6749 435.878C91.713 422.061 87.9275 409.6 84.1216 398.043M83.0896 394.933C65.3986 377.932 61.0788 377.669 51.565 374.202C64.73 381.279 72.0153 385.667 84.1216 398.043M83.0896 394.933C83.4339 395.963 83.7778 396.999 84.1216 398.043" stroke="#70B5E2" stroke-width="0.969448"/>
<path d="M180.993 65.3076C177.599 65.3096 172.758 65.3076 169.359 65.3076C165.961 65.3076 165.961 72.5636 169.359 72.5636H180.993C184.386 72.5636 184.386 65.3056 180.993 65.3076Z" fill="#9DD6F5"/>
<path d="M355.972 100.547H347.247C345.308 100.547 345.308 106.766 347.457 106.766H355.972C359.365 106.766 358.88 100.547 355.972 100.547Z" fill="#9DD6F5"/>
<path d="M180.993 65.3076C177.599 65.3096 172.758 65.3076 169.359 65.3076C165.961 65.3076 165.961 72.5636 169.359 72.5636H180.993C184.386 72.5636 184.386 65.3056 180.993 65.3076Z" stroke="#9DD6F5" stroke-width="0.969448"/>
<path d="M355.972 100.547H347.247C345.308 100.547 345.308 106.766 347.457 106.766H355.972C359.365 106.766 358.88 100.547 355.972 100.547Z" stroke="#9DD6F5" stroke-width="0.969448"/>
<path d="M96.1613 8.6377C88.1721 8.6377 80.3624 11.1708 73.7197 15.9166C67.077 20.6624 61.8997 27.4078 58.8424 35.2998C55.7851 43.1919 54.9852 51.876 56.5437 60.2541C58.1023 68.6322 61.9495 76.328 67.5986 82.3683C73.2478 88.4086 80.4452 92.5221 88.2808 94.1886C96.1164 95.8551 104.238 94.9998 111.619 91.7308C119 88.4618 125.309 82.926 129.747 75.8234C134.186 68.7208 136.555 60.3703 136.555 51.8281C136.555 46.1562 135.51 40.5399 133.48 35.2998C131.45 30.0597 128.475 25.2985 124.724 21.2879C120.973 17.2773 116.52 14.0959 111.619 11.9254C106.718 9.75485 101.466 8.6377 96.1613 8.6377ZM119.089 44.2136L94.8525 67.9683C94.0852 68.7207 93.0758 69.1272 92.0349 69.103C90.9941 69.0789 90.0022 68.626 89.2661 67.8388L77.148 54.8816C76.7622 54.4832 76.4544 54.0066 76.2427 53.4797C76.031 52.9528 75.9196 52.386 75.9149 51.8125C75.9103 51.2391 76.0125 50.6703 76.2156 50.1395C76.4187 49.6087 76.7186 49.1265 77.0979 48.721C77.4772 48.3155 77.9282 47.9948 78.4246 47.7776C78.921 47.5604 79.4529 47.4512 79.9893 47.4561C80.5256 47.4611 81.0556 47.5803 81.5485 47.8066C82.0413 48.033 82.487 48.362 82.8596 48.7745L92.2431 58.8077L113.627 37.8474C114.417 37.073 115.462 36.6657 116.532 36.7152C117.603 36.7646 118.611 37.2666 119.335 38.1108C120.059 38.955 120.44 40.0723 120.394 41.2168C120.348 42.3613 119.878 43.4393 119.089 44.2136Z" fill="#70CBC3"/>
<path d="M343.369 422.92C354.821 381.136 364.564 359.736 401.536 355.543C401.716 385.044 428.196 386.644 448.07 353.988C481.404 361.512 485.414 373.047 492.664 392.345C500.7 423.045 504.375 440.206 508.66 470.602C515.611 507.565 493.149 503.254 441.768 503.254C441.88 494.851 441.403 489.449 440.313 485.646C426.773 487.494 409.808 488.508 388.933 488.746L370.514 422.92H343.369Z" fill="#308EF0"/>
<path d="M370.514 422.92H343.369C354.821 381.136 364.564 359.736 401.536 355.543C401.716 385.044 428.196 386.644 448.07 353.988C481.404 361.512 485.414 373.047 492.664 392.345C500.7 423.045 504.375 440.206 508.66 470.602C515.611 507.565 493.149 503.254 441.768 503.254C442.017 484.587 439.359 480.729 433.528 476.308L475.214 469.052L461.642 407.894C500.359 463.6 501.563 487.46 388.933 488.746L370.514 422.92ZM370.514 422.92V406.335" stroke="#308EF0" stroke-width="0.969448"/>
<path d="M399.589 498.59C390.345 499.204 387.964 491.852 396.196 484.596C411.147 471.097 419.858 472.608 435.467 478.377C440.922 482.277 441.771 487.032 440.799 498.59H399.589Z" fill="#FACEAF" stroke="#FACEAF" stroke-width="0.969448"/>
<path d="M458.733 469.567L435.951 478.377L476.668 469.567L463.096 407.891L458.733 469.567Z" fill="#3E81CB"/>
<path d="M369.06 409.445L371.484 426.549C369.354 423.863 367.598 423.212 361.789 422.921C367.336 420.573 368.421 417.081 369.06 409.445Z" fill="#4082CE" stroke="#4082CE" stroke-width="0.969448"/>
<path d="M371.484 422.921H261.452C256.968 423.452 257.18 427.611 261.452 440.543L277.932 502.737C279.261 508.337 281.155 510.108 287.626 509.993L438.861 509.474C442.927 507.781 443.223 502.218 440.8 498.59H402.022C394.67 499.455 392.284 498.405 390.388 492.889L371.484 422.921Z" fill="#334E7A" stroke="#334E7A" stroke-width="0.969448"/>
<ellipse cx="321.557" cy="470.084" rx="6.30141" ry="6.7377" fill="#4E95E3"/>
<path d="M170.926 389.75C167.228 393.651 164.767 393.867 159.293 389.75L137.48 373.165C133.293 369.878 132.917 367.565 135.541 362.8L144.751 346.215L128.271 324.965L112.759 329.111C108.246 330.121 106.64 329.051 105.004 324.965L94.3399 296.459C91.8441 289.572 92.695 287.351 95.7941 284.539L111.305 275.21L107.912 245.667L93.3704 240.484C88.8538 238.778 87.7433 236.656 89.4927 230.119L99.1871 196.949C101.197 191.468 103.237 190.546 107.912 191.766L121 195.912L138.934 165.333L129.24 152.376C125.223 146.765 125.849 144.445 129.24 140.974L158.808 118.688C162.609 116.291 164.556 116.756 168.018 120.242L181.59 135.791L206.311 124.389V99.511C206.214 95.8709 207.179 95.2832 209.704 95.3647L253.329 94.3281C256.538 95.7892 257.501 96.8693 257.692 99.511V124.389L290.168 132.681L297.924 119.206C300.615 115.009 302.412 114.533 305.68 116.614L334.278 136.309C340.504 140.801 339.206 142.202 336.702 147.711L327.492 161.705L346.881 189.693L360.938 184.51C365.436 183.87 367.098 185.071 368.694 189.693L378.873 225.972C380.208 230.354 378.82 232.096 373.541 234.265L359.484 240.484V270.545L373.541 276.764C376.854 279.857 377.154 281.961 375.964 286.093L365.301 320.819C363.363 324.481 361.621 324.588 358.03 323.41L344.942 319.782L321.191 351.397L329.431 365.391C331.069 369.509 330.917 371.692 327.492 375.238L303.741 392.86C300.315 395.792 298.431 395.56 295.016 392.86L280.959 376.793L254.299 387.159V401.671C254.48 406.662 253.545 408.29 248.967 408.409H213.582C209.643 408.29 208.476 407.203 208.25 403.744L207.281 386.122L183.529 374.72L170.926 389.75Z" fill="#4084CE" stroke="#4082CE" stroke-width="0.969448"/>
<path d="M339.612 254.996C339.612 316.824 292.736 366.946 234.911 366.946C177.087 366.946 130.211 316.824 130.211 254.996C130.211 193.168 177.087 143.047 234.911 143.047C292.736 143.047 339.612 193.168 339.612 254.996ZM140.991 254.996C140.991 310.458 183.041 355.419 234.911 355.419C286.782 355.419 328.831 310.458 328.831 254.996C328.831 199.534 286.782 154.574 234.911 154.574C183.041 154.574 140.991 199.534 140.991 254.996Z" fill="#355B93"/>
<ellipse cx="234.427" cy="254.996" rx="94.0364" ry="100.547" fill="white"/>
<rect width="8.03727" height="62.1538" rx="4.01863" transform="matrix(0.671156 0.741316 -0.694819 0.719184 282.965 200.012)" fill="#355B93"/>
<rect width="8.06496" height="61.938" rx="4.03248" transform="matrix(0.632076 -0.774906 0.731344 0.682009 183.529 216.674)" fill="#355B93"/>
<rect width="8.29242" height="17.7493" rx="4.14621" transform="matrix(-0.0152362 -0.999884 0.999848 -0.0174184 152.635 259.45)" fill="#355B93"/>
<rect width="8.29242" height="17.7493" rx="4.14621" transform="matrix(-0.0152362 -0.999884 0.999848 -0.0174184 298.051 259.45)" fill="#355B93"/>
<rect width="7.75586" height="18.9773" rx="3.87793" transform="matrix(-0.999718 -0.0237449 0.0207707 -0.999784 236.861 342.471)" fill="#355B93"/>
<rect width="7.75562" height="18.9777" rx="3.87781" transform="matrix(0.999958 0.0092167 -0.00806179 0.999968 229.246 168.961)" fill="#355B93"/>
<ellipse cx="232.973" cy="254.997" rx="14.5417" ry="15.5485" fill="#355B93"/>
</svg>
