<svg width="525" height="515" viewBox="0 0 525 515" fill="none" xmlns="http://www.w3.org/2000/svg">
<path d="M81.7993 410.777C128.041 450.774 166.395 462.044 259.795 461.48C464.971 438.773 519.955 275.14 489.832 209.519C459.71 143.897 447.222 175.556 393.54 124.669C370.311 106.029 362.688 91.9018 355.606 62.0666C347.544 37.3735 341.421 25.3478 319.618 16.5373C145.026 -33.1305 34.1599 35.5234 9.33655 181.58C-15.4613 234.87 12.9492 336.291 81.7993 410.777Z" fill="#CAEBFA" stroke="#CAEBFA"/>
<path d="M164.791 255.193L254.03 158.08C254.03 158.08 257.588 182.103 254.03 277.503C250.472 372.902 175.712 444.201 53.8984 347.056C155.604 405.455 223.846 355.587 210.723 255.193H164.791Z" fill="#5663BF" stroke="#4082CE" stroke-width="1.31234"/>
<path d="M344.581 257.161L254.03 158.08V257.161C251.332 320.217 243.772 349.569 207.442 379.209C161.259 405.061 127.245 397.011 53.8984 347.056C149.043 453.356 295.539 376.433 297.337 257.161H344.581Z" fill="#424CA1" stroke="#4082CE" stroke-width="1.31234"/>
<circle cx="251.406" cy="267.66" r="124.016" stroke="#5764B3" stroke-width="1.31234" stroke-dasharray="6.56 6.56"/>
<circle cx="255.343" cy="258.474" r="209.318" stroke="#5764B3" stroke-width="1.31234" stroke-dasharray="6.56 6.56"/>
<path d="M228.084 232.453L242.107 246.475L273.415 215.167" stroke="white" stroke-width="8.2021" stroke-linecap="round" stroke-linejoin="round"/>
<path d="M247.031 481.48L241.323 477.346C241.421 476.559 241.421 475.673 241.421 474.886C241.421 474 241.421 473.213 241.323 472.425L247.031 468.291C248.016 467.701 248.311 466.52 247.72 465.634L240.732 453.724C240.142 452.74 238.961 452.445 237.976 453.035L231.48 455.89C230.102 454.906 228.626 454.118 227.051 453.429L226.461 446.343C226.461 445.26 225.575 444.374 224.492 444.374H210.516C209.433 444.374 208.547 445.26 208.547 446.343L207.858 453.331C206.283 454.02 204.807 454.807 203.429 455.791L196.933 452.937C195.949 452.346 194.768 452.74 194.177 453.626L187.287 465.634C186.697 466.618 187.091 467.799 187.976 468.291L193.685 472.425C193.587 473.213 193.587 474.098 193.587 474.886C193.587 475.673 193.587 476.559 193.685 477.346L187.976 481.48C186.992 482.071 186.697 483.252 187.287 484.138L194.276 496.047C194.866 497.032 196.047 497.327 197.031 496.736L203.528 493.882C204.905 494.866 206.382 495.654 207.957 496.343L208.547 503.429C208.547 504.512 209.433 505.398 210.516 505.398H224.492C225.575 505.398 226.461 504.512 226.461 503.429L227.15 496.441C228.724 495.752 230.201 494.965 231.579 493.98L238.075 496.835C239.059 497.425 240.24 497.032 240.831 496.146L247.819 484.236C248.311 483.252 247.917 482.071 247.031 481.48ZM217.504 486.5C211.008 486.5 205.693 481.283 205.693 474.886C205.693 468.488 211.008 463.272 217.504 463.272C224 463.272 229.315 468.488 229.315 474.886C229.315 481.283 224 486.5 217.504 486.5Z" fill="#5663BF"/>
<path d="M381.791 74.3431C381.791 71.6252 383.994 69.4219 386.712 69.4219H406.397C409.115 69.4219 411.319 71.6252 411.319 74.3431V79.2644C411.319 81.9823 409.115 84.1857 406.397 84.1857H386.712C383.994 84.1857 381.791 81.9823 381.791 79.2644V74.3431Z" fill="#5764B3"/>
<path d="M418.7 73.1123H374.409C369.653 73.1123 365.797 76.9681 365.797 81.7245V165.386C365.797 170.142 369.653 173.998 374.409 173.998H418.7C423.457 173.998 427.313 170.142 427.313 165.386V81.7245C427.313 76.9681 423.457 73.1123 418.7 73.1123Z" stroke="#5764B3" stroke-width="7.38189"/>
<path d="M381.791 160.465H411.319" stroke="#5764B3" stroke-width="7.38189" stroke-linecap="round"/>
<path d="M396.554 104.657C393.05 104.657 389.625 105.696 386.712 107.643C383.798 109.59 381.527 112.357 380.186 115.594C378.846 118.831 378.495 122.393 379.178 125.83C379.862 129.267 381.549 132.424 384.027 134.901C386.505 137.379 389.661 139.066 393.098 139.75C396.535 140.433 400.097 140.083 403.334 138.742C406.572 137.401 409.338 135.13 411.285 132.217C413.232 129.303 414.271 125.878 414.271 122.374C414.271 120.047 413.813 117.743 412.922 115.594C412.032 113.444 410.727 111.491 409.082 109.846C407.437 108.201 405.484 106.896 403.334 106.006C401.185 105.115 398.881 104.657 396.554 104.657ZM406.61 119.25L395.98 128.994C395.644 129.303 395.201 129.47 394.745 129.46C394.288 129.45 393.853 129.264 393.53 128.941L388.215 123.626C388.046 123.463 387.911 123.267 387.818 123.051C387.725 122.835 387.677 122.603 387.674 122.367C387.672 122.132 387.717 121.899 387.806 121.681C387.895 121.463 388.027 121.266 388.193 121.099C388.36 120.933 388.557 120.801 388.775 120.712C388.993 120.623 389.226 120.578 389.461 120.58C389.697 120.582 389.929 120.631 390.145 120.724C390.361 120.817 390.557 120.952 390.72 121.121L394.836 125.237L404.215 116.639C404.561 116.321 405.02 116.154 405.489 116.174C405.959 116.195 406.401 116.401 406.718 116.747C407.036 117.093 407.203 117.552 407.183 118.021C407.163 118.491 406.957 118.933 406.61 119.25Z" fill="#90D989"/>
<path d="M487.591 259.766H443.3C438.543 259.766 434.688 263.621 434.688 268.378V352.039C434.688 356.796 438.543 360.651 443.3 360.651H487.591C492.347 360.651 496.203 356.796 496.203 352.039V268.378C496.203 263.621 492.347 259.766 487.591 259.766Z" fill="#D9D9D9" stroke="#5764B3" stroke-width="7.38189"/>
<path d="M450.682 347.118H480.209" stroke="#5764B3" stroke-width="7.38189" stroke-linecap="round"/>
<path d="M464.878 305.219C464.216 305.385 463.803 306.099 463.957 306.813C465.227 312.708 465.504 318.886 464.758 324.68C464.664 325.407 465.133 326.08 465.807 326.179C465.864 326.187 465.921 326.192 465.979 326.191C466.583 326.191 467.11 325.711 467.197 325.047C467.984 318.932 467.693 312.42 466.356 306.212C466.202 305.495 465.541 305.054 464.878 305.219ZM462.025 312.7C461.348 312.767 460.85 313.415 460.912 314.145C461.213 317.631 461.133 321.072 460.678 324.37C460.579 325.097 461.043 325.772 461.715 325.88C461.775 325.889 461.836 325.894 461.897 325.894C462.498 325.894 463.024 325.421 463.114 324.76C463.598 321.252 463.681 317.598 463.364 313.901C463.302 313.169 462.68 312.625 462.025 312.7ZM463.955 300.903C462.567 301.252 461.387 302.165 460.632 303.47C459.876 304.785 459.636 306.335 459.961 307.817C460.117 308.544 460.258 309.27 460.381 309.995C460.501 310.717 461.16 311.194 461.814 311.063C462.483 310.93 462.924 310.237 462.802 309.516C462.671 308.746 462.524 307.979 462.359 307.215C462.185 306.418 462.315 305.584 462.722 304.877C463.13 304.172 463.766 303.679 464.512 303.493C466.056 303.103 467.596 304.149 467.954 305.812C469.275 311.943 469.622 318.089 468.981 324.074C468.905 324.803 469.389 325.462 470.065 325.545C470.112 325.551 470.16 325.555 470.207 325.555C470.825 325.555 471.357 325.056 471.429 324.379C472.101 318.089 471.738 311.639 470.352 305.211C469.688 302.124 466.825 300.191 463.954 300.903H463.955ZM459.684 301.847C459.888 301.567 459.98 301.22 459.943 300.875C459.906 300.53 459.742 300.211 459.482 299.98C459.358 299.873 459.213 299.792 459.055 299.745C458.898 299.697 458.732 299.683 458.569 299.704C458.406 299.724 458.249 299.779 458.109 299.864C457.968 299.949 457.847 300.063 457.753 300.198C457.536 300.496 457.335 300.806 457.151 301.126C455.813 303.454 455.389 306.197 455.964 308.82C457.016 313.704 457.263 318.719 456.675 323.329C456.582 324.055 457.054 324.725 457.727 324.826C457.783 324.833 457.84 324.836 457.897 324.836C458.503 324.836 459.031 324.354 459.116 323.69C459.741 318.765 459.482 313.415 458.363 308.22C458.124 307.124 458.118 305.991 458.345 304.893C458.573 303.795 459.029 302.757 459.684 301.847ZM474.498 314.021C473.819 314.057 473.293 314.68 473.328 315.414C473.441 317.853 473.406 320.297 473.224 322.732C473.167 323.465 473.672 324.105 474.351 324.167C474.384 324.169 474.418 324.17 474.452 324.17C475.088 324.17 475.626 323.644 475.677 322.948C475.867 320.429 475.904 317.849 475.787 315.282C475.754 314.549 475.16 314.002 474.498 314.021ZM474.196 312.188C474.248 312.188 474.3 312.184 474.351 312.177C475.026 312.088 475.502 311.424 475.421 310.696C475.169 308.517 474.811 306.351 474.347 304.207C473.369 299.647 469.475 296.336 465.095 296.336C464.402 296.336 463.709 296.42 463.032 296.588C462.473 296.73 461.925 296.924 461.401 297.167C460.777 297.459 460.49 298.242 460.76 298.916C461.031 299.589 461.757 299.899 462.379 299.606C462.767 299.426 463.176 299.281 463.587 299.178C464.079 299.054 464.586 298.994 465.093 298.994C468.343 298.994 471.226 301.438 471.948 304.809C472.391 306.861 472.739 308.951 472.976 311.024C473.054 311.697 473.585 312.188 474.198 312.188H474.196ZM478.345 303.21C477.795 300.62 476.559 298.226 474.767 296.278C474.657 296.155 474.523 296.058 474.373 295.991C474.223 295.924 474.061 295.889 473.896 295.889C473.732 295.889 473.569 295.924 473.419 295.991C473.269 296.058 473.135 296.155 473.026 296.278C472.792 296.537 472.663 296.874 472.663 297.222C472.662 297.571 472.79 297.908 473.022 298.168C474.487 299.767 475.496 301.73 475.947 303.851C477.093 309.171 477.607 314.631 477.472 319.968C477.454 320.701 477.989 321.428 478.67 321.428H478.703C479.367 321.428 479.915 320.763 479.934 320.042C480.069 314.389 479.535 308.739 478.345 303.21ZM453.736 314.085C453.796 314.085 453.857 314.08 453.916 314.071C454.59 313.964 455.054 313.288 454.956 312.563C454.803 311.442 454.607 310.327 454.368 309.22C453.691 306.142 454.187 302.922 455.759 300.189C457.323 297.479 459.775 295.587 462.657 294.864C465.169 294.255 467.819 294.608 470.085 295.853C470.691 296.184 471.431 295.918 471.738 295.263C472.044 294.607 471.8 293.808 471.192 293.479C468.419 291.957 465.178 291.528 462.104 292.274C458.579 293.16 455.582 295.472 453.668 298.783C451.748 302.123 451.141 306.059 451.968 309.823C452.194 310.875 452.38 311.925 452.519 312.949C452.607 313.61 453.135 314.085 453.736 314.085ZM454.102 316.113H454.062C453.381 316.113 452.85 316.556 452.871 317.288C452.919 318.79 452.878 320.087 452.747 321.522C452.682 322.252 453.176 322.9 453.853 322.971C453.893 322.975 453.934 322.977 453.975 322.976C454.282 322.986 454.581 322.875 454.809 322.669C455.037 322.463 455.176 322.176 455.197 321.869C455.339 320.319 455.385 318.817 455.334 317.197C455.312 316.48 454.763 316.113 454.102 316.113Z" fill="#5764B3"/>
<path d="M450.682 260.996C450.682 258.279 452.885 256.075 455.603 256.075H475.288C478.006 256.075 480.209 258.279 480.209 260.996V265.918C480.209 268.636 478.006 270.839 475.288 270.839H455.603C452.885 270.839 450.682 268.636 450.682 265.918V260.996Z" fill="#5764B3"/>
<g clip-path="url(#clip0_333_587)">
<path d="M129 68.25C129 67.2554 128.605 66.3016 127.902 65.5983C127.198 64.8951 126.245 64.5 125.25 64.5C124.255 64.5 123.302 64.8951 122.598 65.5983C121.895 66.3016 121.5 67.2554 121.5 68.25V89.5C121.5 90.92 122.3 92.22 123.575 92.85L136.075 99.1C136.518 99.3494 137.006 99.5063 137.511 99.5611C138.017 99.6158 138.528 99.5674 139.013 99.4187C139.499 99.27 139.95 99.0242 140.338 98.696C140.726 98.3679 141.043 97.9644 141.27 97.51C141.497 97.0555 141.63 96.5597 141.659 96.0525C141.689 95.5453 141.616 95.0373 141.443 94.5595C141.27 94.0816 141.003 93.6437 140.656 93.2725C140.309 92.9013 139.89 92.6045 139.425 92.4L129 87.175V68.25Z" fill="#5764B3"/>
<path fill-rule="evenodd" clip-rule="evenodd" d="M126.5 49.5C115.891 49.5 105.717 53.7143 98.2157 61.2157C90.7143 68.7172 86.5 78.8913 86.5 89.5C86.5 100.109 90.7143 110.283 98.2157 117.784C105.717 125.286 115.891 129.5 126.5 129.5C137.109 129.5 147.283 125.286 154.784 117.784C162.286 110.283 166.5 100.109 166.5 89.5C166.5 78.8913 162.286 68.7172 154.784 61.2157C147.283 53.7143 137.109 49.5 126.5 49.5ZM94 89.5C94 80.8805 97.4241 72.614 103.519 66.519C109.614 60.4241 117.88 57 126.5 57C135.12 57 143.386 60.4241 149.481 66.519C155.576 72.614 159 80.8805 159 89.5C159 98.1195 155.576 106.386 149.481 112.481C143.386 118.576 135.12 122 126.5 122C117.88 122 109.614 118.576 103.519 112.481C97.4241 106.386 94 98.1195 94 89.5Z" fill="#5764B3"/>
</g>
<g clip-path="url(#clip1_333_587)">
<path d="M75.7031 224.493C75.6835 223.087 74.524 221.925 73.0238 221.797C60.5573 220.708 50.3835 214.49 47.0294 212.215C46.3285 211.738 45.3786 211.738 44.6776 212.215C41.33 214.49 31.1563 220.708 18.6897 221.797C17.1896 221.925 16.0366 223.087 16.0104 224.493C15.8597 233.671 17.4385 264.832 45.1034 271.766C45.5947 271.888 46.1123 271.888 46.6036 271.766C74.2685 264.838 75.8473 233.671 75.7031 224.493Z" fill="#64C77F"/>
</g>
<g clip-path="url(#clip2_333_587)">
<path d="M73.1991 215.747C63.8003 217.084 54.1945 213.883 47.486 207.175C46.5854 206.275 45.1262 206.275 44.2255 207.175C37.5169 213.884 27.9111 217.088 18.5123 215.747C17.1295 215.547 15.8809 216.625 15.8809 218.03V233.402C15.8809 251.617 27.2625 268.729 44.8755 276.996C45.1863 277.141 45.5211 277.214 45.8558 277.214C46.1906 277.214 46.5252 277.141 46.8361 276.996C64.449 268.729 75.8308 251.617 75.8308 233.402V218.03C75.8307 216.613 74.5686 215.547 73.1991 215.747ZM66.6075 233.402C66.6075 247.425 58.203 259.614 47.1517 266.364C46.8306 266.578 46.3103 266.764 45.8557 266.764C45.4088 266.764 44.8776 266.584 44.56 266.364C32.9923 259.298 25.1038 246.829 25.1038 233.402V227.332C25.1038 226.155 25.9895 225.167 27.1603 225.04C33.3705 224.363 39.3947 222.187 44.5811 218.747C44.5876 218.743 44.5955 218.742 44.6017 218.737C44.9319 218.523 45.4342 218.363 45.8555 218.363C46.2765 218.363 46.7803 218.523 47.1102 218.738C47.1165 218.742 47.1238 218.743 47.1301 218.747C52.3165 222.187 58.3407 224.363 64.5509 225.04C65.7217 225.167 66.6074 226.155 66.6074 227.332L66.6075 233.402Z" fill="#38AC6B"/>
<g clip-path="url(#clip3_333_587)">
<path d="M52.5496 238.357H51.2104V235.857C51.2104 233.096 48.8119 230.857 45.8536 230.857C42.8953 230.857 40.4968 233.096 40.4968 235.857V238.357H39.1576C38.4173 238.357 37.8184 238.916 37.8184 239.607V249.607C37.8184 250.298 38.4173 250.857 39.1576 250.857H52.5496C53.2899 250.857 53.8888 250.298 53.8888 249.607V239.607C53.8888 238.916 53.2899 238.357 52.5496 238.357ZM45.8536 245.857C45.1133 245.857 44.5144 245.298 44.5144 244.607C44.5144 243.916 45.1133 243.357 45.8536 243.357C46.5938 243.357 47.1928 243.916 47.1928 244.607C47.1928 245.298 46.5938 245.857 45.8536 245.857ZM48.532 238.357H43.1752V235.857C43.1752 234.477 44.3744 233.357 45.8536 233.357C47.3327 233.357 48.532 234.477 48.532 235.857V238.357Z" fill="white"/>
</g>
</g>
<path d="M172.5 32.5C169.533 32.5 166.633 33.3797 164.166 35.028C161.7 36.6762 159.777 39.0189 158.642 41.7597C157.506 44.5006 157.209 47.5166 157.788 50.4263C158.367 53.3361 159.796 56.0088 161.893 58.1066C163.991 60.2044 166.664 61.633 169.574 62.2118C172.483 62.7905 175.499 62.4935 178.24 61.3582C180.981 60.2229 183.324 58.3003 184.972 55.8335C186.62 53.3668 187.5 50.4667 187.5 47.5C187.5 45.5302 187.112 43.5796 186.358 41.7597C185.604 39.9399 184.499 38.2863 183.107 36.8934C181.714 35.5005 180.06 34.3956 178.24 33.6418C176.42 32.888 174.47 32.5 172.5 32.5ZM181.014 44.8555L172.014 53.1055C171.729 53.3668 171.354 53.5079 170.968 53.4996C170.581 53.4912 170.213 53.3339 169.94 53.0605L165.44 48.5605C165.296 48.4221 165.182 48.2566 165.103 48.0736C165.025 47.8906 164.983 47.6938 164.982 47.4946C164.98 47.2954 165.018 47.0979 165.093 46.9136C165.169 46.7292 165.28 46.5617 165.421 46.4209C165.562 46.2801 165.729 46.1687 165.914 46.0933C166.098 46.0178 166.295 45.9799 166.495 45.9816C166.694 45.9833 166.891 46.0247 167.074 46.1033C167.257 46.182 167.422 46.2962 167.561 46.4395L171.045 49.924L178.986 42.6445C179.279 42.3756 179.667 42.2341 180.065 42.2513C180.462 42.2684 180.837 42.4428 181.106 42.736C181.374 43.0292 181.516 43.4172 181.499 43.8147C181.482 44.2122 181.307 44.5866 181.014 44.8555Z" fill="#90D989"/>
<path d="M308.551 132.85L305.651 130.75C305.701 130.35 305.701 129.9 305.701 129.5C305.701 129.05 305.701 128.65 305.651 128.25L308.551 126.15C309.051 125.85 309.201 125.25 308.901 124.8L305.351 118.75C305.051 118.25 304.451 118.1 303.951 118.4L300.651 119.85C299.951 119.35 299.201 118.95 298.401 118.6L298.101 115C298.101 114.45 297.651 114 297.101 114H290.001C289.451 114 289.001 114.45 289.001 115L288.651 118.55C287.851 118.9 287.101 119.3 286.401 119.8L283.101 118.35C282.601 118.05 282.001 118.25 281.701 118.7L278.201 124.8C277.901 125.3 278.101 125.9 278.551 126.15L281.451 128.25C281.401 128.65 281.401 129.1 281.401 129.5C281.401 129.9 281.401 130.35 281.451 130.75L278.551 132.85C278.051 133.15 277.901 133.75 278.201 134.2L281.751 140.25C282.051 140.75 282.651 140.9 283.151 140.6L286.451 139.15C287.151 139.65 287.901 140.05 288.701 140.4L289.001 144C289.001 144.55 289.451 145 290.001 145H297.101C297.651 145 298.101 144.55 298.101 144L298.451 140.45C299.251 140.1 300.001 139.7 300.701 139.2L304.001 140.65C304.501 140.95 305.101 140.75 305.401 140.3L308.951 134.25C309.201 133.75 309.001 133.15 308.551 132.85ZM293.551 135.4C290.251 135.4 287.551 132.75 287.551 129.5C287.551 126.25 290.251 123.6 293.551 123.6C296.851 123.6 299.551 126.25 299.551 129.5C299.551 132.75 296.851 135.4 293.551 135.4Z" fill="#5663BF"/>
<path d="M165.788 444.012L163.613 442.438C163.651 442.137 163.651 441.8 163.651 441.5C163.651 441.162 163.651 440.862 163.613 440.562L165.788 438.987C166.163 438.762 166.276 438.312 166.051 437.975L163.388 433.438C163.163 433.063 162.713 432.95 162.338 433.175L159.863 434.262C159.338 433.887 158.776 433.588 158.176 433.325L157.951 430.625C157.951 430.213 157.613 429.875 157.201 429.875H151.876C151.463 429.875 151.126 430.213 151.126 430.625L150.863 433.287C150.263 433.55 149.701 433.85 149.176 434.225L146.701 433.138C146.326 432.912 145.876 433.063 145.651 433.4L143.026 437.975C142.801 438.35 142.951 438.8 143.288 438.987L145.463 440.562C145.426 440.862 145.426 441.2 145.426 441.5C145.426 441.8 145.426 442.137 145.463 442.438L143.288 444.012C142.913 444.238 142.801 444.688 143.026 445.025L145.688 449.562C145.913 449.938 146.363 450.05 146.738 449.825L149.213 448.737C149.738 449.112 150.301 449.412 150.901 449.675L151.126 452.375C151.126 452.788 151.463 453.125 151.876 453.125H157.201C157.613 453.125 157.951 452.788 157.951 452.375L158.213 449.712C158.813 449.45 159.376 449.15 159.901 448.775L162.376 449.862C162.751 450.087 163.201 449.938 163.426 449.6L166.088 445.062C166.276 444.687 166.126 444.238 165.788 444.012ZM154.538 445.925C152.063 445.925 150.038 443.938 150.038 441.5C150.038 439.062 152.063 437.075 154.538 437.075C157.013 437.075 159.038 439.062 159.038 441.5C159.038 443.938 157.013 445.925 154.538 445.925Z" fill="#90D989"/>
<g clip-path="url(#clip4_333_587)">
<path d="M378.818 458.935L381.588 456.164C382.098 455.654 382.098 454.827 381.588 454.317C381.078 453.807 380.251 453.807 379.741 454.317L376.971 457.087L374.2 454.317C373.69 453.807 372.864 453.807 372.353 454.317C371.843 454.827 371.843 455.654 372.353 456.164L375.124 458.935L372.353 461.705C371.843 462.215 371.843 463.042 372.353 463.552C372.609 463.807 372.943 463.935 373.277 463.935C373.611 463.935 373.945 463.807 374.2 463.552L376.971 460.782L379.741 463.552C379.996 463.807 380.33 463.935 380.665 463.935C380.999 463.935 381.333 463.807 381.588 463.552C382.098 463.042 382.098 462.215 381.588 461.705L378.818 458.935Z" fill="#F4765F"/>
<path d="M376.5 445.5C369.332 445.5 363.5 451.332 363.5 458.5C363.5 465.668 369.332 471.5 376.5 471.5C383.668 471.5 389.5 465.668 389.5 458.5C389.5 451.332 383.668 445.5 376.5 445.5ZM376.5 469.5C370.435 469.5 365.5 464.565 365.5 458.5C365.5 452.435 370.435 447.5 376.5 447.5C382.565 447.5 387.5 452.435 387.5 458.5C387.5 464.565 382.565 469.5 376.5 469.5Z" fill="#F4765F"/>
<path d="M359.5 443.379C360.605 443.379 361.5 442.483 361.5 441.379C361.5 440.274 360.605 439.379 359.5 439.379C358.395 439.379 357.5 440.274 357.5 441.379C357.5 442.483 358.395 443.379 359.5 443.379Z" fill="#5764B3"/>
<path d="M360.5 458.5C360.5 449.678 367.678 442.5 376.5 442.5C381.405 442.5 385.797 444.724 388.734 448.21C389.229 446.051 389.5 443.807 389.5 441.5C389.5 424.958 376.042 411.5 359.5 411.5C342.958 411.5 329.5 424.958 329.5 441.5C329.5 458.042 342.958 471.5 359.5 471.5C361.807 471.5 364.051 471.229 366.21 470.734C362.723 467.797 360.5 463.405 360.5 458.5ZM373.642 425.822L374.349 425.115C374.74 424.724 375.372 424.724 375.763 425.115C376.154 425.506 376.154 426.138 375.763 426.529L375.056 427.236C374.861 427.431 374.605 427.529 374.349 427.529C374.093 427.529 373.837 427.431 373.642 427.236C373.251 426.846 373.251 426.213 373.642 425.822ZM358.5 419.379C358.5 418.826 358.948 418.379 359.5 418.379C360.052 418.379 360.5 418.826 360.5 419.379V420.379C360.5 420.932 360.052 421.379 359.5 421.379C358.948 421.379 358.5 420.932 358.5 420.379V419.379ZM338.5 442.379H337.5C336.948 442.379 336.5 441.932 336.5 441.379C336.5 440.826 336.948 440.379 337.5 440.379H338.5C339.052 440.379 339.5 440.826 339.5 441.379C339.5 441.932 339.052 442.379 338.5 442.379ZM345.358 456.936L344.651 457.643C344.456 457.838 344.2 457.936 343.944 457.936C343.688 457.936 343.432 457.838 343.237 457.643C342.846 457.252 342.846 456.62 343.237 456.229L343.944 455.522C344.335 455.131 344.967 455.131 345.358 455.522C345.749 455.913 345.749 456.545 345.358 456.936ZM345.358 427.236C345.163 427.431 344.907 427.529 344.651 427.529C344.395 427.529 344.139 427.431 343.944 427.236L343.237 426.529C342.846 426.138 342.846 425.506 343.237 425.115C343.628 424.724 344.26 424.724 344.651 425.115L345.358 425.822C345.749 426.213 345.749 426.846 345.358 427.236ZM355.642 442.379H348.5C347.948 442.379 347.5 441.932 347.5 441.379C347.5 440.826 347.948 440.379 348.5 440.379H355.642C356.006 438.98 357.101 437.885 358.5 437.521V427.379C358.5 426.826 358.948 426.379 359.5 426.379C360.052 426.379 360.5 426.826 360.5 427.379V437.521C362.22 437.968 363.5 439.521 363.5 441.379C363.5 443.585 361.706 445.379 359.5 445.379C357.642 445.379 356.089 444.1 355.642 442.379Z" fill="#5764B3"/>
</g>
<path d="M126.5 17.5V36.686" stroke="#F4765F"/>
<path d="M128.5 138.5V156.523" stroke="#F4765F"/>
<path d="M170.5 131.5L184.848 144.291" stroke="#F4765F"/>
<path d="M181.5 89.5H208.239" stroke="#F4765F"/>
<path d="M85.8479 131.5L71.5 143.709" stroke="#F4765F"/>
<path d="M71.9784 92.5H48.5" stroke="#F4765F"/>
<path d="M85.761 56.3604L67.5 39.5" stroke="#F4765F"/>
<path d="M73.5 45.5C70.5333 45.5 67.6332 46.3797 65.1665 48.028C62.6997 49.6762 60.7771 52.0189 59.6418 54.7597C58.5065 57.5006 58.2094 60.5166 58.7882 63.4263C59.367 66.3361 60.7956 69.0088 62.8934 71.1066C64.9912 73.2044 67.6639 74.633 70.5737 75.2118C73.4834 75.7905 76.4994 75.4935 79.2403 74.3582C81.9811 73.2229 84.3238 71.3003 85.972 68.8335C87.6203 66.3668 88.5 63.4667 88.5 60.5C88.5 58.5302 88.112 56.5796 87.3582 54.7597C86.6044 52.9399 85.4995 51.2863 84.1066 49.8934C82.7137 48.5005 81.0601 47.3956 79.2403 46.6418C77.4204 45.888 75.4698 45.5 73.5 45.5ZM82.014 57.8555L73.014 66.1055C72.7291 66.3668 72.3542 66.5079 71.9677 66.4996C71.5812 66.4912 71.2129 66.3339 70.9395 66.0605L66.4395 61.5605C66.2962 61.4221 66.182 61.2566 66.1034 61.0736C66.0247 60.8906 65.9834 60.6938 65.9816 60.4946C65.9799 60.2954 66.0179 60.0979 66.0933 59.9136C66.1687 59.7292 66.2801 59.5617 66.4209 59.4209C66.5618 59.2801 66.7292 59.1687 66.9136 59.0933C67.0979 59.0178 67.2954 58.9799 67.4946 58.9816C67.6938 58.9833 67.8906 59.0247 68.0736 59.1033C68.2566 59.182 68.4221 59.2962 68.5605 59.4395L72.045 62.924L79.986 55.6445C80.2792 55.3756 80.6672 55.2341 81.0647 55.2513C81.4622 55.2684 81.8366 55.4428 82.1055 55.736C82.3744 56.0292 82.5159 56.4172 82.4987 56.8147C82.4816 57.2122 82.3072 57.5866 82.014 57.8555Z" fill="#90D989"/>
<path d="M184.5 82.5C181.533 82.5 178.633 83.3797 176.166 85.028C173.7 86.6762 171.777 89.0189 170.642 91.7597C169.506 94.5006 169.209 97.5166 169.788 100.426C170.367 103.336 171.796 106.009 173.893 108.107C175.991 110.204 178.664 111.633 181.574 112.212C184.483 112.791 187.499 112.493 190.24 111.358C192.981 110.223 195.324 108.3 196.972 105.834C198.62 103.367 199.5 100.467 199.5 97.5C199.5 95.5302 199.112 93.5796 198.358 91.7597C197.604 89.9399 196.499 88.2863 195.107 86.8934C193.714 85.5005 192.06 84.3956 190.24 83.6418C188.42 82.888 186.47 82.5 184.5 82.5ZM193.014 94.8555L184.014 103.105C183.729 103.367 183.354 103.508 182.968 103.5C182.581 103.491 182.213 103.334 181.94 103.06L177.44 98.5605C177.296 98.4221 177.182 98.2566 177.103 98.0736C177.025 97.8906 176.983 97.6938 176.982 97.4946C176.98 97.2954 177.018 97.0979 177.093 96.9136C177.169 96.7292 177.28 96.5617 177.421 96.4209C177.562 96.2801 177.729 96.1687 177.914 96.0933C178.098 96.0178 178.295 95.9799 178.495 95.9816C178.694 95.9833 178.891 96.0247 179.074 96.1033C179.257 96.182 179.422 96.2962 179.561 96.4395L183.045 99.924L190.986 92.6445C191.279 92.3756 191.667 92.2341 192.065 92.2513C192.462 92.2684 192.837 92.4428 193.106 92.736C193.374 93.0292 193.516 93.4172 193.499 93.8147C193.482 94.2122 193.307 94.5866 193.014 94.8555Z" fill="#90D989"/>
<defs>
<clipPath id="clip0_333_587">
<rect width="80" height="80" fill="white" transform="translate(86.5 49.5)"/>
</clipPath>
<clipPath id="clip1_333_587">
<rect width="64.2818" height="60" fill="white" transform="translate(13.7148 211.857)"/>
</clipPath>
<clipPath id="clip2_333_587">
<rect width="70.71" height="70.7143" fill="white" transform="translate(10.5 206.5)"/>
</clipPath>
<clipPath id="clip3_333_587">
<rect width="21.4273" height="20" fill="white" transform="translate(35.1406 230.857)"/>
</clipPath>
<clipPath id="clip4_333_587">
<rect width="60" height="60" fill="white" transform="translate(329.5 411.5)"/>
</clipPath>
</defs>
</svg>
