<svg width="511" height="471" viewBox="0 0 511 471" fill="none" xmlns="http://www.w3.org/2000/svg">
<path d="M81.7993 410.777C128.041 450.774 166.395 462.044 259.795 461.48C464.971 438.773 519.955 275.14 489.832 209.519C459.71 143.897 447.222 175.556 393.54 124.669C370.311 106.029 362.688 91.9018 355.606 62.0666C347.544 37.3735 341.421 25.3478 319.618 16.5373C145.027 -33.1305 34.1599 35.5234 9.33655 181.58C-15.4613 234.87 12.9492 336.291 81.7993 410.777Z" fill="#CAEBFA" stroke="#CAEBFA"/>
<path d="M179.791 224.193L269.03 127.08C269.03 127.08 272.588 151.103 269.03 246.503C265.472 341.902 190.712 413.201 68.8984 316.056C170.604 374.455 238.846 324.587 225.723 224.193H179.791Z" fill="#5663BF" stroke="#4082CE" stroke-width="1.31234"/>
<path d="M359.581 226.161L269.03 127.08V226.161C266.332 289.217 258.772 318.569 222.442 348.209C176.259 374.061 142.245 366.011 68.8984 316.056C164.043 422.356 310.539 345.433 312.337 226.161H359.581Z" fill="#424CA1" stroke="#4082CE" stroke-width="1.31234"/>
<circle cx="266.406" cy="236.66" r="124.016" stroke="#5764B3" stroke-width="1.31234" stroke-dasharray="6.56 6.56"/>
<circle cx="270.343" cy="227.474" r="209.318" stroke="#5764B3" stroke-width="1.31234" stroke-dasharray="6.56 6.56"/>
<path d="M243.084 201.453L257.107 215.475L288.415 184.167" stroke="white" stroke-width="8.2021" stroke-linecap="round" stroke-linejoin="round"/>
<path d="M296.031 437.48L290.323 433.346C290.421 432.559 290.421 431.673 290.421 430.886C290.421 430 290.421 429.213 290.323 428.425L296.031 424.291C297.016 423.701 297.311 422.52 296.72 421.634L289.732 409.724C289.142 408.74 287.961 408.445 286.976 409.035L280.48 411.89C279.102 410.906 277.626 410.118 276.051 409.429L275.461 402.343C275.461 401.26 274.575 400.374 273.492 400.374H259.516C258.433 400.374 257.547 401.26 257.547 402.343L256.858 409.331C255.283 410.02 253.807 410.807 252.429 411.791L245.933 408.937C244.949 408.346 243.768 408.74 243.177 409.626L236.287 421.634C235.697 422.618 236.091 423.799 236.976 424.291L242.685 428.425C242.587 429.213 242.587 430.098 242.587 430.886C242.587 431.673 242.587 432.559 242.685 433.346L236.976 437.48C235.992 438.071 235.697 439.252 236.287 440.138L243.276 452.047C243.866 453.032 245.047 453.327 246.031 452.736L252.528 449.882C253.905 450.866 255.382 451.654 256.957 452.343L257.547 459.429C257.547 460.512 258.433 461.398 259.516 461.398H273.492C274.575 461.398 275.461 460.512 275.461 459.429L276.15 452.441C277.724 451.752 279.201 450.965 280.579 449.98L287.075 452.835C288.059 453.425 289.24 453.032 289.831 452.146L296.819 440.236C297.311 439.252 296.917 438.071 296.031 437.48ZM266.504 442.5C260.008 442.5 254.693 437.283 254.693 430.886C254.693 424.488 260.008 419.272 266.504 419.272C273 419.272 278.315 424.488 278.315 430.886C278.315 437.283 273 442.5 266.504 442.5Z" fill="#5663BF"/>
<mask id="path-8-inside-1_333_655" fill="white">
<path d="M330.711 79.3984H451.839V121.884C451.839 124.859 449.427 127.271 446.452 127.271H336.098C333.123 127.271 330.711 124.859 330.711 121.884V79.3984Z"/>
</mask>
<path d="M330.711 79.3984H451.839V121.884C451.839 124.859 449.427 127.271 446.452 127.271H336.098C333.123 127.271 330.711 124.859 330.711 121.884V79.3984Z" fill="#BBD6F2"/>
<path d="M330.711 79.3984H451.839H330.711ZM452.916 121.884C452.916 125.454 450.022 128.348 446.452 128.348H336.098C332.528 128.348 329.634 125.454 329.634 121.884H331.788C331.788 124.264 333.718 126.194 336.098 126.194H446.452C448.832 126.194 450.762 124.264 450.762 121.884H452.916ZM336.098 128.348C332.528 128.348 329.634 125.454 329.634 121.884V79.3984H331.788V121.884C331.788 124.264 333.718 126.194 336.098 126.194V128.348ZM452.916 79.3984V121.884C452.916 125.454 450.022 128.348 446.452 128.348V126.194C448.832 126.194 450.762 124.264 450.762 121.884V79.3984H452.916Z" fill="#4177B6" mask="url(#path-8-inside-1_333_655)"/>
<path d="M330.711 69.3004C330.711 65.1693 334.06 61.8203 338.191 61.8203H444.359C448.49 61.8203 451.839 65.1693 451.839 69.3004V79.3985H330.711V69.3004Z" fill="#F5695C"/>
<rect x="370.572" y="84.1768" width="9.69623" height="8.61887" rx="1.87002" fill="#F1F5FA"/>
<rect x="355.49" y="84.1768" width="9.69623" height="8.61887" rx="1.87002" fill="#F1F5FA"/>
<rect x="340.408" y="97.1035" width="9.69623" height="8.61887" rx="1.87002" fill="#F1F5FA"/>
<rect x="340.408" y="110.032" width="9.69623" height="8.61887" rx="1.87002" fill="#F1F5FA"/>
<rect x="385.656" y="84.1768" width="9.69623" height="8.61887" rx="1.87002" fill="#F1F5FA"/>
<rect x="355.49" y="97.1035" width="9.69623" height="8.61887" rx="1.87002" fill="#F1F5FA"/>
<rect x="355.49" y="110.032" width="9.69623" height="8.61887" rx="1.87002" fill="#F1F5FA"/>
<rect x="400.738" y="84.1768" width="9.69623" height="8.61887" rx="1.87002" fill="#F1F5FA"/>
<rect x="370.572" y="97.1035" width="9.69623" height="8.61887" rx="1.87002" fill="#F1F5FA"/>
<rect x="370.572" y="110.032" width="9.69623" height="8.61887" rx="1.87002" fill="#F1F5FA"/>
<rect x="415.822" y="84.1768" width="9.69623" height="8.61887" rx="1.87002" fill="#F1F5FA"/>
<rect x="385.656" y="97.1035" width="9.69623" height="8.61887" rx="1.87002" fill="#F1F5FA"/>
<rect x="385.656" y="110.032" width="9.69623" height="8.61887" rx="1.87002" fill="#F1F5FA"/>
<rect x="430.904" y="84.1768" width="9.69623" height="8.61887" rx="1.87002" fill="#F1F5FA"/>
<rect x="400.738" y="97.1035" width="9.69623" height="8.61887" rx="1.87002" fill="#F1F5FA"/>
<rect x="400.738" y="110.032" width="9.69623" height="8.61887" rx="1.87002" fill="#F1F5FA"/>
<rect x="415.822" y="97.1035" width="9.69623" height="8.61887" rx="1.87002" fill="#F1F5FA"/>
<rect x="415.822" y="110.032" width="9.69623" height="8.61887" rx="1.87002" fill="#F1F5FA"/>
<rect x="430.904" y="97.1035" width="9.69623" height="8.61887" rx="1.87002" fill="#F1F5FA"/>
<rect x="430.904" y="110.032" width="9.69623" height="8.61887" rx="1.87002" fill="#F1F5FA"/>
<rect x="356.566" y="52.9326" width="6.46415" height="15.083" rx="3.23208" fill="#4177B6"/>
<rect x="416.961" y="52.9326" width="6.46415" height="15.083" rx="3.23208" fill="#4177B6"/>
<path d="M431.76 111.988C425.271 111.988 418.928 113.912 413.532 117.517C408.137 121.123 403.932 126.246 401.449 132.241C398.965 138.236 398.316 144.833 399.582 151.197C400.848 157.561 403.972 163.407 408.561 167.996C413.149 172.584 418.995 175.709 425.359 176.975C431.723 178.241 438.32 177.591 444.315 175.108C450.31 172.624 455.434 168.419 459.039 163.024C462.644 157.629 464.568 151.286 464.568 144.797C464.568 140.488 463.719 136.222 462.071 132.241C460.422 128.261 458.005 124.644 454.959 121.598C451.912 118.551 448.295 116.134 444.315 114.486C440.334 112.837 436.068 111.988 431.76 111.988ZM450.382 139.013L430.697 157.057C430.073 157.629 429.254 157.937 428.408 157.919C427.563 157.901 426.757 157.557 426.159 156.959L416.317 147.116C416.003 146.814 415.753 146.452 415.581 146.051C415.409 145.651 415.319 145.22 415.315 144.785C415.311 144.349 415.394 143.917 415.559 143.514C415.724 143.111 415.968 142.744 416.276 142.436C416.584 142.128 416.95 141.885 417.354 141.72C417.757 141.555 418.189 141.472 418.624 141.476C419.06 141.479 419.491 141.57 419.891 141.742C420.291 141.914 420.653 142.164 420.956 142.477L428.577 150.099L445.946 134.177C446.587 133.588 447.436 133.279 448.305 133.317C449.175 133.354 449.994 133.735 450.582 134.377C451.17 135.018 451.479 135.867 451.442 136.736C451.404 137.605 451.023 138.424 450.382 139.013Z" fill="#90D989"/>
<path d="M436.682 298.996C436.682 296.279 438.885 294.075 441.603 294.075H461.288C464.006 294.075 466.209 296.279 466.209 298.996V303.918C466.209 306.636 464.006 308.839 461.288 308.839H441.603C438.885 308.839 436.682 306.636 436.682 303.918V298.996Z" fill="#5764B3"/>
<path d="M473.591 297.766H429.3C424.543 297.766 420.688 301.621 420.688 306.378V390.039C420.688 394.796 424.543 398.651 429.3 398.651H473.591C478.347 398.651 482.203 394.796 482.203 390.039V306.378C482.203 301.621 478.347 297.766 473.591 297.766Z" stroke="#5764B3" stroke-width="7.38189"/>
<path d="M436.682 385.118H466.209" stroke="#5764B3" stroke-width="7.38189" stroke-linecap="round"/>
<path d="M451.445 329.311C447.941 329.311 444.516 330.35 441.602 332.296C438.689 334.243 436.418 337.01 435.077 340.247C433.736 343.485 433.385 347.047 434.069 350.483C434.753 353.92 436.44 357.077 438.918 359.555C441.395 362.032 444.552 363.72 447.989 364.403C451.425 365.087 454.988 364.736 458.225 363.395C461.462 362.054 464.229 359.783 466.176 356.87C468.123 353.956 469.162 350.531 469.162 347.027C469.162 344.701 468.703 342.397 467.813 340.247C466.923 338.098 465.618 336.145 463.973 334.5C462.327 332.854 460.374 331.549 458.225 330.659C456.075 329.769 453.772 329.311 451.445 329.311ZM461.501 343.904L450.871 353.648C450.534 353.956 450.092 354.123 449.635 354.113C449.179 354.103 448.744 353.917 448.421 353.595L443.106 348.28C442.937 348.116 442.802 347.921 442.709 347.705C442.616 347.488 442.567 347.256 442.565 347.021C442.563 346.785 442.608 346.552 442.697 346.334C442.786 346.117 442.918 345.919 443.084 345.753C443.25 345.586 443.448 345.455 443.666 345.366C443.884 345.277 444.117 345.232 444.352 345.234C444.587 345.236 444.82 345.285 445.036 345.377C445.252 345.47 445.448 345.605 445.611 345.775L449.727 349.89L459.106 341.292C459.452 340.975 459.91 340.808 460.38 340.828C460.849 340.848 461.291 341.054 461.609 341.4C461.927 341.747 462.094 342.205 462.073 342.674C462.053 343.144 461.847 343.586 461.501 343.904Z" fill="#90D989"/>
<g clip-path="url(#clip0_333_655)">
<path d="M148.82 122.723L148.82 41.2588L80.9992 41.2588L80.9992 122.723L148.82 122.723Z" fill="#F0F5F9"/>
<path d="M91.1468 63.1422H138.668C139.59 63.1422 140.359 62.4831 140.359 61.6922C140.359 60.9013 139.59 60.2422 138.668 60.2422H91.1468C90.2241 60.2422 89.4551 60.9013 89.4551 61.6922C89.3014 62.4831 90.0703 63.1422 91.1468 63.1422Z" fill="#5764B3"/>
<path d="M104.68 54.3092H124.98C125.903 54.3092 126.672 53.6501 126.672 52.8592C126.672 52.0683 125.903 51.4092 124.98 51.4092H104.68C103.757 51.4092 102.988 52.0683 102.988 52.8592C102.988 53.6501 103.757 54.3092 104.68 54.3092Z" fill="#5764B3"/>
<path d="M91.1468 71.8414H138.668C139.59 71.8414 140.359 71.1823 140.359 70.3914C140.359 69.6005 139.59 68.9414 138.668 68.9414H91.1468C90.2241 68.9414 89.4551 69.6005 89.4551 70.3914C89.3014 71.1823 90.0703 71.8414 91.1468 71.8414Z" fill="#5764B3"/>
<path d="M91.1468 80.5416H138.668C139.59 80.5416 140.359 79.8825 140.359 79.0916C140.359 78.3007 139.59 77.6416 138.668 77.6416H91.1468C90.2241 77.6416 89.4551 78.3007 89.4551 79.0916C89.3014 79.8825 90.0703 80.5416 91.1468 80.5416Z" fill="#5764B3"/>
<path d="M148.819 39.8096H80.844C79.9213 39.8096 79.1523 40.4687 79.1523 41.2596V122.724C79.1523 123.515 79.9213 124.174 80.844 124.174H148.665C149.588 124.174 150.357 123.515 150.357 122.724V41.2596C150.511 40.4687 149.742 39.8096 148.819 39.8096ZM147.127 121.274H82.5357V42.7096H147.127V121.274Z" fill="#5764B3"/>
<path d="M91.1468 89.2408H138.668C139.59 89.2408 140.359 88.5818 140.359 87.7908C140.359 86.9999 139.59 86.3408 138.668 86.3408H91.1468C90.2241 86.3408 89.4551 86.9999 89.4551 87.7908C89.3014 88.5818 90.0703 89.2408 91.1468 89.2408Z" fill="#5764B3"/>
<path d="M91.1468 97.942H138.668C139.59 97.942 140.359 97.2829 140.359 96.492C140.359 95.7011 139.59 95.042 138.668 95.042H91.1468C90.2241 95.042 89.4551 95.7011 89.4551 96.492C89.3014 97.2829 90.0703 97.942 91.1468 97.942Z" fill="#5764B3"/>
<path d="M91.1468 106.773H138.668C139.59 106.773 140.359 106.114 140.359 105.323C140.359 104.532 139.59 103.873 138.668 103.873H91.1468C90.2241 103.873 89.4551 104.532 89.4551 105.323C89.3014 106.114 90.0703 106.773 91.1468 106.773Z" fill="#5764B3"/>
</g>
<circle cx="141.734" cy="105.427" r="22.3097" fill="#F4765F"/>
<path d="M134.21 93.2637C132.929 91.9824 130.852 91.9824 129.57 93.2637C128.289 94.5449 128.289 96.6222 129.57 97.9035L137.093 105.426L129.57 112.949C128.289 114.23 128.289 116.307 129.57 117.588C130.852 118.87 132.929 118.87 134.21 117.588L141.733 110.066L149.255 117.588C150.537 118.87 152.614 118.87 153.895 117.588C155.176 116.307 155.176 114.23 153.895 112.949L146.373 105.426L153.895 97.9035C155.176 96.6222 155.176 94.5449 153.895 93.2637C152.614 91.9824 150.537 91.9824 149.255 93.2637L141.733 100.786L134.21 93.2637Z" fill="white"/>
<g clip-path="url(#clip1_333_655)">
<path d="M115.487 240.269C115.487 239.941 115.487 239.941 115.487 239.941C115.487 239.613 115.487 239.285 115.487 238.957L102.364 199.587C102.364 199.587 102.364 199.259 102.035 199.259C102.035 198.931 101.707 198.931 101.707 198.603L101.379 198.275C101.051 197.947 101.051 197.947 100.723 197.947C100.723 197.947 100.395 197.947 100.395 197.618C99.7388 197.29 99.4108 197.29 99.0827 197.29H72.1798C71.1955 194.666 68.899 192.369 66.2743 191.385V187.448C66.2743 185.479 64.9619 184.167 62.9934 184.167C61.0249 184.167 59.7126 185.479 59.7126 187.448V191.385C57.0879 192.369 54.7913 194.666 53.8071 197.29H26.9042C26.5761 197.29 26.248 197.29 25.5919 197.618C25.5919 197.618 25.2638 197.618 25.2638 197.947C24.9357 197.947 24.9357 198.275 24.6076 198.275L24.2795 198.603C24.2795 198.603 24.2795 198.931 23.9514 198.931C23.9514 198.931 23.9514 199.259 23.6234 199.259L10.5 238.629C10.5 238.957 10.5 239.285 10.5 239.613V239.941V240.269C10.8281 249.128 18.0459 256.345 26.9042 256.345C35.7625 256.345 42.9803 249.128 43.3084 240.597V240.269V239.941C43.3084 239.613 43.3084 239.285 43.3084 238.957L31.4974 203.852H53.8071C54.7913 206.477 57.0879 208.773 59.7126 209.758V249.784C56.1037 249.784 53.1509 252.737 53.1509 256.345V269.469H44.6207C40.3556 269.469 36.7467 272.094 35.4344 276.359L33.794 281.608C33.1378 282.592 33.4659 283.576 34.122 284.561C34.7782 285.217 35.7625 285.873 36.7467 285.873H89.2402C90.2244 285.873 91.2087 285.217 91.8648 284.561C92.521 283.576 92.521 282.592 92.1929 281.608L90.5525 276.359C89.2402 272.094 85.6312 269.469 81.3661 269.469H72.836V256.345C72.836 252.737 69.8832 249.784 66.2743 249.784V209.758C68.899 208.773 71.1955 206.477 72.1798 203.852H94.4895L82.6785 238.957C82.6785 239.285 82.6785 239.613 82.6785 239.941V240.269V240.597C83.0066 249.456 90.2244 256.345 99.0827 256.345C107.941 256.345 115.159 249.128 115.487 240.269ZM18.374 236.66L26.9042 211.07L35.4344 236.66H18.374ZM62.9934 203.852C61.0249 203.852 59.7126 202.54 59.7126 200.571C59.7126 198.603 61.0249 197.29 62.9934 197.29C64.9619 197.29 66.2743 198.603 66.2743 200.571C66.2743 202.54 64.9619 203.852 62.9934 203.852ZM99.0827 211.07L107.613 236.66H90.5525L99.0827 211.07Z" fill="#E75A5A"/>
</g>
<defs>
<clipPath id="clip0_333_655">
<rect width="98.4252" height="84.3645" fill="white" transform="translate(65.6172 39.8096)"/>
</clipPath>
<clipPath id="clip1_333_655">
<rect width="104.987" height="104.987" fill="white" transform="translate(10.5 184.167)"/>
</clipPath>
</defs>
</svg>
