<svg width="32" height="32" viewBox="0 0 32 32" fill="none" xmlns="http://www.w3.org/2000/svg">
<g clip-path="url(#clip0_582_449)">
<path d="M30.4938 29.3333H25.3338C25.2817 29.3356 25.2299 29.3246 25.1832 29.3012C25.1365 29.2779 25.0966 29.243 25.0672 29.2C25.0449 29.1567 25.0333 29.1087 25.0333 29.06C25.0333 29.0113 25.0449 28.9633 25.0672 28.92L26.8272 22.2533C26.8745 22.0713 26.8774 21.8807 26.8356 21.6974C26.7938 21.5141 26.7086 21.3435 26.5872 21.2C26.4604 21.0477 26.3012 20.9256 26.1213 20.8426C25.9414 20.7596 25.7453 20.7177 25.5472 20.72H6.49383C6.2957 20.7177 6.09956 20.7596 5.91966 20.8426C5.73976 20.9256 5.58062 21.0477 5.45383 21.2C5.33236 21.3435 5.24715 21.5141 5.20539 21.6974C5.16362 21.8807 5.16652 22.0713 5.21383 22.2533L6.97383 28.92C6.99606 28.9633 7.00765 29.0113 7.00765 29.06C7.00765 29.1087 6.99606 29.1567 6.97383 29.2C6.9411 29.2495 6.8947 29.2884 6.84027 29.3121C6.78583 29.3358 6.7257 29.3431 6.66716 29.3333H1.50716C1.15354 29.3333 0.814401 29.4738 0.564352 29.7238C0.314304 29.9739 0.173828 30.313 0.173828 30.6666C0.173828 31.0203 0.314304 31.3594 0.564352 31.6094C0.814401 31.8595 1.15354 32 1.50716 32H30.4938C30.8475 32 31.1866 31.8595 31.4366 31.6094C31.6867 31.3594 31.8272 31.0203 31.8272 30.6666C31.8272 30.313 31.6867 29.9739 31.4366 29.7238C31.1866 29.4738 30.8475 29.3333 30.4938 29.3333ZM16.0005 24C16.328 23.9973 16.649 24.092 16.9226 24.2721C17.1963 24.4522 17.4103 24.7094 17.5374 25.0113C17.6646 25.3132 17.6993 25.646 17.637 25.9676C17.5747 26.2892 17.4183 26.585 17.1876 26.8176C16.957 27.0501 16.6624 27.2089 16.3413 27.2738C16.0202 27.3387 15.6871 27.3068 15.3842 27.182C15.0814 27.0573 14.8224 26.8454 14.6401 26.5732C14.4578 26.301 14.3605 25.9809 14.3605 25.6533C14.3587 25.4368 14.3999 25.2221 14.4815 25.0216C14.5631 24.8211 14.6836 24.6387 14.8361 24.485C14.9886 24.3313 15.17 24.2093 15.3698 24.1261C15.5696 24.0428 15.784 24 16.0005 24ZM8.37383 18.0933C8.38072 18.2655 8.45399 18.4282 8.57827 18.5476C8.70256 18.6669 8.86821 18.7334 9.04049 18.7333H22.9605C23.135 18.7333 23.3026 18.6649 23.4272 18.5428C23.5519 18.4206 23.6237 18.2545 23.6272 18.08C23.6269 16.6532 23.227 15.255 22.4729 14.0437C21.7189 12.8325 20.6407 11.8566 19.3605 11.2266C19.3105 11.199 19.2688 11.1584 19.2398 11.1092C19.2107 11.0599 19.1954 11.0038 19.1954 10.9466C19.1954 10.8895 19.2107 10.8334 19.2398 10.7841C19.2688 10.7349 19.3105 10.6943 19.3605 10.6666C20.3717 9.94716 21.1281 8.92488 21.5204 7.74745C21.9127 6.57001 21.9206 5.29836 21.5429 4.11615C21.1653 2.93394 20.4216 1.90235 19.4194 1.17038C18.4172 0.438415 17.2082 0.0439453 15.9672 0.0439453C14.7261 0.0439453 13.5171 0.438415 12.5149 1.17038C11.5127 1.90235 10.7691 2.93394 10.3914 4.11615C10.0138 5.29836 10.0216 6.57001 10.4139 7.74745C10.8062 8.92488 11.5626 9.94716 12.5738 10.6666C12.6208 10.7025 12.6586 10.749 12.6841 10.8023C12.7096 10.8556 12.7221 10.9142 12.7205 10.9733C12.7136 11.0296 12.693 11.0834 12.6604 11.1299C12.6279 11.1764 12.5844 11.2142 12.5338 11.24C11.2745 11.886 10.2191 12.8685 9.48466 14.0783C8.75027 15.2882 8.36575 16.678 8.37383 18.0933ZM16.0005 12.8933C16.2622 12.8933 16.5131 12.9973 16.6982 13.1823C16.8832 13.3673 16.9872 13.6183 16.9872 13.88V15.5066C16.9872 15.7683 16.8832 16.0193 16.6982 16.2043C16.5131 16.3894 16.2622 16.4933 16.0005 16.4933C15.7388 16.4933 15.4879 16.3894 15.3028 16.2043C15.1178 16.0193 15.0138 15.7683 15.0138 15.5066V13.88C15.0138 13.6183 15.1178 13.3673 15.3028 13.1823C15.4879 12.9973 15.7388 12.8933 16.0005 12.8933ZM12.8672 4.89331C12.8843 4.84542 12.9125 4.80229 12.9496 4.76751C12.9867 4.73273 13.0316 4.70729 13.0805 4.69331C13.1235 4.66997 13.1716 4.65774 13.2205 4.65774C13.2694 4.65774 13.3175 4.66997 13.3605 4.69331C14.5513 5.46835 15.9397 5.88488 17.3605 5.89331C17.8666 5.88776 18.3711 5.83418 18.8672 5.73331C18.8878 5.72277 18.9107 5.71728 18.9338 5.71728C18.957 5.71728 18.9799 5.72277 19.0005 5.73331C19.0202 5.74976 19.0362 5.77009 19.0477 5.79303C19.0592 5.81597 19.0658 5.84103 19.0672 5.86664C19.0692 6.33387 18.9694 6.79593 18.7746 7.22063C18.5798 7.64532 18.2948 8.02243 17.9393 8.32566C17.5838 8.62889 17.1665 8.85096 16.7164 8.97638C16.2664 9.10181 15.7943 9.12757 15.3333 9.05187C14.8722 8.97617 14.4332 8.80084 14.0468 8.53809C13.6605 8.27534 13.3361 7.9315 13.0962 7.53053C12.8564 7.12955 12.7069 6.6811 12.6581 6.21642C12.6093 5.75174 12.6625 5.28201 12.8138 4.83997L12.8672 4.89331Z" fill="#5863B2"/>
</g>
<defs>
<clipPath id="clip0_582_449">
<rect width="32" height="32" fill="white"/>
</clipPath>
</defs>
</svg>
