<svg width="510" height="288" viewBox="0 0 510 288" fill="none" xmlns="http://www.w3.org/2000/svg">
<path d="M117.927 252.77C176.413 247.701 203.666 235.074 249.418 207.45C278.14 198.948 289.937 205.203 307.504 225.323C350.638 277.644 408.357 291.069 448.57 225.323C488.784 159.577 462.499 51.9731 366.867 20.4256C319.654 -0.169073 292.559 -4.13794 243.669 3.8296C197.7 9.04341 176.168 24.4022 137.072 49.7878C41.6036 80.2838 25.0739 97.7221 8.13767 128.938C-20.5904 202.344 29.2711 254.787 117.927 252.77Z" fill="#DCF1F6"/>
<g clip-path="url(#clip0_364_566)">
<path d="M456.754 121.017L396.454 105.619C389.978 103.965 383.388 107.874 381.735 114.35L352.65 228.25C350.997 234.726 354.906 241.316 361.381 242.97L421.682 258.367C428.157 260.021 434.747 256.112 436.401 249.636L465.485 135.736C467.138 129.26 463.229 122.67 456.754 121.017Z" fill="#D9D9D9" stroke="#474F97" stroke-width="10.3725"/>
<path d="M376.135 227.111L416.335 237.376" stroke="#5764B3" stroke-width="10.3725" stroke-linecap="round"/>
<path d="M406.076 109.861C407.021 106.161 410.787 103.927 414.487 104.872L441.287 111.715C444.988 112.66 447.221 116.426 446.276 120.126L444.566 126.826C443.621 130.527 439.855 132.76 436.155 131.815L409.355 124.972C405.654 124.027 403.421 120.261 404.365 116.561L406.076 109.861Z" fill="#484D8E"/>
<g clip-path="url(#clip1_364_566)">
<path d="M425.892 180.77L422.913 180.01L424.333 174.45C425.901 168.31 421.838 161.969 415.26 160.289C408.681 158.61 402.076 162.226 400.508 168.367L399.088 173.926L396.11 173.166C394.464 172.745 392.814 173.649 392.422 175.185L386.743 197.423C386.351 198.96 387.366 200.543 389.012 200.964L418.793 208.568C420.44 208.989 422.089 208.086 422.481 206.549L428.16 184.311C428.552 182.774 427.538 181.191 425.892 180.77ZM406.742 193.647C405.096 193.226 404.081 191.643 404.473 190.107C404.866 188.57 406.515 187.667 408.161 188.087C409.808 188.508 410.822 190.091 410.43 191.627C410.037 193.164 408.388 194.067 406.742 193.647ZM416.957 178.489L405.044 175.447L406.464 169.888C407.248 166.817 410.551 165.009 413.84 165.849C417.129 166.689 419.161 169.859 418.377 172.929L416.957 178.489Z" fill="#676DD3"/>
</g>
</g>
<g clip-path="url(#clip2_364_566)">
<path fill-rule="evenodd" clip-rule="evenodd" d="M424.755 39.5226L435.126 60.8645L421.74 54.5024L420.773 56.5377L434.29 62.9637L402.845 78.2427L406.146 63.6451L403.948 63.1476L400.678 77.6026L390.308 56.2607L414.788 62.8272L424.755 39.5226ZM422.991 35.8943L423.45 36.8385L413.484 60.1421L389.005 53.5757L388.546 52.6314L422.991 35.8943Z" fill="#7882E4"/>
</g>
<g clip-path="url(#clip3_364_566)">
<path fill-rule="evenodd" clip-rule="evenodd" d="M113.629 259.07L106.465 281.691L101.132 267.864L99.0301 268.675L104.414 282.639L71.0855 272.084L83.5266 263.765L82.2744 261.891L69.9539 270.128L77.1178 247.507L90.3591 269.119L113.629 259.07ZM114.846 255.224L114.529 256.224L91.2611 266.273L78.0198 244.662L78.3368 243.661L114.846 255.224Z" fill="#7882E4"/>
</g>
<path fill-rule="evenodd" clip-rule="evenodd" d="M113.078 122.728C103.503 122.78 93.8819 114.241 93.8241 103.684C93.7662 93.1264 102.311 84.4878 112.868 84.43C123.426 84.3721 132.064 92.9165 132.122 103.474L125.739 103.509L135.401 119.414L144.888 103.404L138.505 103.439C138.428 89.339 126.933 77.9697 112.833 78.047C98.7331 78.1242 87.3638 89.6188 87.4411 103.719C87.5184 117.819 97.1555 129.198 113.113 129.111L113.078 122.728Z" fill="#0EA5DC"/>
<g clip-path="url(#clip4_364_566)">
<path d="M122.13 145.812C120.275 147.268 74.1776 183.472 73.24 184.21C73.8385 184.669 65.2612 177.927 24.3496 145.812C24.4294 145.732 71.2453 103.005 71.1456 103.085C72.3225 102.008 74.1377 102.008 75.3345 103.085C74.5566 102.367 87.3427 114.056 122.13 145.812Z" fill="#AFB8FB"/>
<path d="M115.57 113.637V150.958L77.2712 181.039H69.2325L30.9141 150.958V113.637C30.9141 111.922 32.3104 110.525 34.0258 110.525H112.478C114.173 110.525 115.57 111.922 115.57 113.637Z" fill="white"/>
<path d="M115.569 113.637V150.958L77.2703 181.039H69.2316L68.9922 180.839L107.031 150.958V113.637C107.031 111.922 105.635 110.525 103.92 110.525H112.457C114.172 110.525 115.569 111.922 115.569 113.637Z" fill="#EDEDED"/>
<path d="M122.13 145.812V198.113C122.13 199.409 121.612 200.586 120.754 201.444C119.896 202.302 118.72 202.84 117.423 202.84H29.0571C27.7606 202.84 26.5837 202.302 25.726 201.444C24.8682 200.586 24.3496 199.429 24.3496 198.113V145.812L56.1453 170.785L73.24 184.21L90.3347 170.785L122.13 145.812Z" fill="#7882E4"/>
<path d="M34.6224 202.84H29.0571C27.7606 202.84 26.5837 202.302 25.726 201.444C24.8682 200.586 24.3496 199.429 24.3496 198.113V145.812L29.8949 150.18V198.113C29.8949 199.409 30.4135 200.586 31.2713 201.444C32.129 202.302 33.3059 202.84 34.6224 202.84Z" fill="#7B86E0"/>
<path d="M122.132 145.812V198.113C122.132 199.409 121.613 200.586 120.755 201.444C119.898 202.302 118.721 202.84 117.424 202.84H108.887C110.183 202.84 111.38 202.302 112.218 201.444C113.076 200.586 113.594 199.429 113.594 198.113V152.514L122.132 145.812Z" fill="#AFB8FB"/>
<path d="M81.1018 163.465H65.4034C64.1467 163.465 62.9499 163.964 62.0523 164.861C48.8871 178.126 25.8283 201.364 25.7285 201.464C26.5862 202.322 27.7631 202.86 29.0597 202.86H117.426C118.722 202.86 119.919 202.322 120.757 201.464C99.1739 179.722 102.166 182.714 84.4329 164.881C83.5553 163.964 82.3584 163.465 81.1018 163.465Z" fill="#AFB8FB"/>
<path d="M67.2385 164.842C54.0734 178.106 31.0145 201.345 30.9148 201.445C31.7725 202.302 32.9494 202.841 34.2459 202.841H29.0597C27.7631 202.841 26.5862 202.302 25.7285 201.445C25.8283 201.345 48.8871 178.126 62.0523 164.842C62.9499 163.944 64.1467 163.445 65.4034 163.445H70.5896C69.333 163.465 68.1361 163.964 67.2385 164.842Z" fill="#7882E4"/>
<path d="M120.757 201.444C119.899 202.302 118.722 202.84 117.426 202.84H108.888C110.185 202.84 111.382 202.302 112.219 201.444C90.6366 179.702 93.6286 182.714 75.9156 164.861C75.0179 163.964 73.8211 163.465 72.5645 163.465H81.1018C82.3585 163.465 83.5753 163.983 84.4529 164.861C102.166 182.694 99.1739 179.702 120.757 201.444Z" fill="#7983E4"/>
<path d="M122.909 145.812C122.909 145.592 122.789 145.353 122.65 145.233L116.346 139.469V113.637C116.346 111.483 114.611 109.747 112.457 109.747H83.7927L76.2128 102.806C74.0385 100.811 71.984 101.25 70.1089 102.965L62.7085 109.728H34.0246C31.8703 109.728 30.1349 111.463 30.1349 113.617V139.449C26.325 142.92 23.8515 145.194 23.8316 145.213C23.6919 145.333 23.5723 145.592 23.5723 145.792V198.093C23.5723 201.185 26.0657 203.619 29.0577 203.619H117.424C120.456 203.619 122.929 201.145 122.929 198.113V145.812H122.909ZM121.353 198.113C121.353 198.891 121.134 199.629 120.715 200.268L91.5122 170.865L121.353 147.448V198.113ZM120.914 145.772C120.037 146.47 118.441 147.727 116.346 149.362V141.603L120.914 145.772ZM71.6848 103.664C72.5824 102.846 73.9188 102.846 74.8165 103.664L74.8364 103.684C75.1755 103.983 77.27 105.898 81.4788 109.747H65.0224C69.0118 106.077 71.6449 103.684 71.6848 103.664ZM31.6908 113.637C31.6908 112.361 32.728 111.323 34.0046 111.323H112.457C113.733 111.323 114.771 112.361 114.771 113.637C114.771 118.624 114.771 150.699 114.771 150.599L90.3752 169.748L84.9895 164.323C83.9523 163.286 82.536 162.687 81.0799 162.687H65.3815C63.9054 162.687 62.529 163.266 61.4718 164.303L56.0861 169.729L31.6908 150.579V113.637ZM25.1281 198.113V147.428L54.9691 170.846L25.7864 200.268C25.3675 199.629 25.1281 198.891 25.1281 198.113ZM30.1349 141.603V149.362L25.567 145.772C26.4048 144.994 28.0205 143.518 30.1349 141.603ZM29.0577 202.043C28.3396 202.043 27.5019 201.803 26.8835 201.385L62.6088 165.4C63.3469 164.662 64.3442 164.243 65.4014 164.243H81.0998C82.1371 164.243 83.1544 164.662 83.8924 165.4L119.598 201.385C119.019 201.764 118.182 202.043 117.424 202.043H29.0577Z" fill="#676DD3"/>
<path d="M104.638 150.42C105.077 150.42 105.416 150.061 105.416 149.642C105.416 149.203 105.057 148.864 104.638 148.864H41.8443C41.4055 148.864 41.0664 149.223 41.0664 149.642C41.0664 150.081 41.4255 150.42 41.8443 150.42H104.638Z" fill="#676DD3"/>
<path d="M41.8443 141.363H104.638C105.077 141.363 105.416 141.004 105.416 140.586C105.416 140.147 105.057 139.808 104.638 139.808H41.8443C41.4055 139.808 41.0664 140.167 41.0664 140.586C41.0664 141.004 41.4055 141.363 41.8443 141.363Z" fill="#676DD3"/>
<path d="M104.638 132.287C105.077 132.287 105.416 131.928 105.416 131.509C105.416 131.071 105.057 130.731 104.638 130.731H41.8443C41.4055 130.731 41.0664 131.09 41.0664 131.509C41.0664 131.948 41.4255 132.287 41.8443 132.287H104.638Z" fill="#676DD3"/>
<path d="M41.8443 123.232H104.638C105.077 123.232 105.416 122.873 105.416 122.454C105.416 122.015 105.057 121.676 104.638 121.676H41.8443C41.4055 121.676 41.0664 122.035 41.0664 122.454C41.0664 122.873 41.4055 123.232 41.8443 123.232Z" fill="#676DD3"/>
</g>
<g clip-path="url(#clip5_364_566)">
<path fill-rule="evenodd" clip-rule="evenodd" d="M274.631 17.3802L308.567 23.4143C310.9 23.8292 312.47 26.0775 312.055 28.4107L307.529 53.8629C307.114 56.1961 304.866 57.7656 302.533 57.3507L272.839 52.0709L262.846 59.0465L269.634 20.868C270.049 18.5349 272.298 16.9654 274.631 17.3802ZM280.496 28.1479L299.35 31.5002L298.511 36.2136L279.658 32.8613L280.496 28.1479ZM292.96 40.0889L278.82 37.5747L277.982 42.2881L292.122 44.8023L292.96 40.0889Z" fill="#7882E4"/>
</g>
<path d="M124.307 159.803C141.541 123.419 281.969 115.76 357.289 159.803" stroke="black" stroke-width="3.82985" stroke-dasharray="7.66 7.66"/>
<path d="M348.989 129.575C344.444 129.575 340.001 130.923 336.222 133.448C332.443 135.973 329.498 139.562 327.759 143.761C326.02 147.959 325.565 152.58 326.451 157.037C327.338 161.495 329.527 165.589 332.74 168.803C335.954 172.017 340.048 174.205 344.506 175.092C348.963 175.979 353.584 175.523 357.783 173.784C361.981 172.045 365.57 169.1 368.095 165.321C370.62 161.542 371.968 157.099 371.968 152.554C371.968 149.537 371.374 146.549 370.219 143.761C369.064 140.973 367.371 138.439 365.238 136.306C363.104 134.172 360.571 132.479 357.783 131.324C354.995 130.17 352.007 129.575 348.989 129.575ZM362.032 148.503L348.244 161.142C347.808 161.542 347.234 161.758 346.642 161.745C346.049 161.732 345.485 161.491 345.066 161.073L338.173 154.179C337.953 153.967 337.778 153.713 337.658 153.433C337.537 153.153 337.474 152.851 337.471 152.546C337.469 152.241 337.527 151.938 337.642 151.656C337.758 151.374 337.928 151.117 338.144 150.901C338.36 150.685 338.616 150.515 338.899 150.399C339.181 150.284 339.484 150.226 339.789 150.228C340.094 150.231 340.396 150.294 340.676 150.415C340.956 150.535 341.21 150.71 341.422 150.93L346.76 156.268L358.925 145.116C359.374 144.704 359.969 144.487 360.578 144.514C361.186 144.54 361.76 144.807 362.172 145.256C362.584 145.705 362.801 146.3 362.774 146.909C362.748 147.518 362.481 148.091 362.032 148.503Z" fill="#90D989"/>
<path d="M218.77 174.173C167.076 150.541 161.966 84.8093 218.77 63.1068L214.945 82.3404L230.265 96.3832L218.77 109.788C227.59 120.583 231.244 126.617 234.095 137.235C238.147 133.393 239.436 130.754 239.839 125.107C240.296 121.776 238.086 119.55 234.188 115.626L234.095 115.532C230.139 111.55 264.733 98.2981 226.435 82.3404L234.095 63.1068C285.159 54.2547 327.926 142.985 252.605 174.173V188.3H246.222V208.087L270.478 220.853V226.598L255.797 237.449V241.917L270.478 249.577V257.237L255.797 265.535H246.222V272.556C238.4 284.687 233.196 283.396 225.158 272.556V262.343V188.3H218.77V174.173Z" fill="#F9585E" stroke="#F9585E" stroke-width="3.82985"/>
<defs>
<clipPath id="clip0_364_566">
<rect width="165.96" height="165.96" fill="white" transform="translate(349.199 81.0635) rotate(14.3243)"/>
</clipPath>
<clipPath id="clip1_364_566">
<rect width="49.1795" height="45.9037" fill="white" transform="translate(391.434 154.208) rotate(14.3243)"/>
</clipPath>
<clipPath id="clip2_364_566">
<rect width="38.2985" height="38.2985" fill="white" transform="translate(386.576 48.5762) rotate(-25.9154)"/>
</clipPath>
<clipPath id="clip3_364_566">
<rect width="38.2985" height="38.2985" fill="white" transform="translate(79.6973 239.364) rotate(17.5728)"/>
</clipPath>
<clipPath id="clip4_364_566">
<rect width="102.129" height="102.129" fill="white" transform="translate(22.1758 101.489)"/>
</clipPath>
<clipPath id="clip5_364_566">
<rect width="57.4478" height="57.4478" fill="white" transform="translate(264.576 8.29688) rotate(10.0822)"/>
</clipPath>
</defs>
</svg>
