<svg width="510" height="301" viewBox="0 0 510 301" fill="none" xmlns="http://www.w3.org/2000/svg">
<path d="M128.859 276.203C192.768 270.664 222.547 256.866 272.541 226.682C303.925 217.392 316.816 224.226 336.012 246.212C383.145 303.384 446.214 318.053 490.156 246.212C534.097 174.371 505.375 56.7914 400.878 22.3192C349.288 -0.184748 319.681 -4.52155 266.259 4.18463C216.028 9.88179 192.5 26.6644 149.779 54.4035C45.4606 87.7267 27.3984 106.782 8.89209 140.891C-22.4993 221.102 31.9847 278.408 128.859 276.203Z" fill="#DCF1F6"/>
<path d="M139.919 220.843L133.681 216.326C133.788 215.466 133.788 214.498 133.788 213.637C133.788 212.669 133.788 211.809 133.681 210.949L139.919 206.431C140.994 205.786 141.317 204.496 140.671 203.528L133.035 190.514C132.39 189.439 131.099 189.116 130.024 189.761L122.926 192.88C121.42 191.805 119.807 190.944 118.086 190.191L117.441 182.448C117.441 181.265 116.473 180.297 115.29 180.297H100.018C98.8345 180.297 97.8666 181.265 97.8666 182.448L97.1137 190.084C95.3929 190.837 93.7797 191.697 92.274 192.773L85.1757 189.654C84.1002 189.008 82.8096 189.439 82.1643 190.407L74.6358 203.528C73.9905 204.603 74.4207 205.894 75.3886 206.431L81.6265 210.949C81.519 211.809 81.519 212.777 81.519 213.637C81.519 214.498 81.519 215.466 81.6265 216.326L75.3886 220.843C74.3131 221.488 73.9905 222.779 74.6358 223.747L82.2718 236.761C82.9171 237.836 84.2077 238.159 85.2832 237.513L92.3815 234.394C93.8872 235.47 95.5005 236.33 97.2213 237.083L97.8666 244.827C97.8666 246.01 98.8345 246.978 100.018 246.978H115.29C116.473 246.978 117.441 246.01 117.441 244.827L118.193 237.191C119.914 236.438 121.528 235.578 123.033 234.502L130.132 237.621C131.207 238.266 132.498 237.836 133.143 236.868L140.779 223.855C141.317 222.779 140.886 221.488 139.919 220.843ZM107.654 226.328C100.555 226.328 94.7476 220.628 94.7476 213.637C94.7476 206.647 100.555 200.946 107.654 200.946C114.752 200.946 120.56 206.647 120.56 213.637C120.56 220.628 114.752 226.328 107.654 226.328Z" fill="#5663BF"/>
<path d="M421.837 106.109L415.599 101.592C415.706 100.731 415.706 99.7634 415.706 98.903C415.706 97.935 415.706 97.0746 415.599 96.2142L421.837 91.6971C422.912 91.0518 423.235 89.7612 422.589 88.7933L414.953 75.7797C414.308 74.7042 413.017 74.3816 411.942 75.0269L404.844 78.1458C403.338 77.0703 401.725 76.2099 400.004 75.4571L399.359 67.7135C399.359 66.5304 398.391 65.5625 397.208 65.5625H381.936C380.752 65.5625 379.785 66.5304 379.785 67.7135L379.032 75.3495C377.311 76.1024 375.698 76.9628 374.192 78.0383L367.094 74.9193C366.018 74.274 364.728 74.7042 364.082 75.6722L356.554 88.7933C355.908 89.8688 356.339 91.1594 357.307 91.6971L363.544 96.2142C363.437 97.0746 363.437 98.0426 363.437 98.903C363.437 99.7634 363.437 100.731 363.544 101.592L357.307 106.109C356.231 106.754 355.908 108.045 356.554 109.013L364.19 122.026C364.835 123.102 366.126 123.424 367.201 122.779L374.299 119.66C375.805 120.736 377.418 121.596 379.139 122.349L379.785 130.092C379.785 131.275 380.752 132.243 381.936 132.243H397.208C398.391 132.243 399.359 131.275 399.359 130.092L400.111 122.456C401.832 121.704 403.445 120.843 404.951 119.768L412.049 122.887C413.125 123.532 414.416 123.102 415.061 122.134L422.697 109.12C423.235 108.045 422.804 106.754 421.837 106.109ZM389.572 111.594C382.473 111.594 376.666 105.894 376.666 98.903C376.666 91.9122 382.473 86.2121 389.572 86.2121C396.67 86.2121 402.478 91.9122 402.478 98.903C402.478 105.894 396.67 111.594 389.572 111.594Z" fill="#5663BF"/>
<g clip-path="url(#clip0_368_471)">
<path d="M436.362 165.513L386.111 152.682C380.715 151.304 375.223 154.561 373.845 159.958L349.607 254.877C348.229 260.273 351.487 265.765 356.883 267.143L407.135 279.974C412.531 281.352 418.023 278.095 419.401 272.698L443.638 177.779C445.016 172.383 441.759 166.891 436.362 165.513Z" fill="#D9D9D9" stroke="#474F97" stroke-width="8.64394"/>
<path d="M369.18 253.927L402.681 262.481" stroke="#5764B3" stroke-width="8.64394" stroke-linecap="round"/>
<path d="M394.131 156.216C394.918 153.133 398.056 151.271 401.14 152.059L423.474 157.761C426.558 158.549 428.419 161.687 427.632 164.771L426.206 170.354C425.419 173.438 422.281 175.299 419.197 174.512L396.863 168.809C393.779 168.022 391.918 164.883 392.705 161.8L394.131 156.216Z" fill="#484D8E"/>
<path d="M396.629 191.224C391.663 191.224 386.808 192.696 382.679 195.455C378.55 198.214 375.331 202.136 373.431 206.724C371.53 211.312 371.033 216.361 372.002 221.232C372.971 226.102 375.362 230.576 378.874 234.088C382.386 237.6 386.86 239.991 391.73 240.96C396.601 241.929 401.65 241.432 406.238 239.531C410.826 237.631 414.748 234.412 417.507 230.283C420.266 226.154 421.738 221.299 421.738 216.333C421.738 213.036 421.089 209.771 419.827 206.724C418.565 203.678 416.716 200.91 414.384 198.578C412.052 196.246 409.284 194.397 406.238 193.135C403.192 191.873 399.926 191.224 396.629 191.224ZM410.881 211.906L395.815 225.716C395.338 226.154 394.711 226.39 394.064 226.376C393.417 226.362 392.8 226.099 392.343 225.641L384.81 218.108C384.57 217.877 384.379 217.6 384.247 217.293C384.116 216.987 384.046 216.657 384.043 216.324C384.041 215.991 384.104 215.66 384.23 215.351C384.357 215.043 384.543 214.762 384.779 214.527C385.015 214.291 385.295 214.104 385.604 213.978C385.912 213.852 386.243 213.788 386.576 213.791C386.91 213.794 387.239 213.864 387.545 213.995C387.852 214.127 388.129 214.318 388.36 214.558L394.193 220.391L407.486 208.205C407.977 207.755 408.627 207.518 409.292 207.547C409.957 207.576 410.584 207.867 411.034 208.358C411.484 208.849 411.721 209.499 411.692 210.164C411.664 210.829 411.372 211.456 410.881 211.906Z" fill="#90D989"/>
</g>
<g clip-path="url(#clip1_368_471)">
<path d="M112.349 114.038L109.057 114.946L107.361 108.801C105.488 102.015 98.0738 98.139 90.8026 100.146C83.5313 102.153 79.1547 109.282 81.0279 116.069L82.7238 122.214L79.4322 123.123C77.6127 123.625 76.5198 125.405 76.9885 127.103L83.7722 151.682C84.2409 153.381 86.0923 154.349 87.9118 153.846L120.828 144.762C122.648 144.259 123.741 142.479 123.272 140.781L116.488 116.202C116.019 114.503 114.168 113.536 112.349 114.038ZM100.978 137.014C99.1587 137.517 97.3072 136.549 96.8385 134.851C96.3698 133.152 97.4628 131.372 99.2822 130.87C101.102 130.368 102.953 131.335 103.422 133.034C103.891 134.732 102.798 136.512 100.978 137.014ZM102.474 116.763L89.3071 120.397L87.6112 114.252C86.6746 110.859 88.8629 107.294 92.4985 106.291C96.1341 105.287 99.8411 107.225 100.778 110.618L102.474 116.763Z" fill="#676DD3"/>
</g>
<path d="M248.59 28.4111C229.68 28.4111 211.195 34.0187 195.471 44.5246C179.748 55.0306 167.493 69.9631 160.257 87.4339C153.02 104.905 151.127 124.129 154.816 142.676C158.505 161.223 167.611 178.259 180.983 191.631C194.354 205.002 211.391 214.108 229.937 217.798C248.484 221.487 267.709 219.593 285.179 212.357C302.65 205.12 317.583 192.865 328.089 177.142C338.595 161.419 344.202 142.933 344.202 124.023C344.202 111.467 341.729 99.034 336.924 87.4339C332.119 75.8337 325.076 65.2936 316.198 56.4152C307.32 47.5368 296.78 40.4941 285.179 35.6891C273.579 30.8842 261.146 28.4111 248.59 28.4111ZM302.86 107.167L245.493 159.753C243.676 161.419 241.287 162.318 238.823 162.265C236.36 162.211 234.012 161.209 232.269 159.466L203.586 130.783C202.673 129.901 201.944 128.846 201.443 127.679C200.942 126.513 200.678 125.258 200.667 123.989C200.656 122.719 200.898 121.46 201.379 120.285C201.86 119.11 202.57 118.042 203.467 117.145C204.365 116.247 205.433 115.537 206.608 115.056C207.783 114.576 209.042 114.334 210.311 114.345C211.581 114.356 212.835 114.619 214.002 115.12C215.168 115.622 216.223 116.35 217.105 117.263L239.316 139.474L289.933 93.0734C291.802 91.3592 294.275 90.4576 296.809 90.567C299.342 90.6764 301.729 91.7878 303.443 93.6566C305.157 95.5255 306.059 97.9988 305.949 100.532C305.84 103.066 304.729 105.452 302.86 107.167Z" fill="#90D989"/>
<defs>
<clipPath id="clip0_368_471">
<rect width="138.303" height="138.303" fill="white" transform="translate(346.732 132.218) rotate(14.3243)"/>
</clipPath>
<clipPath id="clip1_368_471">
<rect width="54.6353" height="50.9961" fill="white" transform="translate(64.4707 107.416) rotate(-15.4292)"/>
</clipPath>
</defs>
</svg>
