<svg width="510" height="295" viewBox="0 0 510 295" fill="none" xmlns="http://www.w3.org/2000/svg">
<path d="M128.859 276.203C192.768 270.664 222.547 256.866 272.541 226.682C303.925 217.392 316.816 224.226 336.012 246.212C383.145 303.384 446.214 318.053 490.156 246.212C534.097 174.371 505.375 56.7914 400.878 22.3192C349.288 -0.184748 319.681 -4.52155 266.259 4.18463C216.028 9.88179 192.5 26.6644 149.779 54.4035C45.4606 87.7267 27.3984 106.782 8.89209 140.891C-22.4993 221.102 31.9847 278.408 128.859 276.203Z" fill="#DCF1F6"/>
<g clip-path="url(#clip0_368_685)">
<path d="M436.825 153.294L397.122 143.156C392.859 142.067 388.52 144.641 387.431 148.905L368.282 223.898C367.193 228.162 369.767 232.501 374.03 233.589L413.733 243.727C417.996 244.816 422.335 242.242 423.424 237.979L442.574 162.985C443.662 158.721 441.088 154.383 436.825 153.294Z" fill="#D9D9D9" stroke="#474F97" stroke-width="6.82942"/>
<path d="M383.746 223.149L410.214 229.908" stroke="#5764B3" stroke-width="6.82942" stroke-linecap="round"/>
<path d="M403.459 145.95C404.082 143.514 406.561 142.043 408.997 142.666L426.643 147.171C429.079 147.793 430.55 150.273 429.928 152.709L428.801 157.121C428.179 159.557 425.7 161.028 423.264 160.405L405.618 155.9C403.182 155.278 401.711 152.798 402.333 150.362L403.459 145.95Z" fill="#484D8E"/>
<path d="M405.462 178.346C402.469 178.346 399.544 179.233 397.056 180.896C394.568 182.558 392.629 184.921 391.484 187.686C390.339 190.45 390.039 193.492 390.623 196.427C391.207 199.362 392.648 202.058 394.763 204.174C396.879 206.29 399.575 207.731 402.51 208.315C405.445 208.898 408.487 208.599 411.252 207.454C414.016 206.308 416.379 204.369 418.042 201.881C419.704 199.393 420.592 196.468 420.592 193.475C420.592 191.489 420.2 189.521 419.44 187.686C418.68 185.85 417.565 184.182 416.16 182.777C414.755 181.372 413.087 180.258 411.252 179.497C409.416 178.737 407.449 178.346 405.462 178.346ZM414.049 190.808L404.972 199.129C404.684 199.393 404.306 199.535 403.916 199.527C403.526 199.519 403.155 199.36 402.879 199.084L398.34 194.545C398.196 194.406 398.08 194.239 398.001 194.054C397.922 193.869 397.88 193.671 397.878 193.47C397.877 193.269 397.915 193.07 397.991 192.884C398.067 192.698 398.179 192.529 398.321 192.387C398.464 192.245 398.632 192.133 398.818 192.057C399.004 191.981 399.204 191.942 399.404 191.944C399.605 191.946 399.804 191.987 399.988 192.067C400.173 192.146 400.34 192.261 400.48 192.406L403.994 195.92L412.004 188.578C412.3 188.307 412.691 188.164 413.092 188.181C413.493 188.199 413.871 188.375 414.142 188.67C414.413 188.966 414.556 189.357 414.538 189.758C414.521 190.159 414.345 190.537 414.049 190.808Z" fill="#90D989"/>
</g>
<path d="M433.817 100.117L427.203 95.3726C427.317 94.4689 427.317 93.4522 427.317 92.5485C427.317 91.5319 427.317 90.6282 427.203 89.7245L433.817 84.9801C434.957 84.3023 435.299 82.9468 434.615 81.9301L426.519 68.2617C425.835 67.1321 424.466 66.7932 423.326 67.4709L415.8 70.7468C414.204 69.6172 412.493 68.7135 410.669 67.9228L409.985 59.7895C409.985 58.5469 408.958 57.5303 407.704 57.5303H391.512C390.258 57.5303 389.231 58.5469 389.231 59.7895L388.433 67.8098C386.609 68.6006 384.898 69.5043 383.302 70.6339L375.776 67.358C374.636 66.6802 373.267 67.1321 372.583 68.1487L364.601 81.9301C363.917 83.0597 364.373 84.4153 365.399 84.9801L372.013 89.7245C371.899 90.6282 371.899 91.6449 371.899 92.5485C371.899 93.4522 371.899 94.4689 372.013 95.3726L365.399 100.117C364.259 100.795 363.917 102.15 364.601 103.167L372.697 116.835C373.381 117.965 374.75 118.304 375.89 117.626L383.416 114.35C385.012 115.48 386.723 116.384 388.547 117.174L389.231 125.308C389.231 126.55 390.258 127.567 391.512 127.567H407.704C408.958 127.567 409.985 126.55 409.985 125.308L410.783 117.287C412.607 116.497 414.318 115.593 415.914 114.463L423.44 117.739C424.58 118.417 425.949 117.965 426.633 116.948L434.729 103.28C435.299 102.15 434.843 100.795 433.817 100.117ZM399.608 105.878C392.082 105.878 385.925 99.8911 385.925 92.5485C385.925 85.206 392.082 79.219 399.608 79.219C407.134 79.219 413.292 85.206 413.292 92.5485C413.292 99.8911 407.134 105.878 399.608 105.878Z" fill="#5663BF"/>
<path d="M149.715 209.388L143.102 204.643C143.216 203.739 143.216 202.723 143.216 201.819C143.216 200.802 143.216 199.899 143.102 198.995L149.715 194.251C150.856 193.573 151.198 192.217 150.513 191.201L142.417 177.532C141.733 176.403 140.365 176.064 139.225 176.741L131.699 180.017C130.102 178.888 128.392 177.984 126.567 177.193L125.883 169.06C125.883 167.817 124.857 166.801 123.603 166.801H107.41C106.156 166.801 105.13 167.817 105.13 169.06L104.332 177.08C102.507 177.871 100.797 178.775 99.2003 179.904L91.6744 176.628C90.5341 175.951 89.1657 176.403 88.4815 177.419L80.4995 191.201C79.8153 192.33 80.2714 193.686 81.2977 194.251L87.9114 198.995C87.7974 199.899 87.7974 200.915 87.7974 201.819C87.7974 202.723 87.7974 203.739 87.9114 204.643L81.2977 209.388C80.1574 210.065 79.8153 211.421 80.4995 212.438L88.5956 226.106C89.2797 227.236 90.6481 227.574 91.7884 226.897L99.3143 223.621C100.911 224.75 102.621 225.654 104.446 226.445L105.13 234.578C105.13 235.821 106.156 236.837 107.41 236.837H123.603C124.857 236.837 125.883 235.821 125.883 234.578L126.681 226.558C128.506 225.767 130.216 224.863 131.813 223.734L139.339 227.01C140.479 227.687 141.847 227.236 142.531 226.219L150.628 212.55C151.198 211.421 150.742 210.065 149.715 209.388ZM115.506 215.149C107.981 215.149 101.823 209.162 101.823 201.819C101.823 194.477 107.981 188.49 115.506 188.49C123.032 188.49 129.19 194.477 129.19 201.819C129.19 209.162 123.032 215.149 115.506 215.149Z" fill="#5663BF"/>
<g clip-path="url(#clip1_368_685)">
<path d="M121.556 105.808L118.253 106.676L116.634 100.51C114.847 93.7001 107.482 89.7318 100.186 91.6471C92.89 93.5625 88.4242 100.637 90.212 107.447L91.8306 113.612L88.5279 114.479C86.7022 114.959 85.587 116.725 86.0344 118.429L92.509 143.091C92.9563 144.795 94.7955 145.786 96.6211 145.307L129.649 136.636C131.475 136.157 132.59 134.391 132.142 132.687L125.668 108.024C125.22 106.32 123.381 105.329 121.556 105.808ZM109.898 128.641C108.072 129.12 106.233 128.129 105.786 126.425C105.338 124.721 106.453 122.954 108.279 122.475C110.105 121.996 111.944 122.987 112.391 124.691C112.839 126.395 111.723 128.161 109.898 128.641ZM111.647 108.41L98.4362 111.878L96.8176 105.712C95.9237 102.308 98.1566 98.7704 101.805 97.8127C105.452 96.855 109.135 98.8392 110.029 102.244L111.647 108.41Z" fill="#676DD3"/>
</g>
<g clip-path="url(#clip2_368_685)">
<g clip-path="url(#clip3_368_685)">
<path d="M332.094 93.3096C332.043 89.6926 329.032 86.7046 325.138 86.3742C292.772 83.575 266.36 67.5816 257.652 61.7315C255.832 60.5049 253.366 60.5049 251.546 61.7315C242.855 67.5816 216.443 83.575 184.078 86.3742C180.183 86.7046 177.19 89.6926 177.121 93.3096C176.73 116.914 180.829 197.054 252.652 214.888C253.927 215.202 255.271 215.202 256.546 214.888C328.369 197.07 332.468 116.914 332.094 93.3096Z" fill="#BAC1F7"/>
</g>
<path d="M325.596 70.8148C301.196 74.255 276.258 66.0212 258.841 48.7704C256.503 46.4541 252.715 46.4541 250.376 48.7704C232.96 66.0234 208.022 74.2646 183.621 70.8148C180.031 70.3005 176.789 73.0732 176.789 76.6857V116.222C176.789 163.069 206.338 207.077 252.064 228.339C252.871 228.714 253.74 228.901 254.609 228.901C255.478 228.901 256.347 228.714 257.154 228.339C302.88 207.077 332.429 163.069 332.429 116.222V76.6857C332.429 73.0434 329.152 70.3015 325.596 70.8148ZM308.484 116.222C308.484 152.287 286.664 183.635 257.973 200.996C257.14 201.546 255.789 202.023 254.609 202.023C253.448 202.023 252.069 201.562 251.245 200.996C221.213 182.823 200.733 150.753 200.733 116.222V100.61C200.733 97.5835 203.033 95.0426 206.072 94.7144C222.195 92.9753 237.835 87.3783 251.3 78.531C251.316 78.52 251.337 78.5172 251.353 78.5062C252.21 77.9538 253.514 77.5428 254.608 77.5428C255.701 77.5428 257.009 77.9552 257.866 78.5072C257.882 78.5179 257.901 78.5207 257.917 78.5314C271.382 87.379 287.022 92.9753 303.144 94.7148C306.184 95.043 308.483 97.5835 308.483 100.611L308.484 116.222Z" fill="#6468C1"/>
<g clip-path="url(#clip4_368_685)">
<path d="M271.987 128.967H268.51V122.537C268.51 115.436 262.283 109.678 254.603 109.678C246.923 109.678 240.696 115.436 240.696 122.537V128.967H237.219C235.297 128.967 233.742 130.405 233.742 132.182V157.9C233.742 159.677 235.297 161.115 237.219 161.115H271.987C273.909 161.115 275.464 159.677 275.464 157.9V132.182C275.464 130.405 273.909 128.967 271.987 128.967ZM254.603 148.256C252.681 148.256 251.126 146.818 251.126 145.041C251.126 143.264 252.681 141.826 254.603 141.826C256.525 141.826 258.08 143.264 258.08 145.041C258.08 146.818 256.525 148.256 254.603 148.256ZM261.557 128.967H247.649V122.537C247.649 118.986 250.763 116.107 254.603 116.107C258.443 116.107 261.557 118.986 261.557 122.537V128.967Z" fill="#2ACF91"/>
</g>
</g>
<defs>
<clipPath id="clip0_368_685">
<rect width="109.271" height="109.271" fill="white" transform="translate(366.01 126.99) rotate(14.3243)"/>
</clipPath>
<clipPath id="clip1_368_685">
<rect width="54.6353" height="50.9961" fill="white" transform="translate(73.7637 98.585) rotate(-14.7099)"/>
</clipPath>
<clipPath id="clip2_368_685">
<rect width="183.575" height="181.868" fill="white" transform="translate(162.82 47.0332)"/>
</clipPath>
<clipPath id="clip3_368_685">
<rect width="166.886" height="154.312" fill="white" transform="translate(171.164 60.8125)"/>
</clipPath>
<clipPath id="clip4_368_685">
<rect width="55.6287" height="51.4373" fill="white" transform="translate(226.791 109.678)"/>
</clipPath>
</defs>
</svg>
