<svg width="32" height="32" viewBox="0 0 32 32" fill="none" xmlns="http://www.w3.org/2000/svg">
<path d="M16.0007 1.33301L28.6673 8.66634V23.333L16.0007 30.6663L3.33398 23.333V8.66634L16.0007 1.33301ZM16.0007 19.9997C17.0615 19.9997 18.0789 19.5782 18.8291 18.8281C19.5792 18.078 20.0007 17.0605 20.0007 15.9997C20.0007 14.9388 19.5792 13.9214 18.8291 13.1712C18.0789 12.4211 17.0615 11.9997 16.0007 11.9997C14.9398 11.9997 13.9224 12.4211 13.1722 13.1712C12.4221 13.9214 12.0007 14.9388 12.0007 15.9997C12.0007 17.0605 12.4221 18.078 13.1722 18.8281C13.9224 19.5782 14.9398 19.9997 16.0007 19.9997Z" fill="#5863B2"/>
</svg>
