<svg width="510" height="376" viewBox="0 0 510 376" fill="none" xmlns="http://www.w3.org/2000/svg">
<path d="M200.817 182.269L281.719 252.003L437.417 71.3773" stroke="#2EC78C" stroke-width="44.1759" stroke-linecap="round" stroke-linejoin="round"/>
<path d="M107.53 318.374L105.366 316.822C105.404 316.526 105.404 316.194 105.404 315.898C105.404 315.566 105.404 315.27 105.366 314.975L107.53 313.423C107.903 313.201 108.015 312.757 107.791 312.425L105.142 307.954C104.919 307.584 104.471 307.473 104.098 307.695L101.636 308.767C101.114 308.397 100.554 308.102 99.9577 307.843L99.7339 305.182C99.7339 304.776 99.3982 304.443 98.9879 304.443H93.6912C93.2809 304.443 92.9452 304.776 92.9452 305.182L92.6841 307.806C92.0873 308.065 91.5278 308.36 91.0056 308.73L88.5437 307.658C88.1707 307.436 87.7231 307.584 87.4993 307.917L84.8883 312.425C84.6645 312.794 84.8137 313.238 85.1494 313.423L87.3128 314.975C87.2755 315.27 87.2755 315.603 87.2755 315.898C87.2755 316.194 87.2755 316.526 87.3128 316.822L85.1494 318.374C84.7764 318.596 84.6645 319.039 84.8883 319.372L87.5366 323.843C87.7604 324.212 88.208 324.323 88.581 324.102L91.0429 323.03C91.5651 323.399 92.1246 323.695 92.7214 323.954L92.9452 326.614C92.9452 327.021 93.2809 327.353 93.6912 327.353H98.9879C99.3982 327.353 99.7339 327.021 99.7339 326.614L99.995 323.991C100.592 323.732 101.151 323.436 101.674 323.067L104.135 324.138C104.508 324.36 104.956 324.212 105.18 323.88L107.828 319.409C108.015 319.039 107.865 318.596 107.53 318.374ZM96.3395 320.259C93.8777 320.259 91.8635 318.3 91.8635 315.898C91.8635 313.496 93.8777 311.538 96.3395 311.538C98.8014 311.538 100.816 313.496 100.816 315.898C100.816 318.3 98.8014 320.259 96.3395 320.259Z" fill="#5663BF"/>
<path d="M389.839 246.55L386.987 244.504C387.036 244.114 387.036 243.676 387.036 243.286C387.036 242.848 387.036 242.458 386.987 242.069L389.839 240.023C390.33 239.73 390.478 239.146 390.183 238.708L386.692 232.814C386.397 232.327 385.807 232.181 385.315 232.473L382.07 233.885C381.382 233.398 380.644 233.009 379.857 232.668L379.562 229.161C379.562 228.625 379.12 228.187 378.579 228.187H371.597C371.056 228.187 370.614 228.625 370.614 229.161L370.269 232.619C369.483 232.96 368.745 233.35 368.057 233.837L364.812 232.424C364.32 232.132 363.73 232.327 363.435 232.765L359.993 238.708C359.698 239.195 359.895 239.779 360.337 240.023L363.189 242.069C363.14 242.458 363.14 242.897 363.14 243.286C363.14 243.676 363.14 244.114 363.189 244.504L360.337 246.55C359.846 246.842 359.698 247.426 359.993 247.865L363.484 253.759C363.779 254.246 364.369 254.392 364.861 254.1L368.106 252.687C368.794 253.174 369.532 253.564 370.319 253.905L370.614 257.412C370.614 257.948 371.056 258.386 371.597 258.386H378.579C379.12 258.386 379.562 257.948 379.562 257.412L379.907 253.953C380.693 253.612 381.431 253.223 382.119 252.736L385.364 254.148C385.856 254.441 386.446 254.246 386.741 253.807L390.232 247.914C390.478 247.426 390.281 246.842 389.839 246.55ZM375.088 249.034C371.843 249.034 369.188 246.452 369.188 243.286C369.188 240.12 371.843 237.539 375.088 237.539C378.333 237.539 380.988 240.12 380.988 243.286C380.988 246.452 378.333 249.034 375.088 249.034Z" fill="#5663BF"/>
<path d="M480.704 161.554L478.639 160.073C478.675 159.791 478.675 159.473 478.675 159.191C478.675 158.874 478.675 158.591 478.639 158.309L480.704 156.828C481.06 156.616 481.167 156.193 480.954 155.876L478.426 151.608C478.212 151.255 477.785 151.149 477.429 151.361L475.079 152.384C474.58 152.031 474.046 151.749 473.476 151.502L473.263 148.962C473.263 148.574 472.942 148.257 472.551 148.257H467.495C467.103 148.257 466.783 148.574 466.783 148.962L466.533 151.467C465.964 151.713 465.43 151.996 464.931 152.348L462.581 151.325C462.225 151.114 461.798 151.255 461.584 151.572L459.092 155.876C458.878 156.228 459.021 156.652 459.341 156.828L461.406 158.309C461.371 158.591 461.371 158.909 461.371 159.191C461.371 159.473 461.371 159.791 461.406 160.073L459.341 161.554C458.985 161.766 458.878 162.189 459.092 162.507L461.62 166.775C461.834 167.127 462.261 167.233 462.617 167.021L464.967 165.999C465.465 166.351 465.999 166.633 466.569 166.88L466.783 169.42C466.783 169.808 467.103 170.125 467.495 170.125H472.551C472.942 170.125 473.263 169.808 473.263 169.42L473.512 166.916C474.082 166.669 474.616 166.387 475.114 166.034L477.464 167.057C477.82 167.268 478.248 167.127 478.461 166.81L480.989 162.542C481.167 162.189 481.025 161.766 480.704 161.554ZM470.023 163.353C467.673 163.353 465.75 161.484 465.75 159.191C465.75 156.898 467.673 155.029 470.023 155.029C472.373 155.029 474.295 156.898 474.295 159.191C474.295 161.484 472.373 163.353 470.023 163.353Z" fill="#5663BF"/>
<path d="M180.41 93.0409L172.543 87.3974C172.679 86.3224 172.679 85.1131 172.679 84.0382C172.679 82.8288 172.679 81.7539 172.543 80.6789L180.41 75.0354C181.767 74.2292 182.173 72.6168 181.36 71.4075L171.729 55.1488C170.915 53.8051 169.288 53.402 167.931 54.2083L158.979 58.105C157.08 56.7613 155.046 55.6863 152.876 54.7457L152.062 45.0712C152.062 43.5931 150.841 42.3838 149.349 42.3838H130.088C128.596 42.3838 127.376 43.5931 127.376 45.0712L126.426 54.6114C124.256 55.5519 122.221 56.6269 120.322 57.9706L111.37 54.0739C110.014 53.2677 108.386 53.8051 107.572 55.0145L98.0777 71.4075C97.2639 72.7512 97.8064 74.3636 99.0272 75.0354L106.894 80.6789C106.759 81.7539 106.759 82.9632 106.759 84.0382C106.759 85.1131 106.759 86.3224 106.894 87.3974L99.0272 93.0409C97.6708 93.8471 97.2639 95.4595 98.0777 96.6688L107.708 112.927C108.522 114.271 110.15 114.674 111.506 113.868L120.458 109.971C122.357 111.315 124.392 112.39 126.562 113.331L127.376 123.005C127.376 124.483 128.596 125.693 130.088 125.693H149.349C150.841 125.693 152.062 124.483 152.062 123.005L153.011 113.465C155.181 112.524 157.216 111.449 159.115 110.106L168.067 114.002C169.423 114.809 171.051 114.271 171.865 113.062L181.495 96.8032C182.173 95.4595 181.631 93.8471 180.41 93.0409ZM139.719 99.8937C130.767 99.8937 123.442 92.7721 123.442 84.0382C123.442 75.3042 130.767 68.1826 139.719 68.1826C148.671 68.1826 155.995 75.3042 155.995 84.0382C155.995 92.7721 148.671 99.8937 139.719 99.8937Z" fill="#5663BF"/>
<path d="M455.414 307.826L449.514 303.593C449.616 302.787 449.616 301.88 449.616 301.074C449.616 300.167 449.616 299.361 449.514 298.554L455.414 294.322C456.431 293.717 456.737 292.508 456.126 291.601L448.903 279.407C448.293 278.399 447.072 278.097 446.055 278.701L439.341 281.624C437.917 280.616 436.391 279.81 434.763 279.104L434.153 271.849C434.153 270.74 433.237 269.833 432.118 269.833H417.673C416.554 269.833 415.638 270.74 415.638 271.849L414.926 279.004C413.298 279.709 411.772 280.515 410.348 281.523L403.634 278.601C402.617 277.996 401.396 278.399 400.786 279.306L393.665 291.601C393.054 292.609 393.461 293.818 394.377 294.322L400.277 298.554C400.175 299.361 400.175 300.268 400.175 301.074C400.175 301.88 400.175 302.787 400.277 303.593L394.377 307.826C393.36 308.43 393.054 309.64 393.665 310.547L400.887 322.741C401.498 323.749 402.719 324.051 403.736 323.446L410.45 320.524C411.874 321.531 413.4 322.338 415.028 323.043L415.638 330.299C415.638 331.408 416.554 332.315 417.673 332.315H432.118C433.237 332.315 434.153 331.408 434.153 330.299L434.865 323.144C436.493 322.438 438.018 321.632 439.443 320.624L446.157 323.547C447.174 324.152 448.395 323.749 449.005 322.842L456.228 310.648C456.737 309.64 456.33 308.43 455.414 307.826ZM424.895 312.965C418.181 312.965 412.688 307.624 412.688 301.074C412.688 294.523 418.181 289.182 424.895 289.182C431.61 289.182 437.103 294.523 437.103 301.074C437.103 307.624 431.61 312.965 424.895 312.965Z" fill="#5663BF"/>
<g clip-path="url(#clip0_368_949)">
<path d="M245.786 22.8299L243.696 22.4817L244.346 18.5791C245.064 14.2687 241.902 10.1503 237.284 9.38117C232.666 8.612 228.339 11.4832 227.621 15.7936L226.971 19.6962L224.881 19.348C223.725 19.1555 222.645 19.8725 222.465 20.9511L219.865 36.5615C219.686 37.64 220.475 38.6685 221.631 38.861L242.536 42.3429C243.692 42.5354 244.772 41.8184 244.952 40.7398L247.552 25.1294C247.731 24.0508 246.942 23.0224 245.786 22.8299ZM233.383 32.7967C232.228 32.6043 231.438 31.5758 231.618 30.4972C231.798 29.4187 232.878 28.7017 234.034 28.8941C235.189 29.0866 235.979 30.1151 235.799 31.1936C235.619 32.2722 234.539 32.9892 233.383 32.7967ZM239.515 21.7853L231.152 20.3926L231.802 16.49C232.161 14.3348 234.325 12.8992 236.634 13.2838C238.943 13.6683 240.524 15.7275 240.165 17.8828L239.515 21.7853Z" fill="#676DD3"/>
<circle cx="253.643" cy="10.8514" r="4.06915" fill="#D9D9D9"/>
</g>
<g clip-path="url(#clip1_368_949)">
<path d="M92.5527 139.479L98.4713 139.236L102.312 134.688L104.338 140.262L109.813 142.498L105.147 146.187L104.69 152.117L99.7794 148.822L94.0226 150.251L95.6537 144.526L92.5527 139.479Z" fill="#FFCB45"/>
</g>
<g clip-path="url(#clip2_368_949)">
<path d="M153.004 307.835L158.882 308.575L163.422 304.725L164.498 310.559L169.527 313.67L164.314 316.535L162.882 322.308L158.585 318.246L152.671 318.702L155.227 313.326L153.004 307.835Z" fill="#FFCB45"/>
</g>
<g clip-path="url(#clip3_368_949)">
<path d="M77.5173 231.336L86.4516 234.762L95.058 230.473L94.4972 240.038L101.186 246.858L91.9053 249.343L87.4329 257.847L82.2579 249.818L72.8047 248.253L78.8873 240.806L77.5173 231.336Z" fill="#FFCB45"/>
</g>
<g clip-path="url(#clip4_368_949)">
<path d="M453.231 203.635L462.634 205.41L470.335 199.651L471.493 209.163L479.294 214.677L470.607 218.781L467.726 227.947L461.199 220.972L451.619 221.123L456.272 212.708L453.231 203.635Z" fill="#FFCB45"/>
</g>
<g clip-path="url(#clip5_368_949)">
<path d="M295.651 31.1946L305.211 31.605L312.009 24.8041L314.517 34.0519L323.026 38.393L315.015 43.6981L313.476 53.182L306.018 47.2129L296.558 48.7332L299.959 39.739L295.651 31.1946Z" fill="#FFCB45"/>
</g>
<line x1="356.332" y1="263.165" x2="379.814" y2="287.951" stroke="#2EC78C" stroke-width="1.35638" stroke-linecap="round"/>
<line x1="344.059" y1="298.749" x2="354.359" y2="321.924" stroke="#2EC78C" stroke-width="1.35638" stroke-linecap="round"/>
<line x1="243.202" y1="311.48" x2="224.671" y2="363.102" stroke="#2EC78C" stroke-width="1.35638" stroke-linecap="round"/>
<line x1="163.954" y1="276.29" x2="120.307" y2="306.711" stroke="#2EC78C" stroke-width="1.35638" stroke-linecap="round"/>
<line x1="171.732" y1="232.742" x2="126.944" y2="241.964" stroke="#2EC78C" stroke-width="1.35638" stroke-linecap="round"/>
<line x1="140.352" y1="209.526" x2="88.8081" y2="206.883" stroke="#2EC78C" stroke-width="1.35638" stroke-linecap="round"/>
<line x1="343.451" y1="59.2404" x2="312.882" y2="117.719" stroke="#2EC78C" stroke-width="1.35638" stroke-linecap="round"/>
<line x1="280.011" y1="59.076" x2="274.739" y2="105.202" stroke="#2EC78C" stroke-width="1.35638" stroke-linecap="round"/>
<line x1="220.526" y1="67.0045" x2="224.345" y2="87.3735" stroke="#2EC78C" stroke-width="1.35638" stroke-linecap="round"/>
<line x1="196.259" y1="84.2838" x2="211.783" y2="107.57" stroke="#2EC78C" stroke-width="1.35638" stroke-linecap="round"/>
<line x1="449.422" y1="247.204" x2="399.118" y2="224.7" stroke="#2EC78C" stroke-width="1.35638" stroke-linecap="round"/>
<line x1="455.645" y1="124.386" x2="434.996" y2="141.163" stroke="#2EC78C" stroke-width="1.35638" stroke-linecap="round"/>
<line x1="364.452" y1="313.503" x2="384.034" y2="342.223" stroke="#C2C7EF" stroke-width="1.35638" stroke-linecap="round"/>
<line x1="331.835" y1="340.838" x2="340.838" y2="363.989" stroke="#C2C7EF" stroke-width="1.35638" stroke-linecap="round"/>
<line x1="433.543" y1="164.941" x2="395.526" y2="174.118" stroke="#C2C7EF" stroke-width="1.35638" stroke-linecap="round"/>
<line x1="395.545" y1="198.923" x2="413.231" y2="203.976" stroke="#C2C7EF" stroke-width="1.35638" stroke-linecap="round"/>
<line x1="450.659" y1="107.614" x2="476.549" y2="95.9631" stroke="#C2C7EF" stroke-width="1.35638" stroke-linecap="round"/>
<line x1="224.014" y1="285.776" x2="192.185" y2="336.172" stroke="#C2C7EF" stroke-width="1.35638" stroke-linecap="round"/>
<line x1="148.791" y1="247.729" x2="131.079" y2="254.055" stroke="#C2C7EF" stroke-width="1.35638" stroke-linecap="round"/>
<line x1="91.4458" y1="179.589" x2="62.9399" y2="174.406" stroke="#C2C7EF" stroke-width="1.35638" stroke-linecap="round"/>
<line x1="189.406" y1="39.7406" x2="199.794" y2="68.3063" stroke="#C2C7EF" stroke-width="1.35638" stroke-linecap="round"/>
<line x1="355.649" y1="13.1267" x2="337.302" y2="47.1984" stroke="#C2C7EF" stroke-width="1.35638" stroke-linecap="round"/>
<circle cx="249.575" cy="90.8776" r="6.78191" fill="#2EC78C"/>
<circle cx="6.78191" cy="231.942" r="6.78191" fill="#D9D9D9"/>
<circle cx="28.4831" cy="162.766" r="6.78191" fill="#D9D9D9"/>
<circle cx="311.967" cy="317.394" r="6.78191" fill="#2EC78C"/>
<circle cx="118.684" cy="273.312" r="6.10372" fill="#2EC78C"/>
<circle cx="197.354" cy="307.221" r="6.10372" fill="#D9D9D9"/>
<circle cx="183.789" cy="31.8753" r="3.39096" fill="#2EC78C"/>
<circle cx="218.378" cy="61.0379" r="4.06915" fill="#2EC78C"/>
<circle cx="359.442" cy="4.06915" r="4.06915" fill="#AFB7E8"/>
<circle cx="486.264" cy="94.2689" r="3.39096" fill="#AFB7E8"/>
<circle cx="444.215" cy="113.258" r="3.39096" fill="#AFB7E8"/>
<circle cx="441.502" cy="163.445" r="3.39096" fill="#AFB7E8"/>
<circle cx="463.205" cy="120.04" r="3.39096" fill="#2EC78C"/>
<circle cx="463.205" cy="252.966" r="3.39096" fill="#2EC78C"/>
<circle cx="387.246" cy="349.269" r="3.39096" fill="#AFB7E8"/>
<circle cx="419.801" cy="365.545" r="3.39096" fill="#D9D9D9"/>
<circle cx="220.412" cy="372.327" r="3.39096" fill="#AFB7E8"/>
<circle cx="185.147" cy="342.487" r="3.39096" fill="#AFB7E8"/>
<circle cx="103.764" cy="361.477" r="3.39096" fill="#D9D9D9"/>
<circle cx="124.11" cy="254.323" r="3.39096" fill="#D9D9D9"/>
<circle cx="76.6351" cy="204.136" r="3.39096" fill="#B8BFF6"/>
<circle cx="65.7855" cy="242.115" r="3.39096" fill="#D9D9D9"/>
<circle cx="42.7269" cy="160.732" r="3.39096" fill="#B8BFF6"/>
<circle cx="49.5081" cy="258.391" r="3.39096" fill="#D9D9D9"/>
<circle cx="53.5765" cy="168.87" r="3.39096" fill="#2EC78C"/>
<circle cx="345.2" cy="370.971" r="3.39096" fill="#AFB7E8"/>
<circle cx="505.253" cy="314.003" r="4.74734" fill="#D9D9D9"/>
<circle cx="423.87" cy="183.79" r="4.74734" fill="#D9D9D9"/>
<circle cx="417.088" cy="205.493" r="3.39096" fill="#AFB7E8"/>
<defs>
<clipPath id="clip0_368_949">
<rect width="33.9096" height="31.6509" fill="white" transform="translate(220.561 6.59668) rotate(9.45622)"/>
</clipPath>
<clipPath id="clip1_368_949">
<rect width="17.633" height="17.633" fill="white" transform="translate(88.1641 147.132) rotate(-61.9601)"/>
</clipPath>
<clipPath id="clip2_368_949">
<rect width="17.633" height="17.633" fill="white" transform="translate(147.408 314.656) rotate(-52.4308)"/>
</clipPath>
<clipPath id="clip3_368_949">
<rect width="28.484" height="28.484" fill="white" transform="translate(66.1133 239.878) rotate(-38.6245)"/>
</clipPath>
<clipPath id="clip4_368_949">
<rect width="28.484" height="28.484" fill="white" transform="translate(443.537 214.078) rotate(-48.9218)"/>
</clipPath>
<clipPath id="clip5_368_949">
<rect width="28.484" height="28.484" fill="white" transform="translate(287.553 42.9189) rotate(-57.1493)"/>
</clipPath>
</defs>
</svg>
